<?xml version="1.0" encoding="UTF-8" standalone="no"?>
<!DOCTYPE svg PUBLIC "-//W3C//DTD SVG 1.1//EN"
 "http://www.w3.org/Graphics/SVG/1.1/DTD/svg11.dtd">
<!-- Generated by graphviz version 2.50.0 (0)
 -->
<!-- Pages: 1 -->
<svg width="326pt" height="116pt"
 viewBox="0.00 0.00 326.19 116.00" xmlns="http://www.w3.org/2000/svg" xmlns:xlink="http://www.w3.org/1999/xlink">
<g id="graph0" class="graph" transform="scale(1 1) rotate(0) translate(4 112)">
<polygon fill="white" stroke="transparent" points="-4,4 -4,-112 322.19,-112 322.19,4 -4,4"/>
<!-- Media Spend -->
<g id="node1" class="node">
<title>Media Spend</title>
<ellipse fill="none" stroke="black" cx="57.84" cy="-90" rx="57.69" ry="18"/>
<text text-anchor="middle" x="57.84" y="-86.3" font-family="Times,serif" font-size="14.00">Media Spend</text>
</g>
<!-- Target -->
<g id="node4" class="node">
<title>Target</title>
<ellipse fill="none" stroke="black" cx="165.84" cy="-18" rx="33.6" ry="18"/>
<text text-anchor="middle" x="165.84" y="-14.3" font-family="Times,serif" font-size="14.00">Target</text>
</g>
<!-- Media Spend&#45;&gt;Target -->
<g id="edge1" class="edge">
<title>Media Spend&#45;&gt;Target</title>
<path fill="none" stroke="black" d="M81.81,-73.46C98.01,-62.97 119.48,-49.05 136.67,-37.91"/>
<polygon fill="black" stroke="black" points="138.73,-40.75 145.22,-32.37 134.92,-34.87 138.73,-40.75"/>
</g>
<!-- Trend -->
<g id="node2" class="node">
<title>Trend</title>
<ellipse fill="none" stroke="black" stroke-dasharray="5,2" cx="165.84" cy="-90" rx="31.7" ry="18"/>
<text text-anchor="middle" x="165.84" y="-86.3" font-family="Times,serif" font-size="14.00">Trend</text>
</g>
<!-- Trend&#45;&gt;Target -->
<g id="edge2" class="edge">
<title>Trend&#45;&gt;Target</title>
<path fill="none" stroke="black" d="M165.84,-71.7C165.84,-63.98 165.84,-54.71 165.84,-46.11"/>
<polygon fill="black" stroke="black" points="169.34,-46.1 165.84,-36.1 162.34,-46.1 169.34,-46.1"/>
</g>
<!-- Seasonality -->
<g id="node3" class="node">
<title>Seasonality</title>
<ellipse fill="none" stroke="black" stroke-dasharray="5,2" cx="266.84" cy="-90" rx="51.19" ry="18"/>
<text text-anchor="middle" x="266.84" y="-86.3" font-family="Times,serif" font-size="14.00">Seasonality</text>
</g>
<!-- Seasonality&#45;&gt;Target -->
<g id="edge3" class="edge">
<title>Seasonality&#45;&gt;Target</title>
<path fill="none" stroke="black" d="M244.43,-73.46C229.62,-63.2 210.09,-49.66 194.2,-38.65"/>
<polygon fill="black" stroke="black" points="196.02,-35.65 185.8,-32.83 192.03,-41.41 196.02,-35.65"/>
</g>
</g>
</svg>
