<?xml version="1.0" encoding="UTF-8" standalone="no"?>
<!DOCTYPE svg PUBLIC "-//W3C//DTD SVG 1.1//EN"
 "http://www.w3.org/Graphics/SVG/1.1/DTD/svg11.dtd">
<!-- Generated by graphviz version 12.2.1 (0)
 -->
<!-- Pages: 1 -->
<svg width="337pt" height="116pt"
 viewBox="0.00 0.00 336.96 116.00" xmlns="http://www.w3.org/2000/svg" xmlns:xlink="http://www.w3.org/1999/xlink">
<g id="graph0" class="graph" transform="scale(1 1) rotate(0) translate(4 112)">
<polygon fill="white" stroke="none" points="-4,4 -4,-112 332.96,-112 332.96,4 -4,4"/>
<!-- Media Spend -->
<g id="node1" class="node">
<title>Media Spend</title>
<ellipse fill="none" stroke="black" cx="60.56" cy="-90" rx="60.56" ry="18"/>
<text text-anchor="middle" x="60.56" y="-84.95" font-family="Times,serif" font-size="14.00">Media Spend</text>
</g>
<!-- Target -->
<g id="node4" class="node">
<title>Target</title>
<ellipse fill="none" stroke="black" cx="171.56" cy="-18" rx="34.97" ry="18"/>
<text text-anchor="middle" x="171.56" y="-12.95" font-family="Times,serif" font-size="14.00">Target</text>
</g>
<!-- Media Spend&#45;&gt;Target -->
<g id="edge1" class="edge">
<title>Media Spend&#45;&gt;Target</title>
<path fill="none" stroke="black" d="M85.47,-73.29C101.72,-63.05 123.05,-49.6 140.41,-38.65"/>
<polygon fill="black" stroke="black" points="142.23,-41.64 148.82,-33.34 138.5,-35.71 142.23,-41.64"/>
</g>
<!-- Trend -->
<g id="node2" class="node">
<title>Trend</title>
<ellipse fill="none" stroke="black" stroke-dasharray="5,2" cx="171.56" cy="-90" rx="32.93" ry="18"/>
<text text-anchor="middle" x="171.56" y="-84.95" font-family="Times,serif" font-size="14.00">Trend</text>
</g>
<!-- Trend&#45;&gt;Target -->
<g id="edge2" class="edge">
<title>Trend&#45;&gt;Target</title>
<path fill="none" stroke="black" d="M171.56,-71.7C171.56,-64.41 171.56,-55.73 171.56,-47.54"/>
<polygon fill="black" stroke="black" points="175.06,-47.62 171.56,-37.62 168.06,-47.62 175.06,-47.62"/>
</g>
<!-- Seasonality -->
<g id="node3" class="node">
<title>Seasonality</title>
<ellipse fill="none" stroke="black" stroke-dasharray="5,2" cx="275.56" cy="-90" rx="53.4" ry="18"/>
<text text-anchor="middle" x="275.56" y="-84.95" font-family="Times,serif" font-size="14.00">Seasonality</text>
</g>
<!-- Seasonality&#45;&gt;Target -->
<g id="edge3" class="edge">
<title>Seasonality&#45;&gt;Target</title>
<path fill="none" stroke="black" d="M252.48,-73.46C237.38,-63.3 217.49,-49.91 201.22,-38.96"/>
<polygon fill="black" stroke="black" points="203.62,-36.36 193.37,-33.68 199.71,-42.16 203.62,-36.36"/>
</g>
</g>
</svg>
