<?xml version="1.0" encoding="UTF-8" standalone="no"?>
<!DOCTYPE svg PUBLIC "-//W3C//DTD SVG 1.1//EN"
 "http://www.w3.org/Graphics/SVG/1.1/DTD/svg11.dtd">
<!-- Generated by graphviz version 12.2.1 (0)
 -->
<!-- Pages: 1 -->
<svg width="1358pt" height="608pt"
 viewBox="0.00 0.00 1358.38 608.27" xmlns="http://www.w3.org/2000/svg" xmlns:xlink="http://www.w3.org/1999/xlink">
<g id="graph0" class="graph" transform="scale(1 1) rotate(0) translate(4 604.27)">
<polygon fill="white" stroke="none" points="-4,4 -4,-604.27 1354.38,-604.27 1354.38,4 -4,4"/>
<g id="clust1" class="cluster">
<title>clusterchannel (4)</title>
<path fill="none" stroke="black" d="M372.38,-470.45C372.38,-470.45 928.38,-470.45 928.38,-470.45 934.38,-470.45 940.38,-476.45 940.38,-482.45 940.38,-482.45 940.38,-580.27 940.38,-580.27 940.38,-586.27 934.38,-592.27 928.38,-592.27 928.38,-592.27 372.38,-592.27 372.38,-592.27 366.38,-592.27 360.38,-586.27 360.38,-580.27 360.38,-580.27 360.38,-482.45 360.38,-482.45 360.38,-476.45 366.38,-470.45 372.38,-470.45"/>
<text text-anchor="middle" x="901.62" y="-477.65" font-family="Times,serif" font-size="14.00">channel (4)</text>
</g>
<g id="clust2" class="cluster">
<title>clusterdate (1050) x channel (4)</title>
<path fill="none" stroke="black" d="M134.38,-230.73C134.38,-230.73 340.38,-230.73 340.38,-230.73 346.38,-230.73 352.38,-236.73 352.38,-242.73 352.38,-242.73 352.38,-568.36 352.38,-568.36 352.38,-574.36 346.38,-580.36 340.38,-580.36 340.38,-580.36 134.38,-580.36 134.38,-580.36 128.38,-580.36 122.38,-574.36 122.38,-568.36 122.38,-568.36 122.38,-242.73 122.38,-242.73 122.38,-236.73 128.38,-230.73 134.38,-230.73"/>
<text text-anchor="middle" x="275.38" y="-237.93" font-family="Times,serif" font-size="14.00">date (1050) x channel (4)</text>
</g>
<g id="clust3" class="cluster">
<title>clusterdate (1050)</title>
<path fill="none" stroke="black" d="M372.38,-8C372.38,-8 668.38,-8 668.38,-8 674.38,-8 680.38,-14 680.38,-20 680.38,-20 680.38,-316.73 680.38,-316.73 680.38,-322.73 674.38,-328.73 668.38,-328.73 668.38,-328.73 372.38,-328.73 372.38,-328.73 366.38,-328.73 360.38,-322.73 360.38,-316.73 360.38,-316.73 360.38,-20 360.38,-20 360.38,-14 366.38,-8 372.38,-8"/>
<text text-anchor="middle" x="641.25" y="-15.2" font-family="Times,serif" font-size="14.00">date (1050)</text>
</g>
<g id="clust4" class="cluster">
<title>clustercontrol (6)</title>
<path fill="none" stroke="black" d="M1194.38,-470.45C1194.38,-470.45 1330.38,-470.45 1330.38,-470.45 1336.38,-470.45 1342.38,-476.45 1342.38,-482.45 1342.38,-482.45 1342.38,-580.27 1342.38,-580.27 1342.38,-586.27 1336.38,-592.27 1330.38,-592.27 1330.38,-592.27 1194.38,-592.27 1194.38,-592.27 1188.38,-592.27 1182.38,-586.27 1182.38,-580.27 1182.38,-580.27 1182.38,-482.45 1182.38,-482.45 1182.38,-476.45 1188.38,-470.45 1194.38,-470.45"/>
<text text-anchor="middle" x="1305.5" y="-477.65" font-family="Times,serif" font-size="14.00">control (6)</text>
</g>
<g id="clust5" class="cluster">
<title>clusterdate (1050) x control (6)</title>
<path fill="none" stroke="black" d="M960.38,-230.73C960.38,-230.73 1162.38,-230.73 1162.38,-230.73 1168.38,-230.73 1174.38,-236.73 1174.38,-242.73 1174.38,-242.73 1174.38,-568.36 1174.38,-568.36 1174.38,-574.36 1168.38,-580.36 1162.38,-580.36 1162.38,-580.36 960.38,-580.36 960.38,-580.36 954.38,-580.36 948.38,-574.36 948.38,-568.36 948.38,-568.36 948.38,-242.73 948.38,-242.73 948.38,-236.73 954.38,-230.73 960.38,-230.73"/>
<text text-anchor="middle" x="1099.25" y="-237.93" font-family="Times,serif" font-size="14.00">date (1050) x control (6)</text>
</g>
<g id="clust6" class="cluster">
<title>cluster1</title>
<path fill="none" stroke="black" d="M635.38,-340.63C635.38,-340.63 793.38,-340.63 793.38,-340.63 799.38,-340.63 805.38,-346.63 805.38,-352.63 805.38,-352.63 805.38,-450.45 805.38,-450.45 805.38,-456.45 799.38,-462.45 793.38,-462.45 793.38,-462.45 635.38,-462.45 635.38,-462.45 629.38,-462.45 623.38,-456.45 623.38,-450.45 623.38,-450.45 623.38,-352.63 623.38,-352.63 623.38,-346.63 629.38,-340.63 635.38,-340.63"/>
<text text-anchor="middle" x="794" y="-347.83" font-family="Times,serif" font-size="14.00">1</text>
</g>
<!-- channel_scale -->
<g id="node1" class="node">
<title>channel_scale</title>
<path fill="lightgrey" stroke="black" d="M448.25,-572.36C448.25,-572.36 380.5,-572.36 380.5,-572.36 374.5,-572.36 368.5,-566.36 368.5,-560.36 368.5,-560.36 368.5,-526.86 368.5,-526.86 368.5,-520.86 374.5,-514.86 380.5,-514.86 380.5,-514.86 448.25,-514.86 448.25,-514.86 454.25,-514.86 460.25,-520.86 460.25,-526.86 460.25,-526.86 460.25,-560.36 460.25,-560.36 460.25,-566.36 454.25,-572.36 448.25,-572.36"/>
<text text-anchor="middle" x="414.38" y="-555.06" font-family="Times,serif" font-size="14.00">channel_scale</text>
<text text-anchor="middle" x="414.38" y="-538.56" font-family="Times,serif" font-size="14.00">~</text>
<text text-anchor="middle" x="414.38" y="-522.06" font-family="Times,serif" font-size="14.00">Data</text>
</g>
<!-- channel_contribution -->
<g id="node10" class="node">
<title>channel_contribution</title>
<polygon fill="none" stroke="black" points="344.75,-442.54 214,-442.54 214,-385.04 344.75,-385.04 344.75,-442.54"/>
<text text-anchor="middle" x="279.38" y="-425.24" font-family="Times,serif" font-size="14.00">channel_contribution</text>
<text text-anchor="middle" x="279.38" y="-408.74" font-family="Times,serif" font-size="14.00">~</text>
<text text-anchor="middle" x="279.38" y="-392.24" font-family="Times,serif" font-size="14.00">Deterministic</text>
</g>
<!-- channel_scale&#45;&gt;channel_contribution -->
<g id="edge6" class="edge">
<title>channel_scale&#45;&gt;channel_contribution</title>
<path fill="none" stroke="black" d="M394.5,-514.4C383.98,-500.42 370.36,-483.74 356.38,-470.45 348.82,-463.28 340.31,-456.25 331.77,-449.75"/>
<polygon fill="black" stroke="black" points="333.87,-446.95 323.76,-443.8 329.7,-452.57 333.87,-446.95"/>
</g>
<!-- adstock_alpha -->
<g id="node2" class="node">
<title>adstock_alpha</title>
<ellipse fill="none" stroke="black" cx="544.38" cy="-543.61" rx="65.94" ry="40.66"/>
<text text-anchor="middle" x="544.38" y="-555.06" font-family="Times,serif" font-size="14.00">adstock_alpha</text>
<text text-anchor="middle" x="544.38" y="-538.56" font-family="Times,serif" font-size="14.00">~</text>
<text text-anchor="middle" x="544.38" y="-522.06" font-family="Times,serif" font-size="14.00">Beta</text>
</g>
<!-- adstock_alpha&#45;&gt;channel_contribution -->
<g id="edge4" class="edge">
<title>adstock_alpha&#45;&gt;channel_contribution</title>
<path fill="none" stroke="black" d="M514.37,-507.22C501.65,-494.08 485.94,-480.06 469.38,-470.45 434.61,-450.29 391.98,-436.94 355.91,-428.38"/>
<polygon fill="black" stroke="black" points="356.95,-425.02 346.42,-426.21 355.39,-431.85 356.95,-425.02"/>
</g>
<!-- saturation_alpha -->
<g id="node3" class="node">
<title>saturation_alpha</title>
<ellipse fill="none" stroke="black" cx="702.38" cy="-543.61" rx="74.42" ry="40.66"/>
<text text-anchor="middle" x="702.38" y="-555.06" font-family="Times,serif" font-size="14.00">saturation_alpha</text>
<text text-anchor="middle" x="702.38" y="-538.56" font-family="Times,serif" font-size="14.00">~</text>
<text text-anchor="middle" x="702.38" y="-522.06" font-family="Times,serif" font-size="14.00">Gamma</text>
</g>
<!-- saturation_alpha&#45;&gt;channel_contribution -->
<g id="edge5" class="edge">
<title>saturation_alpha&#45;&gt;channel_contribution</title>
<path fill="none" stroke="black" d="M670.7,-506.5C656.48,-492.75 638.58,-478.48 619.38,-470.45 597.78,-461.43 537.55,-465.67 514.38,-462.45 461.14,-455.05 401.83,-443 356.11,-432.86"/>
<polygon fill="black" stroke="black" points="357.09,-429.49 346.57,-430.73 355.57,-436.33 357.09,-429.49"/>
</g>
<!-- lift_measurements -->
<g id="node21" class="node">
<title>lift_measurements</title>
<ellipse fill="lightgrey" stroke="black" cx="714.38" cy="-413.79" rx="82.91" ry="40.66"/>
<text text-anchor="middle" x="714.38" y="-425.24" font-family="Times,serif" font-size="14.00">lift_measurements</text>
<text text-anchor="middle" x="714.38" y="-408.74" font-family="Times,serif" font-size="14.00">~</text>
<text text-anchor="middle" x="714.38" y="-392.24" font-family="Times,serif" font-size="14.00">Gamma</text>
</g>
<!-- saturation_alpha&#45;&gt;lift_measurements -->
<g id="edge24" class="edge">
<title>saturation_alpha&#45;&gt;lift_measurements</title>
<path fill="none" stroke="black" d="M706.14,-502.52C707.22,-490.98 708.42,-478.23 709.56,-466.11"/>
<polygon fill="black" stroke="black" points="713.03,-466.53 710.48,-456.25 706.06,-465.88 713.03,-466.53"/>
</g>
<!-- saturation_lam -->
<g id="node4" class="node">
<title>saturation_lam</title>
<ellipse fill="none" stroke="black" cx="863.38" cy="-543.61" rx="68.59" ry="40.66"/>
<text text-anchor="middle" x="863.38" y="-555.06" font-family="Times,serif" font-size="14.00">saturation_lam</text>
<text text-anchor="middle" x="863.38" y="-538.56" font-family="Times,serif" font-size="14.00">~</text>
<text text-anchor="middle" x="863.38" y="-522.06" font-family="Times,serif" font-size="14.00">Gamma</text>
</g>
<!-- saturation_lam&#45;&gt;channel_contribution -->
<g id="edge7" class="edge">
<title>saturation_lam&#45;&gt;channel_contribution</title>
<path fill="none" stroke="black" d="M834.53,-506.46C821.2,-492.53 804.16,-478.13 785.38,-470.45 757.49,-459.05 544.3,-465.9 514.38,-462.45 461.08,-456.31 401.89,-444.27 356.24,-433.83"/>
<polygon fill="black" stroke="black" points="357.25,-430.47 346.71,-431.63 355.67,-437.29 357.25,-430.47"/>
</g>
<!-- saturation_lam&#45;&gt;lift_measurements -->
<g id="edge25" class="edge">
<title>saturation_lam&#45;&gt;lift_measurements</title>
<path fill="none" stroke="black" d="M827.82,-508.57C814.69,-496.32 799.56,-482.54 785.38,-470.45 779.61,-465.54 773.49,-460.49 767.35,-455.54"/>
<polygon fill="black" stroke="black" points="769.56,-452.83 759.57,-449.33 765.2,-458.3 769.56,-452.83"/>
</g>
<!-- target_scale -->
<g id="node5" class="node">
<title>target_scale</title>
<path fill="lightgrey" stroke="black" d="M883.62,-442.54C883.62,-442.54 827.12,-442.54 827.12,-442.54 821.12,-442.54 815.12,-436.54 815.12,-430.54 815.12,-430.54 815.12,-397.04 815.12,-397.04 815.12,-391.04 821.12,-385.04 827.12,-385.04 827.12,-385.04 883.62,-385.04 883.62,-385.04 889.62,-385.04 895.62,-391.04 895.62,-397.04 895.62,-397.04 895.62,-430.54 895.62,-430.54 895.62,-436.54 889.62,-442.54 883.62,-442.54"/>
<text text-anchor="middle" x="855.38" y="-425.24" font-family="Times,serif" font-size="14.00">target_scale</text>
<text text-anchor="middle" x="855.38" y="-408.74" font-family="Times,serif" font-size="14.00">~</text>
<text text-anchor="middle" x="855.38" y="-392.24" font-family="Times,serif" font-size="14.00">Data</text>
</g>
<!-- channel_contribution_original_scale -->
<g id="node11" class="node">
<title>channel_contribution_original_scale</title>
<polygon fill="none" stroke="black" points="344,-320.73 130.75,-320.73 130.75,-263.23 344,-263.23 344,-320.73"/>
<text text-anchor="middle" x="237.38" y="-303.43" font-family="Times,serif" font-size="14.00">channel_contribution_original_scale</text>
<text text-anchor="middle" x="237.38" y="-286.93" font-family="Times,serif" font-size="14.00">~</text>
<text text-anchor="middle" x="237.38" y="-270.43" font-family="Times,serif" font-size="14.00">Deterministic</text>
</g>
<!-- target_scale&#45;&gt;channel_contribution_original_scale -->
<g id="edge16" class="edge">
<title>target_scale&#45;&gt;channel_contribution_original_scale</title>
<path fill="none" stroke="black" d="M845.33,-384.78C838,-368.82 826.36,-350.14 809.38,-340.63 787.41,-328.34 381.18,-336.88 356.38,-332.63 344.91,-330.67 333.04,-327.8 321.45,-324.48"/>
<polygon fill="black" stroke="black" points="322.47,-321.14 311.88,-321.62 320.46,-327.84 322.47,-321.14"/>
</g>
<!-- total_contribution_original_scale -->
<g id="node13" class="node">
<title>total_contribution_original_scale</title>
<polygon fill="none" stroke="black" points="564,-320.73 368.75,-320.73 368.75,-263.23 564,-263.23 564,-320.73"/>
<text text-anchor="middle" x="466.38" y="-303.43" font-family="Times,serif" font-size="14.00">total_contribution_original_scale</text>
<text text-anchor="middle" x="466.38" y="-286.93" font-family="Times,serif" font-size="14.00">~</text>
<text text-anchor="middle" x="466.38" y="-270.43" font-family="Times,serif" font-size="14.00">Deterministic</text>
</g>
<!-- target_scale&#45;&gt;total_contribution_original_scale -->
<g id="edge18" class="edge">
<title>target_scale&#45;&gt;total_contribution_original_scale</title>
<path fill="none" stroke="black" d="M845.27,-384.88C837.93,-368.95 826.28,-350.28 809.38,-340.63 786.59,-327.63 599.12,-337.7 573.38,-332.63 563.45,-330.68 553.24,-327.93 543.23,-324.78"/>
<polygon fill="black" stroke="black" points="544.52,-321.52 533.93,-321.69 542.32,-328.16 544.52,-321.52"/>
</g>
<!-- y_original_scale -->
<g id="node16" class="node">
<title>y_original_scale</title>
<polygon fill="none" stroke="black" points="672,-203.41 566.75,-203.41 566.75,-145.91 672,-145.91 672,-203.41"/>
<text text-anchor="middle" x="619.38" y="-186.11" font-family="Times,serif" font-size="14.00">y_original_scale</text>
<text text-anchor="middle" x="619.38" y="-169.61" font-family="Times,serif" font-size="14.00">~</text>
<text text-anchor="middle" x="619.38" y="-153.11" font-family="Times,serif" font-size="14.00">Deterministic</text>
</g>
<!-- target_scale&#45;&gt;y_original_scale -->
<g id="edge22" class="edge">
<title>target_scale&#45;&gt;y_original_scale</title>
<path fill="none" stroke="black" d="M863.87,-384.86C873.9,-345.73 885.06,-274.47 849.38,-230.73 828.65,-205.32 744.27,-190.18 683.72,-182.39"/>
<polygon fill="black" stroke="black" points="684.19,-178.92 673.84,-181.16 683.33,-185.87 684.19,-178.92"/>
</g>
<!-- control_contribution_original_scale -->
<g id="node18" class="node">
<title>control_contribution_original_scale</title>
<polygon fill="none" stroke="black" points="1166.12,-320.73 956.62,-320.73 956.62,-263.23 1166.12,-263.23 1166.12,-320.73"/>
<text text-anchor="middle" x="1061.38" y="-303.43" font-family="Times,serif" font-size="14.00">control_contribution_original_scale</text>
<text text-anchor="middle" x="1061.38" y="-286.93" font-family="Times,serif" font-size="14.00">~</text>
<text text-anchor="middle" x="1061.38" y="-270.43" font-family="Times,serif" font-size="14.00">Deterministic</text>
</g>
<!-- target_scale&#45;&gt;control_contribution_original_scale -->
<g id="edge21" class="edge">
<title>target_scale&#45;&gt;control_contribution_original_scale</title>
<path fill="none" stroke="black" d="M885.43,-384.69C901.95,-370.23 923.31,-353.09 944.38,-340.63 953.34,-335.33 963.01,-330.36 972.81,-325.77"/>
<polygon fill="black" stroke="black" points="974,-329.07 981.67,-321.76 971.11,-322.69 974,-329.07"/>
</g>
<!-- total_contribution -->
<g id="node6" class="node">
<title>total_contribution</title>
<polygon fill="none" stroke="black" points="112.75,-320.73 0,-320.73 0,-263.23 112.75,-263.23 112.75,-320.73"/>
<text text-anchor="middle" x="56.38" y="-303.43" font-family="Times,serif" font-size="14.00">total_contribution</text>
<text text-anchor="middle" x="56.38" y="-286.93" font-family="Times,serif" font-size="14.00">~</text>
<text text-anchor="middle" x="56.38" y="-270.43" font-family="Times,serif" font-size="14.00">Deterministic</text>
</g>
<!-- intercept -->
<g id="node7" class="node">
<title>intercept</title>
<ellipse fill="none" stroke="black" cx="568.38" cy="-413.79" rx="44.72" ry="40.66"/>
<text text-anchor="middle" x="568.38" y="-425.24" font-family="Times,serif" font-size="14.00">intercept</text>
<text text-anchor="middle" x="568.38" y="-408.74" font-family="Times,serif" font-size="14.00">~</text>
<text text-anchor="middle" x="568.38" y="-392.24" font-family="Times,serif" font-size="14.00">Normal</text>
</g>
<!-- mu -->
<g id="node15" class="node">
<title>mu</title>
<polygon fill="none" stroke="black" points="672.5,-320.73 582.25,-320.73 582.25,-263.23 672.5,-263.23 672.5,-320.73"/>
<text text-anchor="middle" x="627.38" y="-303.43" font-family="Times,serif" font-size="14.00">mu</text>
<text text-anchor="middle" x="627.38" y="-286.93" font-family="Times,serif" font-size="14.00">~</text>
<text text-anchor="middle" x="627.38" y="-270.43" font-family="Times,serif" font-size="14.00">Deterministic</text>
</g>
<!-- intercept&#45;&gt;mu -->
<g id="edge13" class="edge">
<title>intercept&#45;&gt;mu</title>
<path fill="none" stroke="black" d="M586.4,-376.19C593.43,-361.91 601.5,-345.52 608.61,-331.09"/>
<polygon fill="black" stroke="black" points="611.64,-332.86 612.91,-322.35 605.36,-329.77 611.64,-332.86"/>
</g>
<!-- y_sigma -->
<g id="node8" class="node">
<title>y_sigma</title>
<ellipse fill="none" stroke="black" cx="784.38" cy="-291.98" rx="55.86" ry="40.66"/>
<text text-anchor="middle" x="784.38" y="-303.43" font-family="Times,serif" font-size="14.00">y_sigma</text>
<text text-anchor="middle" x="784.38" y="-286.93" font-family="Times,serif" font-size="14.00">~</text>
<text text-anchor="middle" x="784.38" y="-270.43" font-family="Times,serif" font-size="14.00">Halfnormal</text>
</g>
<!-- y -->
<g id="node12" class="node">
<title>y</title>
<ellipse fill="lightgrey" stroke="black" cx="466.38" cy="-174.66" rx="82.38" ry="40.66"/>
<text text-anchor="middle" x="466.38" y="-186.11" font-family="Times,serif" font-size="14.00">y</text>
<text text-anchor="middle" x="466.38" y="-169.61" font-family="Times,serif" font-size="14.00">~</text>
<text text-anchor="middle" x="466.38" y="-153.11" font-family="Times,serif" font-size="14.00">Truncated_normal</text>
</g>
<!-- y_sigma&#45;&gt;y -->
<g id="edge14" class="edge">
<title>y_sigma&#45;&gt;y</title>
<path fill="none" stroke="black" d="M753.81,-257.52C742.47,-247.18 728.82,-236.91 714.38,-230.73 649.91,-203.15 625.23,-232.96 557.38,-215.32 549.89,-213.37 542.24,-210.89 534.7,-208.12"/>
<polygon fill="black" stroke="black" points="536.16,-204.93 525.57,-204.58 533.63,-211.46 536.16,-204.93"/>
</g>
<!-- channel_data -->
<g id="node9" class="node">
<title>channel_data</title>
<path fill="lightgrey" stroke="black" d="M311,-572.36C311,-572.36 247.75,-572.36 247.75,-572.36 241.75,-572.36 235.75,-566.36 235.75,-560.36 235.75,-560.36 235.75,-526.86 235.75,-526.86 235.75,-520.86 241.75,-514.86 247.75,-514.86 247.75,-514.86 311,-514.86 311,-514.86 317,-514.86 323,-520.86 323,-526.86 323,-526.86 323,-560.36 323,-560.36 323,-566.36 317,-572.36 311,-572.36"/>
<text text-anchor="middle" x="279.38" y="-555.06" font-family="Times,serif" font-size="14.00">channel_data</text>
<text text-anchor="middle" x="279.38" y="-538.56" font-family="Times,serif" font-size="14.00">~</text>
<text text-anchor="middle" x="279.38" y="-522.06" font-family="Times,serif" font-size="14.00">Data</text>
</g>
<!-- channel_data&#45;&gt;channel_contribution -->
<g id="edge3" class="edge">
<title>channel_data&#45;&gt;channel_contribution</title>
<path fill="none" stroke="black" d="M279.38,-514.56C279.38,-496.83 279.38,-473.65 279.38,-454.1"/>
<polygon fill="black" stroke="black" points="282.88,-454.29 279.38,-444.29 275.88,-454.29 282.88,-454.29"/>
</g>
<!-- channel_contribution&#45;&gt;total_contribution -->
<g id="edge8" class="edge">
<title>channel_contribution&#45;&gt;total_contribution</title>
<path fill="none" stroke="black" d="M218.94,-384.6C188.39,-369.87 150.97,-351.11 118.38,-332.63 115.21,-330.84 111.98,-328.95 108.73,-327.02"/>
<polygon fill="black" stroke="black" points="110.69,-324.11 100.33,-321.89 107.04,-330.08 110.69,-324.11"/>
</g>
<!-- channel_contribution&#45;&gt;channel_contribution_original_scale -->
<g id="edge17" class="edge">
<title>channel_contribution&#45;&gt;channel_contribution_original_scale</title>
<path fill="none" stroke="black" d="M269.53,-384.7C263.95,-368.78 256.88,-348.63 250.8,-331.27"/>
<polygon fill="black" stroke="black" points="254.27,-330.6 247.66,-322.32 247.67,-332.91 254.27,-330.6"/>
</g>
<!-- channel_contribution&#45;&gt;total_contribution_original_scale -->
<g id="edge19" class="edge">
<title>channel_contribution&#45;&gt;total_contribution_original_scale</title>
<path fill="none" stroke="black" d="M323.22,-384.7C350.08,-367.49 384.66,-345.34 413.09,-327.12"/>
<polygon fill="black" stroke="black" points="414.68,-330.26 421.21,-321.92 410.9,-324.36 414.68,-330.26"/>
</g>
<!-- channel_contribution&#45;&gt;mu -->
<g id="edge12" class="edge">
<title>channel_contribution&#45;&gt;mu</title>
<path fill="none" stroke="black" d="M345.21,-389.42C391.9,-373.62 456.33,-353.39 514.38,-340.63 540.22,-334.95 548.84,-342.55 573.38,-332.63 577.21,-331.08 581.03,-329.2 584.75,-327.1"/>
<polygon fill="black" stroke="black" points="586.42,-330.18 593.06,-321.93 582.72,-324.24 586.42,-330.18"/>
</g>
<!-- y&#45;&gt;target_scale -->
<g id="edge1" class="edge">
<title>y&#45;&gt;target_scale</title>
<path fill="none" stroke="black" d="M524.22,-203.8C535.04,-208.22 546.4,-212.31 557.38,-215.32 584.16,-222.65 659.59,-213.51 681.38,-230.73 719.3,-260.7 680.93,-303.33 719.38,-332.63 735.34,-344.81 792.22,-330.21 809.38,-340.63 822.4,-348.55 832.37,-361.7 839.65,-374.63"/>
<polygon fill="black" stroke="black" points="836.52,-376.22 844.22,-383.5 842.75,-373.01 836.52,-376.22"/>
</g>
<!-- target_data -->
<g id="node14" class="node">
<title>target_data</title>
<path fill="lightgrey" stroke="black" d="M492.38,-98C492.38,-98 440.38,-98 440.38,-98 434.38,-98 428.38,-92 428.38,-86 428.38,-86 428.38,-52.5 428.38,-52.5 428.38,-46.5 434.38,-40.5 440.38,-40.5 440.38,-40.5 492.38,-40.5 492.38,-40.5 498.38,-40.5 504.38,-46.5 504.38,-52.5 504.38,-52.5 504.38,-86 504.38,-86 504.38,-92 498.38,-98 492.38,-98"/>
<text text-anchor="middle" x="466.38" y="-80.7" font-family="Times,serif" font-size="14.00">target_data</text>
<text text-anchor="middle" x="466.38" y="-64.2" font-family="Times,serif" font-size="14.00">~</text>
<text text-anchor="middle" x="466.38" y="-47.7" font-family="Times,serif" font-size="14.00">Data</text>
</g>
<!-- y&#45;&gt;target_data -->
<g id="edge2" class="edge">
<title>y&#45;&gt;target_data</title>
<path fill="none" stroke="black" d="M466.38,-133.68C466.38,-125.83 466.38,-117.6 466.38,-109.76"/>
<polygon fill="black" stroke="black" points="469.88,-109.79 466.38,-99.79 462.88,-109.79 469.88,-109.79"/>
</g>
<!-- mu&#45;&gt;y -->
<g id="edge15" class="edge">
<title>mu&#45;&gt;y</title>
<path fill="none" stroke="black" d="M605.88,-262.84C596.65,-251.95 585.27,-239.91 573.38,-230.73 562.42,-222.26 549.96,-214.49 537.51,-207.62"/>
<polygon fill="black" stroke="black" points="539.37,-204.64 528.9,-203.02 536.07,-210.81 539.37,-204.64"/>
</g>
<!-- mu&#45;&gt;y_original_scale -->
<g id="edge23" class="edge">
<title>mu&#45;&gt;y_original_scale</title>
<path fill="none" stroke="black" d="M625.42,-262.77C624.41,-248.28 623.17,-230.4 622.08,-214.62"/>
<polygon fill="black" stroke="black" points="625.6,-214.82 621.42,-205.09 618.62,-215.31 625.6,-214.82"/>
</g>
<!-- gamma_control -->
<g id="node17" class="node">
<title>gamma_control</title>
<ellipse fill="none" stroke="black" cx="1262.38" cy="-543.61" rx="72.3" ry="40.66"/>
<text text-anchor="middle" x="1262.38" y="-555.06" font-family="Times,serif" font-size="14.00">gamma_control</text>
<text text-anchor="middle" x="1262.38" y="-538.56" font-family="Times,serif" font-size="14.00">~</text>
<text text-anchor="middle" x="1262.38" y="-522.06" font-family="Times,serif" font-size="14.00">Normal</text>
</g>
<!-- control_contribution -->
<g id="node19" class="node">
<title>control_contribution</title>
<polygon fill="none" stroke="black" points="1124.88,-442.54 997.88,-442.54 997.88,-385.04 1124.88,-385.04 1124.88,-442.54"/>
<text text-anchor="middle" x="1061.38" y="-425.24" font-family="Times,serif" font-size="14.00">control_contribution</text>
<text text-anchor="middle" x="1061.38" y="-408.74" font-family="Times,serif" font-size="14.00">~</text>
<text text-anchor="middle" x="1061.38" y="-392.24" font-family="Times,serif" font-size="14.00">Deterministic</text>
</g>
<!-- gamma_control&#45;&gt;control_contribution -->
<g id="edge9" class="edge">
<title>gamma_control&#45;&gt;control_contribution</title>
<path fill="none" stroke="black" d="M1226.43,-508.04C1212.14,-495.31 1195.13,-481.36 1178.38,-470.45 1164.97,-461.73 1149.99,-453.56 1135.34,-446.31"/>
<polygon fill="black" stroke="black" points="1137.16,-443.3 1126.63,-442.1 1134.11,-449.6 1137.16,-443.3"/>
</g>
<!-- control_contribution&#45;&gt;mu -->
<g id="edge11" class="edge">
<title>control_contribution&#45;&gt;mu</title>
<path fill="none" stroke="black" d="M1012.96,-384.58C982.79,-368.54 942.57,-349.86 904.38,-340.63 824.38,-321.31 799.6,-351 719.38,-332.63 707.3,-329.87 694.83,-325.58 683.11,-320.82"/>
<polygon fill="black" stroke="black" points="684.56,-317.63 673.99,-316.94 681.82,-324.07 684.56,-317.63"/>
</g>
<!-- control_contribution&#45;&gt;control_contribution_original_scale -->
<g id="edge20" class="edge">
<title>control_contribution&#45;&gt;control_contribution_original_scale</title>
<path fill="none" stroke="black" d="M1061.38,-384.7C1061.38,-369.08 1061.38,-349.39 1061.38,-332.26"/>
<polygon fill="black" stroke="black" points="1064.88,-332.41 1061.38,-322.41 1057.88,-332.41 1064.88,-332.41"/>
</g>
<!-- control_data -->
<g id="node20" class="node">
<title>control_data</title>
<path fill="lightgrey" stroke="black" d="M1091.12,-572.36C1091.12,-572.36 1031.62,-572.36 1031.62,-572.36 1025.62,-572.36 1019.62,-566.36 1019.62,-560.36 1019.62,-560.36 1019.62,-526.86 1019.62,-526.86 1019.62,-520.86 1025.62,-514.86 1031.62,-514.86 1031.62,-514.86 1091.12,-514.86 1091.12,-514.86 1097.12,-514.86 1103.12,-520.86 1103.12,-526.86 1103.12,-526.86 1103.12,-560.36 1103.12,-560.36 1103.12,-566.36 1097.12,-572.36 1091.12,-572.36"/>
<text text-anchor="middle" x="1061.38" y="-555.06" font-family="Times,serif" font-size="14.00">control_data</text>
<text text-anchor="middle" x="1061.38" y="-538.56" font-family="Times,serif" font-size="14.00">~</text>
<text text-anchor="middle" x="1061.38" y="-522.06" font-family="Times,serif" font-size="14.00">Data</text>
</g>
<!-- control_data&#45;&gt;control_contribution -->
<g id="edge10" class="edge">
<title>control_data&#45;&gt;control_contribution</title>
<path fill="none" stroke="black" d="M1061.38,-514.56C1061.38,-496.83 1061.38,-473.65 1061.38,-454.1"/>
<polygon fill="black" stroke="black" points="1064.88,-454.29 1061.38,-444.29 1057.88,-454.29 1064.88,-454.29"/>
</g>
</g>
</svg>
