<?xml version="1.0" encoding="UTF-8" standalone="no"?>
<!DOCTYPE svg PUBLIC "-//W3C//DTD SVG 1.1//EN"
 "http://www.w3.org/Graphics/SVG/1.1/DTD/svg11.dtd">
<!-- Generated by graphviz version 12.2.1 (0)
 -->
<!-- Pages: 1 -->
<svg width="1358pt" height="596pt"
 viewBox="0.00 0.00 1358.38 595.77" xmlns="http://www.w3.org/2000/svg" xmlns:xlink="http://www.w3.org/1999/xlink">
<g id="graph0" class="graph" transform="scale(1 1) rotate(0) translate(4 591.77)">
<polygon fill="white" stroke="none" points="-4,4 -4,-591.77 1354.38,-591.77 1354.38,4 -4,4"/>
<g id="clust1" class="cluster">
<title>clusterchannel (4)</title>
<path fill="none" stroke="black" d="M372.38,-457.95C372.38,-457.95 928.38,-457.95 928.38,-457.95 934.38,-457.95 940.38,-463.95 940.38,-469.95 940.38,-469.95 940.38,-567.77 940.38,-567.77 940.38,-573.77 934.38,-579.77 928.38,-579.77 928.38,-579.77 372.38,-579.77 372.38,-579.77 366.38,-579.77 360.38,-573.77 360.38,-567.77 360.38,-567.77 360.38,-469.95 360.38,-469.95 360.38,-463.95 366.38,-457.95 372.38,-457.95"/>
<text text-anchor="middle" x="901.62" y="-465.15" font-family="Times,serif" font-size="14.00">channel (4)</text>
</g>
<g id="clust2" class="cluster">
<title>clusterdate (879) x channel (4)</title>
<path fill="none" stroke="black" d="M134.38,-230.73C134.38,-230.73 340.38,-230.73 340.38,-230.73 346.38,-230.73 352.38,-236.73 352.38,-242.73 352.38,-242.73 352.38,-555.86 352.38,-555.86 352.38,-561.86 346.38,-567.86 340.38,-567.86 340.38,-567.86 134.38,-567.86 134.38,-567.86 128.38,-567.86 122.38,-561.86 122.38,-555.86 122.38,-555.86 122.38,-242.73 122.38,-242.73 122.38,-236.73 128.38,-230.73 134.38,-230.73"/>
<text text-anchor="middle" x="278.75" y="-237.93" font-family="Times,serif" font-size="14.00">date (879) x channel (4)</text>
</g>
<g id="clust3" class="cluster">
<title>clusterdate (879)</title>
<path fill="none" stroke="black" d="M372.38,-8C372.38,-8 668.38,-8 668.38,-8 674.38,-8 680.38,-14 680.38,-20 680.38,-20 680.38,-316.73 680.38,-316.73 680.38,-322.73 674.38,-328.73 668.38,-328.73 668.38,-328.73 372.38,-328.73 372.38,-328.73 366.38,-328.73 360.38,-322.73 360.38,-316.73 360.38,-316.73 360.38,-20 360.38,-20 360.38,-14 366.38,-8 372.38,-8"/>
<text text-anchor="middle" x="644.62" y="-15.2" font-family="Times,serif" font-size="14.00">date (879)</text>
</g>
<g id="clust4" class="cluster">
<title>clustercontrol (6)</title>
<path fill="none" stroke="black" d="M1194.38,-457.95C1194.38,-457.95 1330.38,-457.95 1330.38,-457.95 1336.38,-457.95 1342.38,-463.95 1342.38,-469.95 1342.38,-469.95 1342.38,-567.77 1342.38,-567.77 1342.38,-573.77 1336.38,-579.77 1330.38,-579.77 1330.38,-579.77 1194.38,-579.77 1194.38,-579.77 1188.38,-579.77 1182.38,-573.77 1182.38,-567.77 1182.38,-567.77 1182.38,-469.95 1182.38,-469.95 1182.38,-463.95 1188.38,-457.95 1194.38,-457.95"/>
<text text-anchor="middle" x="1305.5" y="-465.15" font-family="Times,serif" font-size="14.00">control (6)</text>
</g>
<g id="clust5" class="cluster">
<title>clusterdate (879) x control (6)</title>
<path fill="none" stroke="black" d="M960.38,-230.73C960.38,-230.73 1162.38,-230.73 1162.38,-230.73 1168.38,-230.73 1174.38,-236.73 1174.38,-242.73 1174.38,-242.73 1174.38,-555.86 1174.38,-555.86 1174.38,-561.86 1168.38,-567.86 1162.38,-567.86 1162.38,-567.86 960.38,-567.86 960.38,-567.86 954.38,-567.86 948.38,-561.86 948.38,-555.86 948.38,-555.86 948.38,-242.73 948.38,-242.73 948.38,-236.73 954.38,-230.73 960.38,-230.73"/>
<text text-anchor="middle" x="1102.62" y="-237.93" font-family="Times,serif" font-size="14.00">date (879) x control (6)</text>
</g>
<!-- saturation_alpha -->
<g id="node1" class="node">
<title>saturation_alpha</title>
<ellipse fill="none" stroke="black" cx="748.38" cy="-531.11" rx="74.42" ry="40.66"/>
<text text-anchor="middle" x="748.38" y="-542.56" font-family="Times,serif" font-size="14.00">saturation_alpha</text>
<text text-anchor="middle" x="748.38" y="-526.06" font-family="Times,serif" font-size="14.00">~</text>
<text text-anchor="middle" x="748.38" y="-509.56" font-family="Times,serif" font-size="14.00">Gamma</text>
</g>
<!-- channel_contribution -->
<g id="node11" class="node">
<title>channel_contribution</title>
<polygon fill="none" stroke="black" points="344.75,-438.04 214,-438.04 214,-380.54 344.75,-380.54 344.75,-438.04"/>
<text text-anchor="middle" x="279.38" y="-420.74" font-family="Times,serif" font-size="14.00">channel_contribution</text>
<text text-anchor="middle" x="279.38" y="-404.24" font-family="Times,serif" font-size="14.00">~</text>
<text text-anchor="middle" x="279.38" y="-387.74" font-family="Times,serif" font-size="14.00">Deterministic</text>
</g>
<!-- saturation_alpha&#45;&gt;channel_contribution -->
<g id="edge3" class="edge">
<title>saturation_alpha&#45;&gt;channel_contribution</title>
<path fill="none" stroke="black" d="M716.7,-493.98C702.48,-480.23 684.58,-465.96 665.38,-457.95 643.37,-448.77 582.08,-452.52 558.38,-449.95 489.89,-442.53 412.34,-431.28 356.42,-422.65"/>
<polygon fill="black" stroke="black" points="357.09,-419.21 346.67,-421.14 356.02,-426.13 357.09,-419.21"/>
</g>
<!-- channel_scale -->
<g id="node2" class="node">
<title>channel_scale</title>
<path fill="lightgrey" stroke="black" d="M920.25,-559.86C920.25,-559.86 852.5,-559.86 852.5,-559.86 846.5,-559.86 840.5,-553.86 840.5,-547.86 840.5,-547.86 840.5,-514.36 840.5,-514.36 840.5,-508.36 846.5,-502.36 852.5,-502.36 852.5,-502.36 920.25,-502.36 920.25,-502.36 926.25,-502.36 932.25,-508.36 932.25,-514.36 932.25,-514.36 932.25,-547.86 932.25,-547.86 932.25,-553.86 926.25,-559.86 920.25,-559.86"/>
<text text-anchor="middle" x="886.38" y="-542.56" font-family="Times,serif" font-size="14.00">channel_scale</text>
<text text-anchor="middle" x="886.38" y="-526.06" font-family="Times,serif" font-size="14.00">~</text>
<text text-anchor="middle" x="886.38" y="-509.56" font-family="Times,serif" font-size="14.00">Data</text>
</g>
<!-- channel_scale&#45;&gt;channel_contribution -->
<g id="edge4" class="edge">
<title>channel_scale&#45;&gt;channel_contribution</title>
<path fill="none" stroke="black" d="M872.97,-502.04C863.7,-486.05 849.73,-467.38 831.38,-457.95 817.88,-451.02 573.49,-451.24 558.38,-449.95 489.74,-444.09 412.21,-432.68 356.32,-423.59"/>
<polygon fill="black" stroke="black" points="357.02,-420.16 346.59,-422 355.89,-427.07 357.02,-420.16"/>
</g>
<!-- adstock_alpha -->
<g id="node3" class="node">
<title>adstock_alpha</title>
<ellipse fill="none" stroke="black" cx="434.38" cy="-531.11" rx="65.94" ry="40.66"/>
<text text-anchor="middle" x="434.38" y="-542.56" font-family="Times,serif" font-size="14.00">adstock_alpha</text>
<text text-anchor="middle" x="434.38" y="-526.06" font-family="Times,serif" font-size="14.00">~</text>
<text text-anchor="middle" x="434.38" y="-509.56" font-family="Times,serif" font-size="14.00">Beta</text>
</g>
<!-- adstock_alpha&#45;&gt;channel_contribution -->
<g id="edge7" class="edge">
<title>adstock_alpha&#45;&gt;channel_contribution</title>
<path fill="none" stroke="black" d="M400.3,-495.92C387.08,-483.38 371.5,-469.46 356.38,-457.95 350.41,-453.41 343.99,-448.91 337.5,-444.59"/>
<polygon fill="black" stroke="black" points="339.54,-441.74 329.24,-439.22 335.72,-447.61 339.54,-441.74"/>
</g>
<!-- saturation_lam -->
<g id="node4" class="node">
<title>saturation_lam</title>
<ellipse fill="none" stroke="black" cx="587.38" cy="-531.11" rx="68.59" ry="40.66"/>
<text text-anchor="middle" x="587.38" y="-542.56" font-family="Times,serif" font-size="14.00">saturation_lam</text>
<text text-anchor="middle" x="587.38" y="-526.06" font-family="Times,serif" font-size="14.00">~</text>
<text text-anchor="middle" x="587.38" y="-509.56" font-family="Times,serif" font-size="14.00">Gamma</text>
</g>
<!-- saturation_lam&#45;&gt;channel_contribution -->
<g id="edge5" class="edge">
<title>saturation_lam&#45;&gt;channel_contribution</title>
<path fill="none" stroke="black" d="M556.7,-494.41C543.43,-481.07 526.92,-466.99 509.38,-457.95 461.9,-433.51 402.81,-421.6 356.41,-415.8"/>
<polygon fill="black" stroke="black" points="357.05,-412.35 346.71,-414.66 356.23,-419.31 357.05,-412.35"/>
</g>
<!-- y_sigma -->
<g id="node5" class="node">
<title>y_sigma</title>
<ellipse fill="none" stroke="black" cx="784.38" cy="-291.98" rx="55.86" ry="40.66"/>
<text text-anchor="middle" x="784.38" y="-303.43" font-family="Times,serif" font-size="14.00">y_sigma</text>
<text text-anchor="middle" x="784.38" y="-286.93" font-family="Times,serif" font-size="14.00">~</text>
<text text-anchor="middle" x="784.38" y="-270.43" font-family="Times,serif" font-size="14.00">Halfnormal</text>
</g>
<!-- y -->
<g id="node14" class="node">
<title>y</title>
<ellipse fill="lightgrey" stroke="black" cx="466.38" cy="-174.66" rx="82.38" ry="40.66"/>
<text text-anchor="middle" x="466.38" y="-186.11" font-family="Times,serif" font-size="14.00">y</text>
<text text-anchor="middle" x="466.38" y="-169.61" font-family="Times,serif" font-size="14.00">~</text>
<text text-anchor="middle" x="466.38" y="-153.11" font-family="Times,serif" font-size="14.00">Truncated_normal</text>
</g>
<!-- y_sigma&#45;&gt;y -->
<g id="edge15" class="edge">
<title>y_sigma&#45;&gt;y</title>
<path fill="none" stroke="black" d="M753.81,-257.52C742.47,-247.18 728.82,-236.91 714.38,-230.73 649.91,-203.15 625.23,-232.96 557.38,-215.32 549.89,-213.37 542.24,-210.89 534.7,-208.12"/>
<polygon fill="black" stroke="black" points="536.16,-204.93 525.57,-204.58 533.63,-211.46 536.16,-204.93"/>
</g>
<!-- intercept -->
<g id="node6" class="node">
<title>intercept</title>
<ellipse fill="none" stroke="black" cx="612.38" cy="-409.29" rx="44.72" ry="40.66"/>
<text text-anchor="middle" x="612.38" y="-420.74" font-family="Times,serif" font-size="14.00">intercept</text>
<text text-anchor="middle" x="612.38" y="-404.24" font-family="Times,serif" font-size="14.00">~</text>
<text text-anchor="middle" x="612.38" y="-387.74" font-family="Times,serif" font-size="14.00">Normal</text>
</g>
<!-- mu -->
<g id="node13" class="node">
<title>mu</title>
<polygon fill="none" stroke="black" points="672.5,-320.73 582.25,-320.73 582.25,-263.23 672.5,-263.23 672.5,-320.73"/>
<text text-anchor="middle" x="627.38" y="-303.43" font-family="Times,serif" font-size="14.00">mu</text>
<text text-anchor="middle" x="627.38" y="-286.93" font-family="Times,serif" font-size="14.00">~</text>
<text text-anchor="middle" x="627.38" y="-270.43" font-family="Times,serif" font-size="14.00">Deterministic</text>
</g>
<!-- intercept&#45;&gt;mu -->
<g id="edge12" class="edge">
<title>intercept&#45;&gt;mu</title>
<path fill="none" stroke="black" d="M617.54,-368.61C619.06,-356.88 620.73,-344.05 622.25,-332.34"/>
<polygon fill="black" stroke="black" points="625.7,-332.96 623.52,-322.59 618.76,-332.06 625.7,-332.96"/>
</g>
<!-- target_scale -->
<g id="node7" class="node">
<title>target_scale</title>
<path fill="lightgrey" stroke="black" d="M743.62,-438.04C743.62,-438.04 687.12,-438.04 687.12,-438.04 681.12,-438.04 675.12,-432.04 675.12,-426.04 675.12,-426.04 675.12,-392.54 675.12,-392.54 675.12,-386.54 681.12,-380.54 687.12,-380.54 687.12,-380.54 743.62,-380.54 743.62,-380.54 749.62,-380.54 755.62,-386.54 755.62,-392.54 755.62,-392.54 755.62,-426.04 755.62,-426.04 755.62,-432.04 749.62,-438.04 743.62,-438.04"/>
<text text-anchor="middle" x="715.38" y="-420.74" font-family="Times,serif" font-size="14.00">target_scale</text>
<text text-anchor="middle" x="715.38" y="-404.24" font-family="Times,serif" font-size="14.00">~</text>
<text text-anchor="middle" x="715.38" y="-387.74" font-family="Times,serif" font-size="14.00">Data</text>
</g>
<!-- channel_contribution_original_scale -->
<g id="node9" class="node">
<title>channel_contribution_original_scale</title>
<polygon fill="none" stroke="black" points="344,-320.73 130.75,-320.73 130.75,-263.23 344,-263.23 344,-320.73"/>
<text text-anchor="middle" x="237.38" y="-303.43" font-family="Times,serif" font-size="14.00">channel_contribution_original_scale</text>
<text text-anchor="middle" x="237.38" y="-286.93" font-family="Times,serif" font-size="14.00">~</text>
<text text-anchor="middle" x="237.38" y="-270.43" font-family="Times,serif" font-size="14.00">Deterministic</text>
</g>
<!-- target_scale&#45;&gt;channel_contribution_original_scale -->
<g id="edge17" class="edge">
<title>target_scale&#45;&gt;channel_contribution_original_scale</title>
<path fill="none" stroke="black" d="M686.01,-380.21C679.91,-375.67 673.24,-371.52 666.38,-368.63 538.51,-314.87 491.78,-362.72 356.38,-332.63 346.12,-330.36 335.5,-327.53 325.03,-324.44"/>
<polygon fill="black" stroke="black" points="326.21,-321.14 315.63,-321.58 324.17,-327.84 326.21,-321.14"/>
</g>
<!-- total_contribution_original_scale -->
<g id="node12" class="node">
<title>total_contribution_original_scale</title>
<polygon fill="none" stroke="black" points="564,-320.73 368.75,-320.73 368.75,-263.23 564,-263.23 564,-320.73"/>
<text text-anchor="middle" x="466.38" y="-303.43" font-family="Times,serif" font-size="14.00">total_contribution_original_scale</text>
<text text-anchor="middle" x="466.38" y="-286.93" font-family="Times,serif" font-size="14.00">~</text>
<text text-anchor="middle" x="466.38" y="-270.43" font-family="Times,serif" font-size="14.00">Deterministic</text>
</g>
<!-- target_scale&#45;&gt;total_contribution_original_scale -->
<g id="edge19" class="edge">
<title>target_scale&#45;&gt;total_contribution_original_scale</title>
<path fill="none" stroke="black" d="M683.47,-380.1C677.98,-375.95 672.17,-371.96 666.38,-368.63 660.9,-365.49 604.7,-344.3 553.27,-325.14"/>
<polygon fill="black" stroke="black" points="554.73,-321.95 544.14,-321.74 552.29,-328.51 554.73,-321.95"/>
</g>
<!-- y_original_scale -->
<g id="node15" class="node">
<title>y_original_scale</title>
<polygon fill="none" stroke="black" points="672,-203.41 566.75,-203.41 566.75,-145.91 672,-145.91 672,-203.41"/>
<text text-anchor="middle" x="619.38" y="-186.11" font-family="Times,serif" font-size="14.00">y_original_scale</text>
<text text-anchor="middle" x="619.38" y="-169.61" font-family="Times,serif" font-size="14.00">~</text>
<text text-anchor="middle" x="619.38" y="-153.11" font-family="Times,serif" font-size="14.00">Deterministic</text>
</g>
<!-- target_scale&#45;&gt;y_original_scale -->
<g id="edge23" class="edge">
<title>target_scale&#45;&gt;y_original_scale</title>
<path fill="none" stroke="black" d="M755.84,-397.6C787.49,-386.87 829.37,-366.9 849.38,-332.63 872.21,-293.52 877.43,-266.29 849.38,-230.73 829.07,-204.98 744.58,-189.93 683.9,-182.24"/>
<polygon fill="black" stroke="black" points="684.34,-178.77 673.99,-181.03 683.49,-185.72 684.34,-178.77"/>
</g>
<!-- control_contribution_original_scale -->
<g id="node18" class="node">
<title>control_contribution_original_scale</title>
<polygon fill="none" stroke="black" points="1166.12,-320.73 956.62,-320.73 956.62,-263.23 1166.12,-263.23 1166.12,-320.73"/>
<text text-anchor="middle" x="1061.38" y="-303.43" font-family="Times,serif" font-size="14.00">control_contribution_original_scale</text>
<text text-anchor="middle" x="1061.38" y="-286.93" font-family="Times,serif" font-size="14.00">~</text>
<text text-anchor="middle" x="1061.38" y="-270.43" font-family="Times,serif" font-size="14.00">Deterministic</text>
</g>
<!-- target_scale&#45;&gt;control_contribution_original_scale -->
<g id="edge21" class="edge">
<title>target_scale&#45;&gt;control_contribution_original_scale</title>
<path fill="none" stroke="black" d="M756.08,-394.73C807.29,-377.66 896.86,-347.81 965.78,-324.84"/>
<polygon fill="black" stroke="black" points="966.84,-328.17 975.22,-321.69 964.63,-321.53 966.84,-328.17"/>
</g>
<!-- total_contribution -->
<g id="node8" class="node">
<title>total_contribution</title>
<polygon fill="none" stroke="black" points="112.75,-320.73 0,-320.73 0,-263.23 112.75,-263.23 112.75,-320.73"/>
<text text-anchor="middle" x="56.38" y="-303.43" font-family="Times,serif" font-size="14.00">total_contribution</text>
<text text-anchor="middle" x="56.38" y="-286.93" font-family="Times,serif" font-size="14.00">~</text>
<text text-anchor="middle" x="56.38" y="-270.43" font-family="Times,serif" font-size="14.00">Deterministic</text>
</g>
<!-- channel_data -->
<g id="node10" class="node">
<title>channel_data</title>
<path fill="lightgrey" stroke="black" d="M311,-559.86C311,-559.86 247.75,-559.86 247.75,-559.86 241.75,-559.86 235.75,-553.86 235.75,-547.86 235.75,-547.86 235.75,-514.36 235.75,-514.36 235.75,-508.36 241.75,-502.36 247.75,-502.36 247.75,-502.36 311,-502.36 311,-502.36 317,-502.36 323,-508.36 323,-514.36 323,-514.36 323,-547.86 323,-547.86 323,-553.86 317,-559.86 311,-559.86"/>
<text text-anchor="middle" x="279.38" y="-542.56" font-family="Times,serif" font-size="14.00">channel_data</text>
<text text-anchor="middle" x="279.38" y="-526.06" font-family="Times,serif" font-size="14.00">~</text>
<text text-anchor="middle" x="279.38" y="-509.56" font-family="Times,serif" font-size="14.00">Data</text>
</g>
<!-- channel_data&#45;&gt;channel_contribution -->
<g id="edge6" class="edge">
<title>channel_data&#45;&gt;channel_contribution</title>
<path fill="none" stroke="black" d="M279.38,-502.02C279.38,-486.4 279.38,-466.7 279.38,-449.58"/>
<polygon fill="black" stroke="black" points="282.88,-449.72 279.38,-439.72 275.88,-449.72 282.88,-449.72"/>
</g>
<!-- channel_contribution&#45;&gt;total_contribution -->
<g id="edge8" class="edge">
<title>channel_contribution&#45;&gt;total_contribution</title>
<path fill="none" stroke="black" d="M214.56,-380.16C184.81,-366.65 149.34,-349.72 118.38,-332.63 115.03,-330.79 111.62,-328.83 108.21,-326.82"/>
<polygon fill="black" stroke="black" points="110.29,-323.99 99.92,-321.81 106.67,-329.98 110.29,-323.99"/>
</g>
<!-- channel_contribution&#45;&gt;channel_contribution_original_scale -->
<g id="edge16" class="edge">
<title>channel_contribution&#45;&gt;channel_contribution_original_scale</title>
<path fill="none" stroke="black" d="M269.1,-380.08C263.77,-365.46 257.19,-347.37 251.4,-331.48"/>
<polygon fill="black" stroke="black" points="254.77,-330.52 248.06,-322.32 248.19,-332.91 254.77,-330.52"/>
</g>
<!-- channel_contribution&#45;&gt;total_contribution_original_scale -->
<g id="edge18" class="edge">
<title>channel_contribution&#45;&gt;total_contribution_original_scale</title>
<path fill="none" stroke="black" d="M325.12,-380.08C351.14,-364.04 383.9,-343.83 411.32,-326.93"/>
<polygon fill="black" stroke="black" points="412.82,-330.12 419.49,-321.89 409.14,-324.16 412.82,-330.12"/>
</g>
<!-- channel_contribution&#45;&gt;mu -->
<g id="edge13" class="edge">
<title>channel_contribution&#45;&gt;mu</title>
<path fill="none" stroke="black" d="M345.2,-398.75C406.46,-388.18 499.2,-367.8 573.38,-332.63 576.84,-330.99 580.32,-329.11 583.73,-327.08"/>
<polygon fill="black" stroke="black" points="585.35,-330.21 591.89,-321.87 581.58,-324.31 585.35,-330.21"/>
</g>
<!-- mu&#45;&gt;y -->
<g id="edge14" class="edge">
<title>mu&#45;&gt;y</title>
<path fill="none" stroke="black" d="M605.88,-262.84C596.65,-251.95 585.27,-239.91 573.38,-230.73 562.42,-222.26 549.96,-214.49 537.51,-207.62"/>
<polygon fill="black" stroke="black" points="539.37,-204.64 528.9,-203.02 536.07,-210.81 539.37,-204.64"/>
</g>
<!-- mu&#45;&gt;y_original_scale -->
<g id="edge22" class="edge">
<title>mu&#45;&gt;y_original_scale</title>
<path fill="none" stroke="black" d="M625.42,-262.77C624.41,-248.28 623.17,-230.4 622.08,-214.62"/>
<polygon fill="black" stroke="black" points="625.6,-214.82 621.42,-205.09 618.62,-215.31 625.6,-214.82"/>
</g>
<!-- y&#45;&gt;target_scale -->
<g id="edge1" class="edge">
<title>y&#45;&gt;target_scale</title>
<path fill="none" stroke="black" d="M524.22,-203.8C535.04,-208.22 546.4,-212.31 557.38,-215.32 584.16,-222.65 661.11,-211.75 681.38,-230.73 700.98,-249.08 709.56,-322.23 713.1,-368.72"/>
<polygon fill="black" stroke="black" points="709.61,-368.96 713.81,-378.69 716.6,-368.47 709.61,-368.96"/>
</g>
<!-- target_data -->
<g id="node16" class="node">
<title>target_data</title>
<path fill="lightgrey" stroke="black" d="M492.38,-98C492.38,-98 440.38,-98 440.38,-98 434.38,-98 428.38,-92 428.38,-86 428.38,-86 428.38,-52.5 428.38,-52.5 428.38,-46.5 434.38,-40.5 440.38,-40.5 440.38,-40.5 492.38,-40.5 492.38,-40.5 498.38,-40.5 504.38,-46.5 504.38,-52.5 504.38,-52.5 504.38,-86 504.38,-86 504.38,-92 498.38,-98 492.38,-98"/>
<text text-anchor="middle" x="466.38" y="-80.7" font-family="Times,serif" font-size="14.00">target_data</text>
<text text-anchor="middle" x="466.38" y="-64.2" font-family="Times,serif" font-size="14.00">~</text>
<text text-anchor="middle" x="466.38" y="-47.7" font-family="Times,serif" font-size="14.00">Data</text>
</g>
<!-- y&#45;&gt;target_data -->
<g id="edge2" class="edge">
<title>y&#45;&gt;target_data</title>
<path fill="none" stroke="black" d="M466.38,-133.68C466.38,-125.83 466.38,-117.6 466.38,-109.76"/>
<polygon fill="black" stroke="black" points="469.88,-109.79 466.38,-99.79 462.88,-109.79 469.88,-109.79"/>
</g>
<!-- gamma_control -->
<g id="node17" class="node">
<title>gamma_control</title>
<ellipse fill="none" stroke="black" cx="1262.38" cy="-531.11" rx="72.3" ry="40.66"/>
<text text-anchor="middle" x="1262.38" y="-542.56" font-family="Times,serif" font-size="14.00">gamma_control</text>
<text text-anchor="middle" x="1262.38" y="-526.06" font-family="Times,serif" font-size="14.00">~</text>
<text text-anchor="middle" x="1262.38" y="-509.56" font-family="Times,serif" font-size="14.00">Normal</text>
</g>
<!-- control_contribution -->
<g id="node19" class="node">
<title>control_contribution</title>
<polygon fill="none" stroke="black" points="1124.88,-438.04 997.88,-438.04 997.88,-380.54 1124.88,-380.54 1124.88,-438.04"/>
<text text-anchor="middle" x="1061.38" y="-420.74" font-family="Times,serif" font-size="14.00">control_contribution</text>
<text text-anchor="middle" x="1061.38" y="-404.24" font-family="Times,serif" font-size="14.00">~</text>
<text text-anchor="middle" x="1061.38" y="-387.74" font-family="Times,serif" font-size="14.00">Deterministic</text>
</g>
<!-- gamma_control&#45;&gt;control_contribution -->
<g id="edge9" class="edge">
<title>gamma_control&#45;&gt;control_contribution</title>
<path fill="none" stroke="black" d="M1227.16,-495.39C1212.83,-482.5 1195.6,-468.47 1178.38,-457.95 1165.12,-449.86 1150.25,-442.59 1135.66,-436.32"/>
<polygon fill="black" stroke="black" points="1137.1,-433.13 1126.52,-432.51 1134.41,-439.59 1137.1,-433.13"/>
</g>
<!-- control_contribution&#45;&gt;mu -->
<g id="edge11" class="edge">
<title>control_contribution&#45;&gt;mu</title>
<path fill="none" stroke="black" d="M997.38,-397.88C927.94,-385.71 814.28,-363.28 719.38,-332.63 707.34,-328.75 694.72,-323.87 682.82,-318.88"/>
<polygon fill="black" stroke="black" points="684.54,-315.81 673.97,-315.08 681.78,-322.24 684.54,-315.81"/>
</g>
<!-- control_contribution&#45;&gt;control_contribution_original_scale -->
<g id="edge20" class="edge">
<title>control_contribution&#45;&gt;control_contribution_original_scale</title>
<path fill="none" stroke="black" d="M1061.38,-380.08C1061.38,-365.74 1061.38,-348.07 1061.38,-332.4"/>
<polygon fill="black" stroke="black" points="1064.88,-332.41 1061.38,-322.41 1057.88,-332.41 1064.88,-332.41"/>
</g>
<!-- control_data -->
<g id="node20" class="node">
<title>control_data</title>
<path fill="lightgrey" stroke="black" d="M1091.12,-559.86C1091.12,-559.86 1031.62,-559.86 1031.62,-559.86 1025.62,-559.86 1019.62,-553.86 1019.62,-547.86 1019.62,-547.86 1019.62,-514.36 1019.62,-514.36 1019.62,-508.36 1025.62,-502.36 1031.62,-502.36 1031.62,-502.36 1091.12,-502.36 1091.12,-502.36 1097.12,-502.36 1103.12,-508.36 1103.12,-514.36 1103.12,-514.36 1103.12,-547.86 1103.12,-547.86 1103.12,-553.86 1097.12,-559.86 1091.12,-559.86"/>
<text text-anchor="middle" x="1061.38" y="-542.56" font-family="Times,serif" font-size="14.00">control_data</text>
<text text-anchor="middle" x="1061.38" y="-526.06" font-family="Times,serif" font-size="14.00">~</text>
<text text-anchor="middle" x="1061.38" y="-509.56" font-family="Times,serif" font-size="14.00">Data</text>
</g>
<!-- control_data&#45;&gt;control_contribution -->
<g id="edge10" class="edge">
<title>control_data&#45;&gt;control_contribution</title>
<path fill="none" stroke="black" d="M1061.38,-502.02C1061.38,-486.4 1061.38,-466.7 1061.38,-449.58"/>
<polygon fill="black" stroke="black" points="1064.88,-449.72 1061.38,-439.72 1057.88,-449.72 1064.88,-449.72"/>
</g>
</g>
</svg>
