<?xml version="1.0" encoding="UTF-8" standalone="no"?>
<!DOCTYPE svg PUBLIC "-//W3C//DTD SVG 1.1//EN"
 "http://www.w3.org/Graphics/SVG/1.1/DTD/svg11.dtd">
<!-- Generated by graphviz version 2.50.0 (0)
 -->
<!-- Pages: 1 -->
<svg width="1364pt" height="563pt"
 viewBox="0.00 0.00 1363.50 562.81" xmlns="http://www.w3.org/2000/svg" xmlns:xlink="http://www.w3.org/1999/xlink">
<g id="graph0" class="graph" transform="scale(1 1) rotate(0) translate(4 558.81)">
<polygon fill="white" stroke="transparent" points="-4,4 -4,-558.81 1359.5,-558.81 1359.5,4 -4,4"/>
<g id="clust1" class="cluster">
<title>clusterchannel (4)</title>
<path fill="none" stroke="black" d="M373.5,-432.86C373.5,-432.86 931.5,-432.86 931.5,-432.86 937.5,-432.86 943.5,-438.86 943.5,-444.86 943.5,-444.86 943.5,-534.81 943.5,-534.81 943.5,-540.81 937.5,-546.81 931.5,-546.81 931.5,-546.81 373.5,-546.81 373.5,-546.81 367.5,-546.81 361.5,-540.81 361.5,-534.81 361.5,-534.81 361.5,-444.86 361.5,-444.86 361.5,-438.86 367.5,-432.86 373.5,-432.86"/>
<text text-anchor="middle" x="904.5" y="-440.66" font-family="Times,serif" font-size="14.00">channel (4)</text>
</g>
<g id="clust2" class="cluster">
<title>clusterdate (879) x channel (4)</title>
<path fill="none" stroke="black" d="M135.5,-218.93C135.5,-218.93 341.5,-218.93 341.5,-218.93 347.5,-218.93 353.5,-224.93 353.5,-230.93 353.5,-230.93 353.5,-523.84 353.5,-523.84 353.5,-529.84 347.5,-535.84 341.5,-535.84 341.5,-535.84 135.5,-535.84 135.5,-535.84 129.5,-535.84 123.5,-529.84 123.5,-523.84 123.5,-523.84 123.5,-230.93 123.5,-230.93 123.5,-224.93 129.5,-218.93 135.5,-218.93"/>
<text text-anchor="middle" x="279.5" y="-226.73" font-family="Times,serif" font-size="14.00">date (879) x channel (4)</text>
</g>
<g id="clust3" class="cluster">
<title>clusterdate (879)</title>
<path fill="none" stroke="black" d="M373.5,-8C373.5,-8 671.5,-8 671.5,-8 677.5,-8 683.5,-14 683.5,-20 683.5,-20 683.5,-298.93 683.5,-298.93 683.5,-304.93 677.5,-310.93 671.5,-310.93 671.5,-310.93 373.5,-310.93 373.5,-310.93 367.5,-310.93 361.5,-304.93 361.5,-298.93 361.5,-298.93 361.5,-20 361.5,-20 361.5,-14 367.5,-8 373.5,-8"/>
<text text-anchor="middle" x="647.5" y="-15.8" font-family="Times,serif" font-size="14.00">date (879)</text>
</g>
<g id="clust4" class="cluster">
<title>clustercontrol (6)</title>
<path fill="none" stroke="black" d="M1197.5,-432.86C1197.5,-432.86 1335.5,-432.86 1335.5,-432.86 1341.5,-432.86 1347.5,-438.86 1347.5,-444.86 1347.5,-444.86 1347.5,-534.81 1347.5,-534.81 1347.5,-540.81 1341.5,-546.81 1335.5,-546.81 1335.5,-546.81 1197.5,-546.81 1197.5,-546.81 1191.5,-546.81 1185.5,-540.81 1185.5,-534.81 1185.5,-534.81 1185.5,-444.86 1185.5,-444.86 1185.5,-438.86 1191.5,-432.86 1197.5,-432.86"/>
<text text-anchor="middle" x="1310.5" y="-440.66" font-family="Times,serif" font-size="14.00">control (6)</text>
</g>
<g id="clust5" class="cluster">
<title>clusterdate (879) x control (6)</title>
<path fill="none" stroke="black" d="M963.5,-218.93C963.5,-218.93 1165.5,-218.93 1165.5,-218.93 1171.5,-218.93 1177.5,-224.93 1177.5,-230.93 1177.5,-230.93 1177.5,-523.84 1177.5,-523.84 1177.5,-529.84 1171.5,-535.84 1165.5,-535.84 1165.5,-535.84 963.5,-535.84 963.5,-535.84 957.5,-535.84 951.5,-529.84 951.5,-523.84 951.5,-523.84 951.5,-230.93 951.5,-230.93 951.5,-224.93 957.5,-218.93 963.5,-218.93"/>
<text text-anchor="middle" x="1105.5" y="-226.73" font-family="Times,serif" font-size="14.00">date (879) x control (6)</text>
</g>
<!-- channel_scale -->
<g id="node1" class="node">
<title>channel_scale</title>
<path fill="lightgrey" stroke="black" d="M605.5,-527.84C605.5,-527.84 537.5,-527.84 537.5,-527.84 531.5,-527.84 525.5,-521.84 525.5,-515.84 525.5,-515.84 525.5,-486.84 525.5,-486.84 525.5,-480.84 531.5,-474.84 537.5,-474.84 537.5,-474.84 605.5,-474.84 605.5,-474.84 611.5,-474.84 617.5,-480.84 617.5,-486.84 617.5,-486.84 617.5,-515.84 617.5,-515.84 617.5,-521.84 611.5,-527.84 605.5,-527.84"/>
<text text-anchor="middle" x="571.5" y="-512.64" font-family="Times,serif" font-size="14.00">channel_scale</text>
<text text-anchor="middle" x="571.5" y="-497.64" font-family="Times,serif" font-size="14.00">~</text>
<text text-anchor="middle" x="571.5" y="-482.64" font-family="Times,serif" font-size="14.00">Data</text>
</g>
<!-- channel_contribution -->
<g id="node11" class="node">
<title>channel_contribution</title>
<polygon fill="none" stroke="black" points="345,-413.88 214,-413.88 214,-360.88 345,-360.88 345,-413.88"/>
<text text-anchor="middle" x="279.5" y="-398.68" font-family="Times,serif" font-size="14.00">channel_contribution</text>
<text text-anchor="middle" x="279.5" y="-383.68" font-family="Times,serif" font-size="14.00">~</text>
<text text-anchor="middle" x="279.5" y="-368.68" font-family="Times,serif" font-size="14.00">Deterministic</text>
</g>
<!-- channel_scale&#45;&gt;channel_contribution -->
<g id="edge3" class="edge">
<title>channel_scale&#45;&gt;channel_contribution</title>
<path fill="none" stroke="black" d="M556.92,-474.68C547.31,-460.14 533.39,-442.9 516.5,-432.86 467.78,-403.91 404.32,-393.14 355.32,-389.42"/>
<polygon fill="black" stroke="black" points="355.31,-385.91 345.1,-388.73 354.84,-392.89 355.31,-385.91"/>
</g>
<!-- saturation_lam -->
<g id="node2" class="node">
<title>saturation_lam</title>
<ellipse fill="none" stroke="black" cx="438.5" cy="-501.34" rx="69.09" ry="37.45"/>
<text text-anchor="middle" x="438.5" y="-512.64" font-family="Times,serif" font-size="14.00">saturation_lam</text>
<text text-anchor="middle" x="438.5" y="-497.64" font-family="Times,serif" font-size="14.00">~</text>
<text text-anchor="middle" x="438.5" y="-482.64" font-family="Times,serif" font-size="14.00">Gamma</text>
</g>
<!-- saturation_lam&#45;&gt;channel_contribution -->
<g id="edge5" class="edge">
<title>saturation_lam&#45;&gt;channel_contribution</title>
<path fill="none" stroke="black" d="M403.29,-468.69C389.44,-456.88 373.14,-443.71 357.5,-432.86 350.69,-428.13 343.34,-423.45 335.97,-419"/>
<polygon fill="black" stroke="black" points="337.73,-415.98 327.34,-413.89 334.16,-422 337.73,-415.98"/>
</g>
<!-- saturation_alpha -->
<g id="node3" class="node">
<title>saturation_alpha</title>
<ellipse fill="none" stroke="black" cx="860.5" cy="-501.34" rx="74.91" ry="37.45"/>
<text text-anchor="middle" x="860.5" y="-512.64" font-family="Times,serif" font-size="14.00">saturation_alpha</text>
<text text-anchor="middle" x="860.5" y="-497.64" font-family="Times,serif" font-size="14.00">~</text>
<text text-anchor="middle" x="860.5" y="-482.64" font-family="Times,serif" font-size="14.00">Gamma</text>
</g>
<!-- saturation_alpha&#45;&gt;channel_contribution -->
<g id="edge6" class="edge">
<title>saturation_alpha&#45;&gt;channel_contribution</title>
<path fill="none" stroke="black" d="M829.3,-467.25C814.66,-454.01 796.13,-440.18 776.5,-432.86 754,-424.47 584.43,-426.85 560.5,-424.86 490.67,-419.05 411.55,-408.41 355.09,-400.12"/>
<polygon fill="black" stroke="black" points="355.58,-396.65 345.18,-398.65 354.56,-403.57 355.58,-396.65"/>
</g>
<!-- adstock_alpha -->
<g id="node4" class="node">
<title>adstock_alpha</title>
<ellipse fill="none" stroke="black" cx="701.5" cy="-501.34" rx="66.44" ry="37.45"/>
<text text-anchor="middle" x="701.5" y="-512.64" font-family="Times,serif" font-size="14.00">adstock_alpha</text>
<text text-anchor="middle" x="701.5" y="-497.64" font-family="Times,serif" font-size="14.00">~</text>
<text text-anchor="middle" x="701.5" y="-482.64" font-family="Times,serif" font-size="14.00">Beta</text>
</g>
<!-- adstock_alpha&#45;&gt;channel_contribution -->
<g id="edge7" class="edge">
<title>adstock_alpha&#45;&gt;channel_contribution</title>
<path fill="none" stroke="black" d="M673.26,-467.31C660.35,-454.41 644.04,-440.83 626.5,-432.86 599.6,-420.63 589.82,-428.54 560.5,-424.86 490.85,-416.12 411.55,-405.79 354.99,-398.36"/>
<polygon fill="black" stroke="black" points="355.43,-394.89 345.06,-397.05 354.52,-401.83 355.43,-394.89"/>
</g>
<!-- y_sigma -->
<g id="node5" class="node">
<title>y_sigma</title>
<ellipse fill="none" stroke="black" cx="788.5" cy="-276.43" rx="56.64" ry="37.45"/>
<text text-anchor="middle" x="788.5" y="-287.73" font-family="Times,serif" font-size="14.00">y_sigma</text>
<text text-anchor="middle" x="788.5" y="-272.73" font-family="Times,serif" font-size="14.00">~</text>
<text text-anchor="middle" x="788.5" y="-257.73" font-family="Times,serif" font-size="14.00">Halfnormal</text>
</g>
<!-- y -->
<g id="node12" class="node">
<title>y</title>
<ellipse fill="lightgrey" stroke="black" cx="468.5" cy="-165.48" rx="82.96" ry="37.45"/>
<text text-anchor="middle" x="468.5" y="-176.78" font-family="Times,serif" font-size="14.00">y</text>
<text text-anchor="middle" x="468.5" y="-161.78" font-family="Times,serif" font-size="14.00">~</text>
<text text-anchor="middle" x="468.5" y="-146.78" font-family="Times,serif" font-size="14.00">Truncated_normal</text>
</g>
<!-- y_sigma&#45;&gt;y -->
<g id="edge14" class="edge">
<title>y_sigma&#45;&gt;y</title>
<path fill="none" stroke="black" d="M757.79,-244.68C746.11,-234.79 732.09,-224.87 717.5,-218.93 652.54,-192.47 628.64,-219.59 560.5,-202.95 552.46,-200.99 544.19,-198.48 536.06,-195.69"/>
<polygon fill="black" stroke="black" points="537.2,-192.38 526.61,-192.3 534.84,-198.97 537.2,-192.38"/>
</g>
<!-- total_contribution -->
<g id="node6" class="node">
<title>total_contribution</title>
<polygon fill="none" stroke="black" points="113,-302.93 0,-302.93 0,-249.93 113,-249.93 113,-302.93"/>
<text text-anchor="middle" x="56.5" y="-287.73" font-family="Times,serif" font-size="14.00">total_contribution</text>
<text text-anchor="middle" x="56.5" y="-272.73" font-family="Times,serif" font-size="14.00">~</text>
<text text-anchor="middle" x="56.5" y="-257.73" font-family="Times,serif" font-size="14.00">Deterministic</text>
</g>
<!-- intercept -->
<g id="node7" class="node">
<title>intercept</title>
<ellipse fill="none" stroke="black" cx="614.5" cy="-387.38" rx="45.01" ry="37.45"/>
<text text-anchor="middle" x="614.5" y="-398.68" font-family="Times,serif" font-size="14.00">intercept</text>
<text text-anchor="middle" x="614.5" y="-383.68" font-family="Times,serif" font-size="14.00">~</text>
<text text-anchor="middle" x="614.5" y="-368.68" font-family="Times,serif" font-size="14.00">Normal</text>
</g>
<!-- mu -->
<g id="node16" class="node">
<title>mu</title>
<polygon fill="none" stroke="black" points="675,-302.93 584,-302.93 584,-249.93 675,-249.93 675,-302.93"/>
<text text-anchor="middle" x="629.5" y="-287.73" font-family="Times,serif" font-size="14.00">mu</text>
<text text-anchor="middle" x="629.5" y="-272.73" font-family="Times,serif" font-size="14.00">~</text>
<text text-anchor="middle" x="629.5" y="-257.73" font-family="Times,serif" font-size="14.00">Deterministic</text>
</g>
<!-- intercept&#45;&gt;mu -->
<g id="edge13" class="edge">
<title>intercept&#45;&gt;mu</title>
<path fill="none" stroke="black" d="M619.49,-350.1C621.13,-338.23 622.94,-325.05 624.57,-313.22"/>
<polygon fill="black" stroke="black" points="628.05,-313.61 625.95,-303.22 621.12,-312.65 628.05,-313.61"/>
</g>
<!-- target_scale -->
<g id="node8" class="node">
<title>target_scale</title>
<path fill="lightgrey" stroke="black" d="M747,-413.88C747,-413.88 690,-413.88 690,-413.88 684,-413.88 678,-407.88 678,-401.88 678,-401.88 678,-372.88 678,-372.88 678,-366.88 684,-360.88 690,-360.88 690,-360.88 747,-360.88 747,-360.88 753,-360.88 759,-366.88 759,-372.88 759,-372.88 759,-401.88 759,-401.88 759,-407.88 753,-413.88 747,-413.88"/>
<text text-anchor="middle" x="718.5" y="-398.68" font-family="Times,serif" font-size="14.00">target_scale</text>
<text text-anchor="middle" x="718.5" y="-383.68" font-family="Times,serif" font-size="14.00">~</text>
<text text-anchor="middle" x="718.5" y="-368.68" font-family="Times,serif" font-size="14.00">Data</text>
</g>
<!-- channel_contribution_original_scale -->
<g id="node9" class="node">
<title>channel_contribution_original_scale</title>
<polygon fill="none" stroke="black" points="345.5,-302.93 131.5,-302.93 131.5,-249.93 345.5,-249.93 345.5,-302.93"/>
<text text-anchor="middle" x="238.5" y="-287.73" font-family="Times,serif" font-size="14.00">channel_contribution_original_scale</text>
<text text-anchor="middle" x="238.5" y="-272.73" font-family="Times,serif" font-size="14.00">~</text>
<text text-anchor="middle" x="238.5" y="-257.73" font-family="Times,serif" font-size="14.00">Deterministic</text>
</g>
<!-- target_scale&#45;&gt;channel_contribution_original_scale -->
<g id="edge17" class="edge">
<title>target_scale&#45;&gt;channel_contribution_original_scale</title>
<path fill="none" stroke="black" d="M688.49,-360.75C682.22,-356.5 675.4,-352.61 668.5,-349.91 538.91,-299.23 493.69,-342.41 357.5,-313.91 346.62,-311.63 335.31,-308.8 324.18,-305.72"/>
<polygon fill="black" stroke="black" points="325.04,-302.32 314.46,-302.96 323.13,-309.06 325.04,-302.32"/>
</g>
<!-- total_contribution_original_scale -->
<g id="node13" class="node">
<title>total_contribution_original_scale</title>
<polygon fill="none" stroke="black" points="565.5,-302.93 369.5,-302.93 369.5,-249.93 565.5,-249.93 565.5,-302.93"/>
<text text-anchor="middle" x="467.5" y="-287.73" font-family="Times,serif" font-size="14.00">total_contribution_original_scale</text>
<text text-anchor="middle" x="467.5" y="-272.73" font-family="Times,serif" font-size="14.00">~</text>
<text text-anchor="middle" x="467.5" y="-257.73" font-family="Times,serif" font-size="14.00">Deterministic</text>
</g>
<!-- target_scale&#45;&gt;total_contribution_original_scale -->
<g id="edge19" class="edge">
<title>target_scale&#45;&gt;total_contribution_original_scale</title>
<path fill="none" stroke="black" d="M686.29,-360.86C680.54,-356.9 674.48,-353.08 668.5,-349.91 657.34,-343.98 601.15,-323.84 551,-306.29"/>
<polygon fill="black" stroke="black" points="551.99,-302.93 541.4,-302.93 549.68,-309.54 551.99,-302.93"/>
</g>
<!-- y_original_scale -->
<g id="node14" class="node">
<title>y_original_scale</title>
<polygon fill="none" stroke="black" points="675.5,-191.98 569.5,-191.98 569.5,-138.98 675.5,-138.98 675.5,-191.98"/>
<text text-anchor="middle" x="622.5" y="-176.78" font-family="Times,serif" font-size="14.00">y_original_scale</text>
<text text-anchor="middle" x="622.5" y="-161.78" font-family="Times,serif" font-size="14.00">~</text>
<text text-anchor="middle" x="622.5" y="-146.78" font-family="Times,serif" font-size="14.00">Deterministic</text>
</g>
<!-- target_scale&#45;&gt;y_original_scale -->
<g id="edge23" class="edge">
<title>target_scale&#45;&gt;y_original_scale</title>
<path fill="none" stroke="black" d="M759.16,-376.9C791.28,-367.03 833.98,-348.09 854.5,-313.91 876.22,-277.71 880.85,-251.91 854.5,-218.93 833.71,-192.92 747.04,-178.86 685.75,-172.02"/>
<polygon fill="black" stroke="black" points="686.08,-168.54 675.77,-170.95 685.33,-175.5 686.08,-168.54"/>
</g>
<!-- control_contribution_original_scale -->
<g id="node19" class="node">
<title>control_contribution_original_scale</title>
<polygon fill="none" stroke="black" points="1169.5,-302.93 959.5,-302.93 959.5,-249.93 1169.5,-249.93 1169.5,-302.93"/>
<text text-anchor="middle" x="1064.5" y="-287.73" font-family="Times,serif" font-size="14.00">control_contribution_original_scale</text>
<text text-anchor="middle" x="1064.5" y="-272.73" font-family="Times,serif" font-size="14.00">~</text>
<text text-anchor="middle" x="1064.5" y="-257.73" font-family="Times,serif" font-size="14.00">Deterministic</text>
</g>
<!-- target_scale&#45;&gt;control_contribution_original_scale -->
<g id="edge21" class="edge">
<title>target_scale&#45;&gt;control_contribution_original_scale</title>
<path fill="none" stroke="black" d="M759.21,-373.56C811.59,-357.07 904.1,-327.94 973.59,-306.06"/>
<polygon fill="black" stroke="black" points="974.75,-309.36 983.24,-303.02 972.65,-302.68 974.75,-309.36"/>
</g>
<!-- channel_data -->
<g id="node10" class="node">
<title>channel_data</title>
<path fill="lightgrey" stroke="black" d="M311.5,-527.84C311.5,-527.84 247.5,-527.84 247.5,-527.84 241.5,-527.84 235.5,-521.84 235.5,-515.84 235.5,-515.84 235.5,-486.84 235.5,-486.84 235.5,-480.84 241.5,-474.84 247.5,-474.84 247.5,-474.84 311.5,-474.84 311.5,-474.84 317.5,-474.84 323.5,-480.84 323.5,-486.84 323.5,-486.84 323.5,-515.84 323.5,-515.84 323.5,-521.84 317.5,-527.84 311.5,-527.84"/>
<text text-anchor="middle" x="279.5" y="-512.64" font-family="Times,serif" font-size="14.00">channel_data</text>
<text text-anchor="middle" x="279.5" y="-497.64" font-family="Times,serif" font-size="14.00">~</text>
<text text-anchor="middle" x="279.5" y="-482.64" font-family="Times,serif" font-size="14.00">Data</text>
</g>
<!-- channel_data&#45;&gt;channel_contribution -->
<g id="edge4" class="edge">
<title>channel_data&#45;&gt;channel_contribution</title>
<path fill="none" stroke="black" d="M279.5,-474.65C279.5,-459.72 279.5,-440.67 279.5,-424.27"/>
<polygon fill="black" stroke="black" points="283,-423.95 279.5,-413.95 276,-423.95 283,-423.95"/>
</g>
<!-- channel_contribution&#45;&gt;total_contribution -->
<g id="edge8" class="edge">
<title>channel_contribution&#45;&gt;total_contribution</title>
<path fill="none" stroke="black" d="M219.18,-360.76C188.92,-347.47 151.91,-330.58 119.5,-313.91 115.83,-312.02 112.08,-310.02 108.32,-307.97"/>
<polygon fill="black" stroke="black" points="110.01,-304.91 99.57,-303.12 106.61,-311.03 110.01,-304.91"/>
</g>
<!-- channel_contribution&#45;&gt;channel_contribution_original_scale -->
<g id="edge16" class="edge">
<title>channel_contribution&#45;&gt;channel_contribution_original_scale</title>
<path fill="none" stroke="black" d="M269.89,-360.84C264.48,-346.46 257.64,-328.3 251.73,-312.6"/>
<polygon fill="black" stroke="black" points="254.99,-311.32 248.19,-303.19 248.44,-313.78 254.99,-311.32"/>
</g>
<!-- channel_contribution&#45;&gt;total_contribution_original_scale -->
<g id="edge18" class="edge">
<title>channel_contribution&#45;&gt;total_contribution_original_scale</title>
<path fill="none" stroke="black" d="M323.58,-360.84C350.82,-345.05 385.95,-324.69 414.68,-308.04"/>
<polygon fill="black" stroke="black" points="416.48,-311.05 423.37,-303 412.97,-304.99 416.48,-311.05"/>
</g>
<!-- channel_contribution&#45;&gt;mu -->
<g id="edge12" class="edge">
<title>channel_contribution&#45;&gt;mu</title>
<path fill="none" stroke="black" d="M345.18,-376.92C406.39,-366.57 499.27,-346.89 574.5,-313.91 578.34,-312.22 582.2,-310.28 586,-308.18"/>
<polygon fill="black" stroke="black" points="587.88,-311.14 594.73,-303.05 584.33,-305.1 587.88,-311.14"/>
</g>
<!-- y&#45;&gt;target_scale -->
<g id="edge1" class="edge">
<title>y&#45;&gt;target_scale</title>
<path fill="none" stroke="black" d="M527.16,-192.24C538.09,-196.32 549.52,-200.12 560.5,-202.95 587.4,-209.9 664.16,-200.01 684.5,-218.93 720.33,-252.27 724.1,-312.19 722.25,-350.58"/>
<polygon fill="black" stroke="black" points="718.74,-350.59 721.6,-360.8 725.73,-351.04 718.74,-350.59"/>
</g>
<!-- target_data -->
<g id="node15" class="node">
<title>target_data</title>
<path fill="lightgrey" stroke="black" d="M495,-92C495,-92 442,-92 442,-92 436,-92 430,-86 430,-80 430,-80 430,-51 430,-51 430,-45 436,-39 442,-39 442,-39 495,-39 495,-39 501,-39 507,-45 507,-51 507,-51 507,-80 507,-80 507,-86 501,-92 495,-92"/>
<text text-anchor="middle" x="468.5" y="-76.8" font-family="Times,serif" font-size="14.00">target_data</text>
<text text-anchor="middle" x="468.5" y="-61.8" font-family="Times,serif" font-size="14.00">~</text>
<text text-anchor="middle" x="468.5" y="-46.8" font-family="Times,serif" font-size="14.00">Data</text>
</g>
<!-- y&#45;&gt;target_data -->
<g id="edge2" class="edge">
<title>y&#45;&gt;target_data</title>
<path fill="none" stroke="black" d="M468.5,-127.99C468.5,-119.58 468.5,-110.63 468.5,-102.25"/>
<polygon fill="black" stroke="black" points="472,-102.01 468.5,-92.01 465,-102.01 472,-102.01"/>
</g>
<!-- mu&#45;&gt;y -->
<g id="edge15" class="edge">
<title>mu&#45;&gt;y</title>
<path fill="none" stroke="black" d="M608.12,-249.91C598.54,-239.47 586.67,-227.79 574.5,-218.93 563.08,-210.62 550.14,-202.98 537.32,-196.26"/>
<polygon fill="black" stroke="black" points="538.54,-192.95 528.04,-191.54 535.36,-199.19 538.54,-192.95"/>
</g>
<!-- mu&#45;&gt;y_original_scale -->
<g id="edge22" class="edge">
<title>mu&#45;&gt;y_original_scale</title>
<path fill="none" stroke="black" d="M627.86,-249.89C626.95,-235.78 625.81,-218.03 624.82,-202.53"/>
<polygon fill="black" stroke="black" points="628.29,-201.99 624.16,-192.24 621.3,-202.44 628.29,-201.99"/>
</g>
<!-- gamma_control -->
<g id="node17" class="node">
<title>gamma_control</title>
<ellipse fill="none" stroke="black" cx="1266.5" cy="-501.34" rx="72.66" ry="37.45"/>
<text text-anchor="middle" x="1266.5" y="-512.64" font-family="Times,serif" font-size="14.00">gamma_control</text>
<text text-anchor="middle" x="1266.5" y="-497.64" font-family="Times,serif" font-size="14.00">~</text>
<text text-anchor="middle" x="1266.5" y="-482.64" font-family="Times,serif" font-size="14.00">Normal</text>
</g>
<!-- control_contribution -->
<g id="node18" class="node">
<title>control_contribution</title>
<polygon fill="none" stroke="black" points="1128.5,-413.88 1000.5,-413.88 1000.5,-360.88 1128.5,-360.88 1128.5,-413.88"/>
<text text-anchor="middle" x="1064.5" y="-398.68" font-family="Times,serif" font-size="14.00">control_contribution</text>
<text text-anchor="middle" x="1064.5" y="-383.68" font-family="Times,serif" font-size="14.00">~</text>
<text text-anchor="middle" x="1064.5" y="-368.68" font-family="Times,serif" font-size="14.00">Deterministic</text>
</g>
<!-- gamma_control&#45;&gt;control_contribution -->
<g id="edge9" class="edge">
<title>gamma_control&#45;&gt;control_contribution</title>
<path fill="none" stroke="black" d="M1231.03,-468.16C1216.42,-456 1198.86,-442.73 1181.5,-432.86 1168.02,-425.19 1152.96,-418.34 1138.25,-412.45"/>
<polygon fill="black" stroke="black" points="1139.25,-409.08 1128.66,-408.72 1136.71,-415.61 1139.25,-409.08"/>
</g>
<!-- control_contribution&#45;&gt;mu -->
<g id="edge11" class="edge">
<title>control_contribution&#45;&gt;mu</title>
<path fill="none" stroke="black" d="M1000.36,-376.05C931.04,-364.13 817.7,-342.45 722.5,-313.91 710.18,-310.21 697.19,-305.6 684.95,-300.9"/>
<polygon fill="black" stroke="black" points="685.92,-297.52 675.33,-297.14 683.37,-304.04 685.92,-297.52"/>
</g>
<!-- control_contribution&#45;&gt;control_contribution_original_scale -->
<g id="edge20" class="edge">
<title>control_contribution&#45;&gt;control_contribution_original_scale</title>
<path fill="none" stroke="black" d="M1064.5,-360.84C1064.5,-346.73 1064.5,-328.98 1064.5,-313.49"/>
<polygon fill="black" stroke="black" points="1068,-313.19 1064.5,-303.19 1061,-313.19 1068,-313.19"/>
</g>
<!-- control_data -->
<g id="node20" class="node">
<title>control_data</title>
<path fill="lightgrey" stroke="black" d="M1094.5,-527.84C1094.5,-527.84 1034.5,-527.84 1034.5,-527.84 1028.5,-527.84 1022.5,-521.84 1022.5,-515.84 1022.5,-515.84 1022.5,-486.84 1022.5,-486.84 1022.5,-480.84 1028.5,-474.84 1034.5,-474.84 1034.5,-474.84 1094.5,-474.84 1094.5,-474.84 1100.5,-474.84 1106.5,-480.84 1106.5,-486.84 1106.5,-486.84 1106.5,-515.84 1106.5,-515.84 1106.5,-521.84 1100.5,-527.84 1094.5,-527.84"/>
<text text-anchor="middle" x="1064.5" y="-512.64" font-family="Times,serif" font-size="14.00">control_data</text>
<text text-anchor="middle" x="1064.5" y="-497.64" font-family="Times,serif" font-size="14.00">~</text>
<text text-anchor="middle" x="1064.5" y="-482.64" font-family="Times,serif" font-size="14.00">Data</text>
</g>
<!-- control_data&#45;&gt;control_contribution -->
<g id="edge10" class="edge">
<title>control_data&#45;&gt;control_contribution</title>
<path fill="none" stroke="black" d="M1064.5,-474.65C1064.5,-459.72 1064.5,-440.67 1064.5,-424.27"/>
<polygon fill="black" stroke="black" points="1068,-423.95 1064.5,-413.95 1061,-423.95 1068,-423.95"/>
</g>
</g>
</svg>
