<?xml version="1.0" encoding="UTF-8" standalone="no"?>
<!DOCTYPE svg PUBLIC "-//W3C//DTD SVG 1.1//EN"
 "http://www.w3.org/Graphics/SVG/1.1/DTD/svg11.dtd">
<!-- Generated by graphviz version 2.50.0 (0)
 -->
<!-- Pages: 1 -->
<svg width="1364pt" height="574pt"
 viewBox="0.00 0.00 1363.50 573.81" xmlns="http://www.w3.org/2000/svg" xmlns:xlink="http://www.w3.org/1999/xlink">
<g id="graph0" class="graph" transform="scale(1 1) rotate(0) translate(4 569.81)">
<polygon fill="white" stroke="transparent" points="-4,4 -4,-569.81 1359.5,-569.81 1359.5,4 -4,4"/>
<g id="clust1" class="cluster">
<title>clusterchannel (4)</title>
<path fill="none" stroke="black" d="M373.5,-443.86C373.5,-443.86 931.5,-443.86 931.5,-443.86 937.5,-443.86 943.5,-449.86 943.5,-455.86 943.5,-455.86 943.5,-545.81 943.5,-545.81 943.5,-551.81 937.5,-557.81 931.5,-557.81 931.5,-557.81 373.5,-557.81 373.5,-557.81 367.5,-557.81 361.5,-551.81 361.5,-545.81 361.5,-545.81 361.5,-455.86 361.5,-455.86 361.5,-449.86 367.5,-443.86 373.5,-443.86"/>
<text text-anchor="middle" x="904.5" y="-451.66" font-family="Times,serif" font-size="14.00">channel (4)</text>
</g>
<g id="clust2" class="cluster">
<title>clusterdate (1050) x channel (4)</title>
<path fill="none" stroke="black" d="M135.5,-218.93C135.5,-218.93 341.5,-218.93 341.5,-218.93 347.5,-218.93 353.5,-224.93 353.5,-230.93 353.5,-230.93 353.5,-534.84 353.5,-534.84 353.5,-540.84 347.5,-546.84 341.5,-546.84 341.5,-546.84 135.5,-546.84 135.5,-546.84 129.5,-546.84 123.5,-540.84 123.5,-534.84 123.5,-534.84 123.5,-230.93 123.5,-230.93 123.5,-224.93 129.5,-218.93 135.5,-218.93"/>
<text text-anchor="middle" x="276" y="-226.73" font-family="Times,serif" font-size="14.00">date (1050) x channel (4)</text>
</g>
<g id="clust3" class="cluster">
<title>clusterdate (1050)</title>
<path fill="none" stroke="black" d="M373.5,-8C373.5,-8 671.5,-8 671.5,-8 677.5,-8 683.5,-14 683.5,-20 683.5,-20 683.5,-298.93 683.5,-298.93 683.5,-304.93 677.5,-310.93 671.5,-310.93 671.5,-310.93 373.5,-310.93 373.5,-310.93 367.5,-310.93 361.5,-304.93 361.5,-298.93 361.5,-298.93 361.5,-20 361.5,-20 361.5,-14 367.5,-8 373.5,-8"/>
<text text-anchor="middle" x="644" y="-15.8" font-family="Times,serif" font-size="14.00">date (1050)</text>
</g>
<g id="clust4" class="cluster">
<title>clustercontrol (6)</title>
<path fill="none" stroke="black" d="M1197.5,-443.86C1197.5,-443.86 1335.5,-443.86 1335.5,-443.86 1341.5,-443.86 1347.5,-449.86 1347.5,-455.86 1347.5,-455.86 1347.5,-545.81 1347.5,-545.81 1347.5,-551.81 1341.5,-557.81 1335.5,-557.81 1335.5,-557.81 1197.5,-557.81 1197.5,-557.81 1191.5,-557.81 1185.5,-551.81 1185.5,-545.81 1185.5,-545.81 1185.5,-455.86 1185.5,-455.86 1185.5,-449.86 1191.5,-443.86 1197.5,-443.86"/>
<text text-anchor="middle" x="1310.5" y="-451.66" font-family="Times,serif" font-size="14.00">control (6)</text>
</g>
<g id="clust5" class="cluster">
<title>clusterdate (1050) x control (6)</title>
<path fill="none" stroke="black" d="M963.5,-218.93C963.5,-218.93 1165.5,-218.93 1165.5,-218.93 1171.5,-218.93 1177.5,-224.93 1177.5,-230.93 1177.5,-230.93 1177.5,-534.84 1177.5,-534.84 1177.5,-540.84 1171.5,-546.84 1165.5,-546.84 1165.5,-546.84 963.5,-546.84 963.5,-546.84 957.5,-546.84 951.5,-540.84 951.5,-534.84 951.5,-534.84 951.5,-230.93 951.5,-230.93 951.5,-224.93 957.5,-218.93 963.5,-218.93"/>
<text text-anchor="middle" x="1102" y="-226.73" font-family="Times,serif" font-size="14.00">date (1050) x control (6)</text>
</g>
<g id="clust6" class="cluster">
<title>cluster1</title>
<path fill="none" stroke="black" d="M638.5,-321.91C638.5,-321.91 796.5,-321.91 796.5,-321.91 802.5,-321.91 808.5,-327.91 808.5,-333.91 808.5,-333.91 808.5,-423.86 808.5,-423.86 808.5,-429.86 802.5,-435.86 796.5,-435.86 796.5,-435.86 638.5,-435.86 638.5,-435.86 632.5,-435.86 626.5,-429.86 626.5,-423.86 626.5,-423.86 626.5,-333.91 626.5,-333.91 626.5,-327.91 632.5,-321.91 638.5,-321.91"/>
<text text-anchor="middle" x="797" y="-329.71" font-family="Times,serif" font-size="14.00">1</text>
</g>
<!-- adstock_alpha -->
<g id="node1" class="node">
<title>adstock_alpha</title>
<ellipse fill="none" stroke="black" cx="545.5" cy="-512.34" rx="66.44" ry="37.45"/>
<text text-anchor="middle" x="545.5" y="-523.64" font-family="Times,serif" font-size="14.00">adstock_alpha</text>
<text text-anchor="middle" x="545.5" y="-508.64" font-family="Times,serif" font-size="14.00">~</text>
<text text-anchor="middle" x="545.5" y="-493.64" font-family="Times,serif" font-size="14.00">Beta</text>
</g>
<!-- channel_contribution -->
<g id="node10" class="node">
<title>channel_contribution</title>
<polygon fill="none" stroke="black" points="345,-416.88 214,-416.88 214,-363.88 345,-363.88 345,-416.88"/>
<text text-anchor="middle" x="279.5" y="-401.68" font-family="Times,serif" font-size="14.00">channel_contribution</text>
<text text-anchor="middle" x="279.5" y="-386.68" font-family="Times,serif" font-size="14.00">~</text>
<text text-anchor="middle" x="279.5" y="-371.68" font-family="Times,serif" font-size="14.00">Deterministic</text>
</g>
<!-- adstock_alpha&#45;&gt;channel_contribution -->
<g id="edge6" class="edge">
<title>adstock_alpha&#45;&gt;channel_contribution</title>
<path fill="none" stroke="black" d="M515.57,-478.51C502.74,-466.11 486.94,-452.85 470.5,-443.86 434.92,-424.41 391.6,-411.74 355.21,-403.74"/>
<polygon fill="black" stroke="black" points="355.65,-400.25 345.14,-401.6 354.2,-407.1 355.65,-400.25"/>
</g>
<!-- saturation_lam -->
<g id="node2" class="node">
<title>saturation_lam</title>
<ellipse fill="none" stroke="black" cx="866.5" cy="-512.34" rx="69.09" ry="37.45"/>
<text text-anchor="middle" x="866.5" y="-523.64" font-family="Times,serif" font-size="14.00">saturation_lam</text>
<text text-anchor="middle" x="866.5" y="-508.64" font-family="Times,serif" font-size="14.00">~</text>
<text text-anchor="middle" x="866.5" y="-493.64" font-family="Times,serif" font-size="14.00">Gamma</text>
</g>
<!-- saturation_lam&#45;&gt;channel_contribution -->
<g id="edge3" class="edge">
<title>saturation_lam&#45;&gt;channel_contribution</title>
<path fill="none" stroke="black" d="M837.6,-477.86C824.14,-464.71 807.02,-451.07 788.5,-443.86 760.32,-432.89 546.56,-439.1 516.5,-435.86 462.11,-429.99 401.51,-418.53 355.19,-408.71"/>
<polygon fill="black" stroke="black" points="355.75,-405.25 345.24,-406.58 354.28,-412.09 355.75,-405.25"/>
</g>
<!-- lift_measurements -->
<g id="node21" class="node">
<title>lift_measurements</title>
<ellipse fill="lightgrey" stroke="black" cx="717.5" cy="-390.38" rx="83.38" ry="37.45"/>
<text text-anchor="middle" x="717.5" y="-401.68" font-family="Times,serif" font-size="14.00">lift_measurements</text>
<text text-anchor="middle" x="717.5" y="-386.68" font-family="Times,serif" font-size="14.00">~</text>
<text text-anchor="middle" x="717.5" y="-371.68" font-family="Times,serif" font-size="14.00">Gamma</text>
</g>
<!-- saturation_lam&#45;&gt;lift_measurements -->
<g id="edge24" class="edge">
<title>saturation_lam&#45;&gt;lift_measurements</title>
<path fill="none" stroke="black" d="M831.26,-479.85C818.04,-468.3 802.76,-455.27 788.5,-443.86 782.27,-438.88 775.64,-433.75 769.03,-428.75"/>
<polygon fill="black" stroke="black" points="770.8,-425.7 760.7,-422.5 766.6,-431.3 770.8,-425.7"/>
</g>
<!-- saturation_alpha -->
<g id="node3" class="node">
<title>saturation_alpha</title>
<ellipse fill="none" stroke="black" cx="704.5" cy="-512.34" rx="74.91" ry="37.45"/>
<text text-anchor="middle" x="704.5" y="-523.64" font-family="Times,serif" font-size="14.00">saturation_alpha</text>
<text text-anchor="middle" x="704.5" y="-508.64" font-family="Times,serif" font-size="14.00">~</text>
<text text-anchor="middle" x="704.5" y="-493.64" font-family="Times,serif" font-size="14.00">Gamma</text>
</g>
<!-- saturation_alpha&#45;&gt;channel_contribution -->
<g id="edge4" class="edge">
<title>saturation_alpha&#45;&gt;channel_contribution</title>
<path fill="none" stroke="black" d="M672.76,-478.27C658.16,-465.2 639.81,-451.5 620.5,-443.86 598.95,-435.33 539.48,-438.89 516.5,-435.86 462.17,-428.69 401.44,-417.23 355.06,-407.73"/>
<polygon fill="black" stroke="black" points="355.59,-404.27 345.09,-405.68 354.17,-411.12 355.59,-404.27"/>
</g>
<!-- saturation_alpha&#45;&gt;lift_measurements -->
<g id="edge25" class="edge">
<title>saturation_alpha&#45;&gt;lift_measurements</title>
<path fill="none" stroke="black" d="M708.47,-474.69C709.72,-463.18 711.12,-450.3 712.43,-438.17"/>
<polygon fill="black" stroke="black" points="715.91,-438.53 713.51,-428.21 708.95,-437.78 715.91,-438.53"/>
</g>
<!-- channel_scale -->
<g id="node4" class="node">
<title>channel_scale</title>
<path fill="lightgrey" stroke="black" d="M449.5,-538.84C449.5,-538.84 381.5,-538.84 381.5,-538.84 375.5,-538.84 369.5,-532.84 369.5,-526.84 369.5,-526.84 369.5,-497.84 369.5,-497.84 369.5,-491.84 375.5,-485.84 381.5,-485.84 381.5,-485.84 449.5,-485.84 449.5,-485.84 455.5,-485.84 461.5,-491.84 461.5,-497.84 461.5,-497.84 461.5,-526.84 461.5,-526.84 461.5,-532.84 455.5,-538.84 449.5,-538.84"/>
<text text-anchor="middle" x="415.5" y="-523.64" font-family="Times,serif" font-size="14.00">channel_scale</text>
<text text-anchor="middle" x="415.5" y="-508.64" font-family="Times,serif" font-size="14.00">~</text>
<text text-anchor="middle" x="415.5" y="-493.64" font-family="Times,serif" font-size="14.00">Data</text>
</g>
<!-- channel_scale&#45;&gt;channel_contribution -->
<g id="edge7" class="edge">
<title>channel_scale&#45;&gt;channel_contribution</title>
<path fill="none" stroke="black" d="M396.04,-485.52C385.42,-472.29 371.59,-456.38 357.5,-443.86 349.19,-436.47 339.77,-429.3 330.43,-422.75"/>
<polygon fill="black" stroke="black" points="332.14,-419.68 321.91,-416.92 328.19,-425.46 332.14,-419.68"/>
</g>
<!-- target_scale -->
<g id="node5" class="node">
<title>target_scale</title>
<path fill="lightgrey" stroke="black" d="M888,-416.88C888,-416.88 831,-416.88 831,-416.88 825,-416.88 819,-410.88 819,-404.88 819,-404.88 819,-375.88 819,-375.88 819,-369.88 825,-363.88 831,-363.88 831,-363.88 888,-363.88 888,-363.88 894,-363.88 900,-369.88 900,-375.88 900,-375.88 900,-404.88 900,-404.88 900,-410.88 894,-416.88 888,-416.88"/>
<text text-anchor="middle" x="859.5" y="-401.68" font-family="Times,serif" font-size="14.00">target_scale</text>
<text text-anchor="middle" x="859.5" y="-386.68" font-family="Times,serif" font-size="14.00">~</text>
<text text-anchor="middle" x="859.5" y="-371.68" font-family="Times,serif" font-size="14.00">Data</text>
</g>
<!-- channel_contribution_original_scale -->
<g id="node9" class="node">
<title>channel_contribution_original_scale</title>
<polygon fill="none" stroke="black" points="345.5,-302.93 131.5,-302.93 131.5,-249.93 345.5,-249.93 345.5,-302.93"/>
<text text-anchor="middle" x="238.5" y="-287.73" font-family="Times,serif" font-size="14.00">channel_contribution_original_scale</text>
<text text-anchor="middle" x="238.5" y="-272.73" font-family="Times,serif" font-size="14.00">~</text>
<text text-anchor="middle" x="238.5" y="-257.73" font-family="Times,serif" font-size="14.00">Deterministic</text>
</g>
<!-- target_scale&#45;&gt;channel_contribution_original_scale -->
<g id="edge16" class="edge">
<title>target_scale&#45;&gt;channel_contribution_original_scale</title>
<path fill="none" stroke="black" d="M848.98,-363.81C841.28,-348.71 829.25,-330.84 812.5,-321.91 790.19,-310.01 382.47,-317.87 357.5,-313.91 345.29,-311.97 332.6,-309.07 320.24,-305.75"/>
<polygon fill="black" stroke="black" points="321,-302.33 310.42,-303 319.11,-309.07 321,-302.33"/>
</g>
<!-- total_contribution_original_scale -->
<g id="node14" class="node">
<title>total_contribution_original_scale</title>
<polygon fill="none" stroke="black" points="565.5,-302.93 369.5,-302.93 369.5,-249.93 565.5,-249.93 565.5,-302.93"/>
<text text-anchor="middle" x="467.5" y="-287.73" font-family="Times,serif" font-size="14.00">total_contribution_original_scale</text>
<text text-anchor="middle" x="467.5" y="-272.73" font-family="Times,serif" font-size="14.00">~</text>
<text text-anchor="middle" x="467.5" y="-257.73" font-family="Times,serif" font-size="14.00">Deterministic</text>
</g>
<!-- target_scale&#45;&gt;total_contribution_original_scale -->
<g id="edge18" class="edge">
<title>target_scale&#45;&gt;total_contribution_original_scale</title>
<path fill="none" stroke="black" d="M848.75,-363.56C841.03,-348.57 829.06,-330.91 812.5,-321.91 789.35,-309.32 601.42,-318.62 575.5,-313.91 564.84,-311.97 553.8,-309.19 543.03,-306.03"/>
<polygon fill="black" stroke="black" points="543.82,-302.61 533.24,-303.02 541.77,-309.3 543.82,-302.61"/>
</g>
<!-- y_original_scale -->
<g id="node15" class="node">
<title>y_original_scale</title>
<polygon fill="none" stroke="black" points="675.5,-191.98 569.5,-191.98 569.5,-138.98 675.5,-138.98 675.5,-191.98"/>
<text text-anchor="middle" x="622.5" y="-176.78" font-family="Times,serif" font-size="14.00">y_original_scale</text>
<text text-anchor="middle" x="622.5" y="-161.78" font-family="Times,serif" font-size="14.00">~</text>
<text text-anchor="middle" x="622.5" y="-146.78" font-family="Times,serif" font-size="14.00">Deterministic</text>
</g>
<!-- target_scale&#45;&gt;y_original_scale -->
<g id="edge22" class="edge">
<title>target_scale&#45;&gt;y_original_scale</title>
<path fill="none" stroke="black" d="M867.48,-363.81C877.15,-327.25 888.28,-259.95 854.5,-218.93 833.33,-193.23 746.76,-179.09 685.59,-172.15"/>
<polygon fill="black" stroke="black" points="685.95,-168.67 675.63,-171.06 685.19,-175.63 685.95,-168.67"/>
</g>
<!-- control_contribution_original_scale -->
<g id="node18" class="node">
<title>control_contribution_original_scale</title>
<polygon fill="none" stroke="black" points="1169.5,-302.93 959.5,-302.93 959.5,-249.93 1169.5,-249.93 1169.5,-302.93"/>
<text text-anchor="middle" x="1064.5" y="-287.73" font-family="Times,serif" font-size="14.00">control_contribution_original_scale</text>
<text text-anchor="middle" x="1064.5" y="-272.73" font-family="Times,serif" font-size="14.00">~</text>
<text text-anchor="middle" x="1064.5" y="-257.73" font-family="Times,serif" font-size="14.00">Deterministic</text>
</g>
<!-- target_scale&#45;&gt;control_contribution_original_scale -->
<g id="edge20" class="edge">
<title>target_scale&#45;&gt;control_contribution_original_scale</title>
<path fill="none" stroke="black" d="M888.54,-363.67C905.01,-349.99 926.48,-333.63 947.5,-321.91 957.19,-316.5 967.66,-311.49 978.23,-306.92"/>
<polygon fill="black" stroke="black" points="979.65,-310.12 987.52,-303.02 976.94,-303.66 979.65,-310.12"/>
</g>
<!-- total_contribution -->
<g id="node6" class="node">
<title>total_contribution</title>
<polygon fill="none" stroke="black" points="113,-302.93 0,-302.93 0,-249.93 113,-249.93 113,-302.93"/>
<text text-anchor="middle" x="56.5" y="-287.73" font-family="Times,serif" font-size="14.00">total_contribution</text>
<text text-anchor="middle" x="56.5" y="-272.73" font-family="Times,serif" font-size="14.00">~</text>
<text text-anchor="middle" x="56.5" y="-257.73" font-family="Times,serif" font-size="14.00">Deterministic</text>
</g>
<!-- intercept -->
<g id="node7" class="node">
<title>intercept</title>
<ellipse fill="none" stroke="black" cx="570.5" cy="-390.38" rx="45.01" ry="37.45"/>
<text text-anchor="middle" x="570.5" y="-401.68" font-family="Times,serif" font-size="14.00">intercept</text>
<text text-anchor="middle" x="570.5" y="-386.68" font-family="Times,serif" font-size="14.00">~</text>
<text text-anchor="middle" x="570.5" y="-371.68" font-family="Times,serif" font-size="14.00">Normal</text>
</g>
<!-- mu -->
<g id="node13" class="node">
<title>mu</title>
<polygon fill="none" stroke="black" points="675,-302.93 584,-302.93 584,-249.93 675,-249.93 675,-302.93"/>
<text text-anchor="middle" x="629.5" y="-287.73" font-family="Times,serif" font-size="14.00">mu</text>
<text text-anchor="middle" x="629.5" y="-272.73" font-family="Times,serif" font-size="14.00">~</text>
<text text-anchor="middle" x="629.5" y="-257.73" font-family="Times,serif" font-size="14.00">Deterministic</text>
</g>
<!-- intercept&#45;&gt;mu -->
<g id="edge11" class="edge">
<title>intercept&#45;&gt;mu</title>
<path fill="none" stroke="black" d="M588.2,-355.79C595.43,-342.08 603.78,-326.23 611.08,-312.38"/>
<polygon fill="black" stroke="black" points="614.37,-313.64 615.94,-303.16 608.18,-310.38 614.37,-313.64"/>
</g>
<!-- y_sigma -->
<g id="node8" class="node">
<title>y_sigma</title>
<ellipse fill="none" stroke="black" cx="788.5" cy="-276.43" rx="56.64" ry="37.45"/>
<text text-anchor="middle" x="788.5" y="-287.73" font-family="Times,serif" font-size="14.00">y_sigma</text>
<text text-anchor="middle" x="788.5" y="-272.73" font-family="Times,serif" font-size="14.00">~</text>
<text text-anchor="middle" x="788.5" y="-257.73" font-family="Times,serif" font-size="14.00">Halfnormal</text>
</g>
<!-- y -->
<g id="node12" class="node">
<title>y</title>
<ellipse fill="lightgrey" stroke="black" cx="468.5" cy="-165.48" rx="82.96" ry="37.45"/>
<text text-anchor="middle" x="468.5" y="-176.78" font-family="Times,serif" font-size="14.00">y</text>
<text text-anchor="middle" x="468.5" y="-161.78" font-family="Times,serif" font-size="14.00">~</text>
<text text-anchor="middle" x="468.5" y="-146.78" font-family="Times,serif" font-size="14.00">Truncated_normal</text>
</g>
<!-- y_sigma&#45;&gt;y -->
<g id="edge14" class="edge">
<title>y_sigma&#45;&gt;y</title>
<path fill="none" stroke="black" d="M757.79,-244.68C746.11,-234.79 732.09,-224.87 717.5,-218.93 652.54,-192.47 628.64,-219.59 560.5,-202.95 552.46,-200.99 544.19,-198.48 536.06,-195.69"/>
<polygon fill="black" stroke="black" points="537.2,-192.38 526.61,-192.3 534.84,-198.97 537.2,-192.38"/>
</g>
<!-- channel_contribution&#45;&gt;total_contribution -->
<g id="edge8" class="edge">
<title>channel_contribution&#45;&gt;total_contribution</title>
<path fill="none" stroke="black" d="M222.28,-363.81C191.51,-349.7 153.1,-331.52 119.5,-313.91 115.85,-311.99 112.1,-309.97 108.35,-307.91"/>
<polygon fill="black" stroke="black" points="110.05,-304.85 99.61,-303.03 106.64,-310.96 110.05,-304.85"/>
</g>
<!-- channel_contribution&#45;&gt;channel_contribution_original_scale -->
<g id="edge17" class="edge">
<title>channel_contribution&#45;&gt;channel_contribution_original_scale</title>
<path fill="none" stroke="black" d="M270.09,-363.7C264.57,-348.62 257.52,-329.35 251.47,-312.85"/>
<polygon fill="black" stroke="black" points="254.59,-311.18 247.86,-302.99 248.01,-313.59 254.59,-311.18"/>
</g>
<!-- channel_contribution&#45;&gt;mu -->
<g id="edge13" class="edge">
<title>channel_contribution&#45;&gt;mu</title>
<path fill="none" stroke="black" d="M345.03,-368.04C392.27,-353.32 457.78,-334.25 516.5,-321.91 541.97,-316.55 550.16,-323.11 574.5,-313.91 578.71,-312.31 582.93,-310.35 587.05,-308.17"/>
<polygon fill="black" stroke="black" points="588.95,-311.11 595.87,-303.1 585.46,-305.05 588.95,-311.11"/>
</g>
<!-- channel_contribution&#45;&gt;total_contribution_original_scale -->
<g id="edge19" class="edge">
<title>channel_contribution&#45;&gt;total_contribution_original_scale</title>
<path fill="none" stroke="black" d="M322.63,-363.7C350.34,-347.2 386.48,-325.68 415.73,-308.26"/>
<polygon fill="black" stroke="black" points="417.77,-311.12 424.57,-302.99 414.19,-305.1 417.77,-311.12"/>
</g>
<!-- channel_data -->
<g id="node11" class="node">
<title>channel_data</title>
<path fill="lightgrey" stroke="black" d="M311.5,-538.84C311.5,-538.84 247.5,-538.84 247.5,-538.84 241.5,-538.84 235.5,-532.84 235.5,-526.84 235.5,-526.84 235.5,-497.84 235.5,-497.84 235.5,-491.84 241.5,-485.84 247.5,-485.84 247.5,-485.84 311.5,-485.84 311.5,-485.84 317.5,-485.84 323.5,-491.84 323.5,-497.84 323.5,-497.84 323.5,-526.84 323.5,-526.84 323.5,-532.84 317.5,-538.84 311.5,-538.84"/>
<text text-anchor="middle" x="279.5" y="-523.64" font-family="Times,serif" font-size="14.00">channel_data</text>
<text text-anchor="middle" x="279.5" y="-508.64" font-family="Times,serif" font-size="14.00">~</text>
<text text-anchor="middle" x="279.5" y="-493.64" font-family="Times,serif" font-size="14.00">Data</text>
</g>
<!-- channel_data&#45;&gt;channel_contribution -->
<g id="edge5" class="edge">
<title>channel_data&#45;&gt;channel_contribution</title>
<path fill="none" stroke="black" d="M279.5,-485.6C279.5,-468.61 279.5,-446.09 279.5,-427.33"/>
<polygon fill="black" stroke="black" points="283,-427.07 279.5,-417.07 276,-427.07 283,-427.07"/>
</g>
<!-- y&#45;&gt;target_scale -->
<g id="edge1" class="edge">
<title>y&#45;&gt;target_scale</title>
<path fill="none" stroke="black" d="M527.16,-192.24C538.09,-196.32 549.52,-200.12 560.5,-202.95 587.4,-209.9 662.54,-201.91 684.5,-218.93 720.44,-246.78 686.02,-286.78 722.5,-313.91 738.61,-325.89 795.13,-311.83 812.5,-321.91 825.62,-329.51 835.94,-342.43 843.53,-354.93"/>
<polygon fill="black" stroke="black" points="840.62,-356.89 848.58,-363.88 846.72,-353.45 840.62,-356.89"/>
</g>
<!-- target_data -->
<g id="node16" class="node">
<title>target_data</title>
<path fill="lightgrey" stroke="black" d="M495,-92C495,-92 442,-92 442,-92 436,-92 430,-86 430,-80 430,-80 430,-51 430,-51 430,-45 436,-39 442,-39 442,-39 495,-39 495,-39 501,-39 507,-45 507,-51 507,-51 507,-80 507,-80 507,-86 501,-92 495,-92"/>
<text text-anchor="middle" x="468.5" y="-76.8" font-family="Times,serif" font-size="14.00">target_data</text>
<text text-anchor="middle" x="468.5" y="-61.8" font-family="Times,serif" font-size="14.00">~</text>
<text text-anchor="middle" x="468.5" y="-46.8" font-family="Times,serif" font-size="14.00">Data</text>
</g>
<!-- y&#45;&gt;target_data -->
<g id="edge2" class="edge">
<title>y&#45;&gt;target_data</title>
<path fill="none" stroke="black" d="M468.5,-127.99C468.5,-119.58 468.5,-110.63 468.5,-102.25"/>
<polygon fill="black" stroke="black" points="472,-102.01 468.5,-92.01 465,-102.01 472,-102.01"/>
</g>
<!-- mu&#45;&gt;y -->
<g id="edge15" class="edge">
<title>mu&#45;&gt;y</title>
<path fill="none" stroke="black" d="M608.12,-249.91C598.54,-239.47 586.67,-227.79 574.5,-218.93 563.08,-210.62 550.14,-202.98 537.32,-196.26"/>
<polygon fill="black" stroke="black" points="538.54,-192.95 528.04,-191.54 535.36,-199.19 538.54,-192.95"/>
</g>
<!-- mu&#45;&gt;y_original_scale -->
<g id="edge23" class="edge">
<title>mu&#45;&gt;y_original_scale</title>
<path fill="none" stroke="black" d="M627.86,-249.89C626.95,-235.78 625.81,-218.03 624.82,-202.53"/>
<polygon fill="black" stroke="black" points="628.29,-201.99 624.16,-192.24 621.3,-202.44 628.29,-201.99"/>
</g>
<!-- gamma_control -->
<g id="node17" class="node">
<title>gamma_control</title>
<ellipse fill="none" stroke="black" cx="1266.5" cy="-512.34" rx="72.66" ry="37.45"/>
<text text-anchor="middle" x="1266.5" y="-523.64" font-family="Times,serif" font-size="14.00">gamma_control</text>
<text text-anchor="middle" x="1266.5" y="-508.64" font-family="Times,serif" font-size="14.00">~</text>
<text text-anchor="middle" x="1266.5" y="-493.64" font-family="Times,serif" font-size="14.00">Normal</text>
</g>
<!-- control_contribution -->
<g id="node19" class="node">
<title>control_contribution</title>
<polygon fill="none" stroke="black" points="1128.5,-416.88 1000.5,-416.88 1000.5,-363.88 1128.5,-363.88 1128.5,-416.88"/>
<text text-anchor="middle" x="1064.5" y="-401.68" font-family="Times,serif" font-size="14.00">control_contribution</text>
<text text-anchor="middle" x="1064.5" y="-386.68" font-family="Times,serif" font-size="14.00">~</text>
<text text-anchor="middle" x="1064.5" y="-371.68" font-family="Times,serif" font-size="14.00">Deterministic</text>
</g>
<!-- gamma_control&#45;&gt;control_contribution -->
<g id="edge9" class="edge">
<title>gamma_control&#45;&gt;control_contribution</title>
<path fill="none" stroke="black" d="M1230.73,-479.67C1216.07,-467.59 1198.57,-454.24 1181.5,-443.86 1167.8,-435.53 1152.54,-427.73 1137.69,-420.82"/>
<polygon fill="black" stroke="black" points="1139.06,-417.6 1128.51,-416.64 1136.16,-423.97 1139.06,-417.6"/>
</g>
<!-- control_contribution&#45;&gt;mu -->
<g id="edge12" class="edge">
<title>control_contribution&#45;&gt;mu</title>
<path fill="none" stroke="black" d="M1018.22,-363.87C988.19,-348.68 947.68,-330.71 909.5,-321.91 828.44,-303.21 803.89,-331.11 722.5,-313.91 710.05,-311.28 697.09,-307.15 684.95,-302.62"/>
<polygon fill="black" stroke="black" points="685.99,-299.27 675.4,-298.91 683.46,-305.79 685.99,-299.27"/>
</g>
<!-- control_contribution&#45;&gt;control_contribution_original_scale -->
<g id="edge21" class="edge">
<title>control_contribution&#45;&gt;control_contribution_original_scale</title>
<path fill="none" stroke="black" d="M1064.5,-363.7C1064.5,-348.77 1064.5,-329.72 1064.5,-313.32"/>
<polygon fill="black" stroke="black" points="1068,-312.99 1064.5,-302.99 1061,-312.99 1068,-312.99"/>
</g>
<!-- control_data -->
<g id="node20" class="node">
<title>control_data</title>
<path fill="lightgrey" stroke="black" d="M1094.5,-538.84C1094.5,-538.84 1034.5,-538.84 1034.5,-538.84 1028.5,-538.84 1022.5,-532.84 1022.5,-526.84 1022.5,-526.84 1022.5,-497.84 1022.5,-497.84 1022.5,-491.84 1028.5,-485.84 1034.5,-485.84 1034.5,-485.84 1094.5,-485.84 1094.5,-485.84 1100.5,-485.84 1106.5,-491.84 1106.5,-497.84 1106.5,-497.84 1106.5,-526.84 1106.5,-526.84 1106.5,-532.84 1100.5,-538.84 1094.5,-538.84"/>
<text text-anchor="middle" x="1064.5" y="-523.64" font-family="Times,serif" font-size="14.00">control_data</text>
<text text-anchor="middle" x="1064.5" y="-508.64" font-family="Times,serif" font-size="14.00">~</text>
<text text-anchor="middle" x="1064.5" y="-493.64" font-family="Times,serif" font-size="14.00">Data</text>
</g>
<!-- control_data&#45;&gt;control_contribution -->
<g id="edge10" class="edge">
<title>control_data&#45;&gt;control_contribution</title>
<path fill="none" stroke="black" d="M1064.5,-485.6C1064.5,-468.61 1064.5,-446.09 1064.5,-427.33"/>
<polygon fill="black" stroke="black" points="1068,-427.07 1064.5,-417.07 1061,-427.07 1068,-427.07"/>
</g>
</g>
</svg>
