<?xml version="1.0" encoding="UTF-8" standalone="no"?>
<!DOCTYPE svg PUBLIC "-//W3C//DTD SVG 1.1//EN"
 "http://www.w3.org/Graphics/SVG/1.1/DTD/svg11.dtd">
<!-- Generated by graphviz version 12.2.1 (0)
 -->
<!-- Pages: 1 -->
<svg width="1771pt" height="596pt"
 viewBox="0.00 0.00 1771.00 595.77" xmlns="http://www.w3.org/2000/svg" xmlns:xlink="http://www.w3.org/1999/xlink">
<g id="graph0" class="graph" transform="scale(1 1) rotate(0) translate(4 591.77)">
<polygon fill="white" stroke="none" points="-4,4 -4,-591.77 1767,-591.77 1767,4 -4,4"/>
<g id="clust1" class="cluster">
<title>clusterchannel (4)</title>
<path fill="none" stroke="black" d="M20,-457.95C20,-457.95 575,-457.95 575,-457.95 581,-457.95 587,-463.95 587,-469.95 587,-469.95 587,-567.77 587,-567.77 587,-573.77 581,-579.77 575,-579.77 575,-579.77 20,-579.77 20,-579.77 14,-579.77 8,-573.77 8,-567.77 8,-567.77 8,-469.95 8,-469.95 8,-463.95 14,-457.95 20,-457.95"/>
<text text-anchor="middle" x="548.25" y="-465.15" font-family="Times,serif" font-size="14.00">channel (4)</text>
</g>
<g id="clust2" class="cluster">
<title>clusterdate (879) x channel (4)</title>
<path fill="none" stroke="black" d="M607,-230.73C607,-230.73 813,-230.73 813,-230.73 819,-230.73 825,-236.73 825,-242.73 825,-242.73 825,-555.86 825,-555.86 825,-561.86 819,-567.86 813,-567.86 813,-567.86 607,-567.86 607,-567.86 601,-567.86 595,-561.86 595,-555.86 595,-555.86 595,-242.73 595,-242.73 595,-236.73 601,-230.73 607,-230.73"/>
<text text-anchor="middle" x="751.38" y="-237.93" font-family="Times,serif" font-size="14.00">date (879) x channel (4)</text>
</g>
<g id="clust3" class="cluster">
<title>clusterdate (879)</title>
<path fill="none" stroke="black" d="M845,-8C845,-8 1141,-8 1141,-8 1147,-8 1153,-14 1153,-20 1153,-20 1153,-316.73 1153,-316.73 1153,-322.73 1147,-328.73 1141,-328.73 1141,-328.73 845,-328.73 845,-328.73 839,-328.73 833,-322.73 833,-316.73 833,-316.73 833,-20 833,-20 833,-14 839,-8 845,-8"/>
<text text-anchor="middle" x="1117.25" y="-15.2" font-family="Times,serif" font-size="14.00">date (879)</text>
</g>
<g id="clust4" class="cluster">
<title>clustercontrol (6)</title>
<path fill="none" stroke="black" d="M1607,-457.95C1607,-457.95 1743,-457.95 1743,-457.95 1749,-457.95 1755,-463.95 1755,-469.95 1755,-469.95 1755,-567.77 1755,-567.77 1755,-573.77 1749,-579.77 1743,-579.77 1743,-579.77 1607,-579.77 1607,-579.77 1601,-579.77 1595,-573.77 1595,-567.77 1595,-567.77 1595,-469.95 1595,-469.95 1595,-463.95 1601,-457.95 1607,-457.95"/>
<text text-anchor="middle" x="1718.12" y="-465.15" font-family="Times,serif" font-size="14.00">control (6)</text>
</g>
<g id="clust5" class="cluster">
<title>clusterdate (879) x control (6)</title>
<path fill="none" stroke="black" d="M1373,-230.73C1373,-230.73 1575,-230.73 1575,-230.73 1581,-230.73 1587,-236.73 1587,-242.73 1587,-242.73 1587,-555.86 1587,-555.86 1587,-561.86 1581,-567.86 1575,-567.86 1575,-567.86 1373,-567.86 1373,-567.86 1367,-567.86 1361,-561.86 1361,-555.86 1361,-555.86 1361,-242.73 1361,-242.73 1361,-236.73 1367,-230.73 1373,-230.73"/>
<text text-anchor="middle" x="1515.25" y="-237.93" font-family="Times,serif" font-size="14.00">date (879) x control (6)</text>
</g>
<!-- channel_scale -->
<g id="node1" class="node">
<title>channel_scale</title>
<path fill="lightgrey" stroke="black" d="M416.88,-559.86C416.88,-559.86 349.12,-559.86 349.12,-559.86 343.12,-559.86 337.12,-553.86 337.12,-547.86 337.12,-547.86 337.12,-514.36 337.12,-514.36 337.12,-508.36 343.12,-502.36 349.12,-502.36 349.12,-502.36 416.88,-502.36 416.88,-502.36 422.88,-502.36 428.88,-508.36 428.88,-514.36 428.88,-514.36 428.88,-547.86 428.88,-547.86 428.88,-553.86 422.88,-559.86 416.88,-559.86"/>
<text text-anchor="middle" x="383" y="-542.56" font-family="Times,serif" font-size="14.00">channel_scale</text>
<text text-anchor="middle" x="383" y="-526.06" font-family="Times,serif" font-size="14.00">~</text>
<text text-anchor="middle" x="383" y="-509.56" font-family="Times,serif" font-size="14.00">Data</text>
</g>
<!-- channel_contribution -->
<g id="node10" class="node">
<title>channel_contribution</title>
<polygon fill="none" stroke="black" points="733.38,-438.04 602.62,-438.04 602.62,-380.54 733.38,-380.54 733.38,-438.04"/>
<text text-anchor="middle" x="668" y="-420.74" font-family="Times,serif" font-size="14.00">channel_contribution</text>
<text text-anchor="middle" x="668" y="-404.24" font-family="Times,serif" font-size="14.00">~</text>
<text text-anchor="middle" x="668" y="-387.74" font-family="Times,serif" font-size="14.00">Deterministic</text>
</g>
<!-- channel_scale&#45;&gt;channel_contribution -->
<g id="edge6" class="edge">
<title>channel_scale&#45;&gt;channel_contribution</title>
<path fill="none" stroke="black" d="M397.7,-502.09C407.19,-486.73 420.94,-468.69 438,-457.95 483.67,-429.2 543.58,-417.44 590.81,-412.78"/>
<polygon fill="black" stroke="black" points="591.06,-416.27 600.71,-411.91 590.44,-409.3 591.06,-416.27"/>
</g>
<!-- adstock_alpha -->
<g id="node2" class="node">
<title>adstock_alpha</title>
<ellipse fill="none" stroke="black" cx="513" cy="-531.11" rx="65.94" ry="40.66"/>
<text text-anchor="middle" x="513" y="-542.56" font-family="Times,serif" font-size="14.00">adstock_alpha</text>
<text text-anchor="middle" x="513" y="-526.06" font-family="Times,serif" font-size="14.00">~</text>
<text text-anchor="middle" x="513" y="-509.56" font-family="Times,serif" font-size="14.00">Beta</text>
</g>
<!-- adstock_alpha&#45;&gt;channel_contribution -->
<g id="edge4" class="edge">
<title>adstock_alpha&#45;&gt;channel_contribution</title>
<path fill="none" stroke="black" d="M547.08,-495.92C560.3,-483.38 575.88,-469.46 591,-457.95 596.97,-453.41 603.39,-448.91 609.88,-444.59"/>
<polygon fill="black" stroke="black" points="611.65,-447.61 618.13,-439.22 607.84,-441.74 611.65,-447.61"/>
</g>
<!-- saturation_alpha -->
<g id="node3" class="node">
<title>saturation_alpha</title>
<ellipse fill="none" stroke="black" cx="90" cy="-531.11" rx="74.42" ry="40.66"/>
<text text-anchor="middle" x="90" y="-542.56" font-family="Times,serif" font-size="14.00">saturation_alpha</text>
<text text-anchor="middle" x="90" y="-526.06" font-family="Times,serif" font-size="14.00">~</text>
<text text-anchor="middle" x="90" y="-509.56" font-family="Times,serif" font-size="14.00">Gamma</text>
</g>
<!-- saturation_alpha&#45;&gt;channel_contribution -->
<g id="edge5" class="edge">
<title>saturation_alpha&#45;&gt;channel_contribution</title>
<path fill="none" stroke="black" d="M121.76,-494.18C135.99,-480.47 153.88,-466.17 173,-457.95 246.19,-426.5 471.1,-415.63 590.95,-412.01"/>
<polygon fill="black" stroke="black" points="590.8,-415.51 600.69,-411.73 590.6,-408.52 590.8,-415.51"/>
</g>
<!-- saturation_lam -->
<g id="node4" class="node">
<title>saturation_lam</title>
<ellipse fill="none" stroke="black" cx="251" cy="-531.11" rx="68.59" ry="40.66"/>
<text text-anchor="middle" x="251" y="-542.56" font-family="Times,serif" font-size="14.00">saturation_lam</text>
<text text-anchor="middle" x="251" y="-526.06" font-family="Times,serif" font-size="14.00">~</text>
<text text-anchor="middle" x="251" y="-509.56" font-family="Times,serif" font-size="14.00">Gamma</text>
</g>
<!-- saturation_lam&#45;&gt;channel_contribution -->
<g id="edge7" class="edge">
<title>saturation_lam&#45;&gt;channel_contribution</title>
<path fill="none" stroke="black" d="M280.55,-494.2C293.66,-480.67 310.15,-466.49 328,-457.95 373.16,-436.35 505.41,-422.58 591.04,-415.66"/>
<polygon fill="black" stroke="black" points="591.08,-419.17 600.77,-414.89 590.53,-412.19 591.08,-419.17"/>
</g>
<!-- target_scale -->
<g id="node5" class="node">
<title>target_scale</title>
<path fill="lightgrey" stroke="black" d="M1216.25,-438.04C1216.25,-438.04 1159.75,-438.04 1159.75,-438.04 1153.75,-438.04 1147.75,-432.04 1147.75,-426.04 1147.75,-426.04 1147.75,-392.54 1147.75,-392.54 1147.75,-386.54 1153.75,-380.54 1159.75,-380.54 1159.75,-380.54 1216.25,-380.54 1216.25,-380.54 1222.25,-380.54 1228.25,-386.54 1228.25,-392.54 1228.25,-392.54 1228.25,-426.04 1228.25,-426.04 1228.25,-432.04 1222.25,-438.04 1216.25,-438.04"/>
<text text-anchor="middle" x="1188" y="-420.74" font-family="Times,serif" font-size="14.00">target_scale</text>
<text text-anchor="middle" x="1188" y="-404.24" font-family="Times,serif" font-size="14.00">~</text>
<text text-anchor="middle" x="1188" y="-387.74" font-family="Times,serif" font-size="14.00">Data</text>
</g>
<!-- channel_contribution_original_scale -->
<g id="node11" class="node">
<title>channel_contribution_original_scale</title>
<polygon fill="none" stroke="black" points="816.62,-320.73 603.38,-320.73 603.38,-263.23 816.62,-263.23 816.62,-320.73"/>
<text text-anchor="middle" x="710" y="-303.43" font-family="Times,serif" font-size="14.00">channel_contribution_original_scale</text>
<text text-anchor="middle" x="710" y="-286.93" font-family="Times,serif" font-size="14.00">~</text>
<text text-anchor="middle" x="710" y="-270.43" font-family="Times,serif" font-size="14.00">Deterministic</text>
</g>
<!-- target_scale&#45;&gt;channel_contribution_original_scale -->
<g id="edge16" class="edge">
<title>target_scale&#45;&gt;channel_contribution_original_scale</title>
<path fill="none" stroke="black" d="M1158.63,-380.21C1152.53,-375.67 1145.86,-371.52 1139,-368.63 1011.14,-314.87 964.4,-362.72 829,-332.63 818.74,-330.36 808.13,-327.53 797.65,-324.44"/>
<polygon fill="black" stroke="black" points="798.84,-321.14 788.25,-321.58 796.8,-327.84 798.84,-321.14"/>
</g>
<!-- total_contribution_original_scale -->
<g id="node13" class="node">
<title>total_contribution_original_scale</title>
<polygon fill="none" stroke="black" points="1036.62,-320.73 841.38,-320.73 841.38,-263.23 1036.62,-263.23 1036.62,-320.73"/>
<text text-anchor="middle" x="939" y="-303.43" font-family="Times,serif" font-size="14.00">total_contribution_original_scale</text>
<text text-anchor="middle" x="939" y="-286.93" font-family="Times,serif" font-size="14.00">~</text>
<text text-anchor="middle" x="939" y="-270.43" font-family="Times,serif" font-size="14.00">Deterministic</text>
</g>
<!-- target_scale&#45;&gt;total_contribution_original_scale -->
<g id="edge18" class="edge">
<title>target_scale&#45;&gt;total_contribution_original_scale</title>
<path fill="none" stroke="black" d="M1156.1,-380.1C1150.6,-375.95 1144.79,-371.96 1139,-368.63 1133.52,-365.49 1077.32,-344.3 1025.89,-325.14"/>
<polygon fill="black" stroke="black" points="1027.36,-321.95 1016.77,-321.74 1024.92,-328.51 1027.36,-321.95"/>
</g>
<!-- y_original_scale -->
<g id="node16" class="node">
<title>y_original_scale</title>
<polygon fill="none" stroke="black" points="962.62,-203.41 857.38,-203.41 857.38,-145.91 962.62,-145.91 962.62,-203.41"/>
<text text-anchor="middle" x="910" y="-186.11" font-family="Times,serif" font-size="14.00">y_original_scale</text>
<text text-anchor="middle" x="910" y="-169.61" font-family="Times,serif" font-size="14.00">~</text>
<text text-anchor="middle" x="910" y="-153.11" font-family="Times,serif" font-size="14.00">Deterministic</text>
</g>
<!-- target_scale&#45;&gt;y_original_scale -->
<g id="edge22" class="edge">
<title>target_scale&#45;&gt;y_original_scale</title>
<path fill="none" stroke="black" d="M1186.63,-380.11C1183.81,-335.14 1175.69,-250.26 1154,-230.73 1123.84,-203.57 1010.44,-228.35 972,-215.32 967.24,-213.7 962.48,-211.65 957.84,-209.33"/>
<polygon fill="black" stroke="black" points="959.67,-206.35 949.21,-204.62 956.31,-212.49 959.67,-206.35"/>
</g>
<!-- control_contribution_original_scale -->
<g id="node18" class="node">
<title>control_contribution_original_scale</title>
<polygon fill="none" stroke="black" points="1578.75,-320.73 1369.25,-320.73 1369.25,-263.23 1578.75,-263.23 1578.75,-320.73"/>
<text text-anchor="middle" x="1474" y="-303.43" font-family="Times,serif" font-size="14.00">control_contribution_original_scale</text>
<text text-anchor="middle" x="1474" y="-286.93" font-family="Times,serif" font-size="14.00">~</text>
<text text-anchor="middle" x="1474" y="-270.43" font-family="Times,serif" font-size="14.00">Deterministic</text>
</g>
<!-- target_scale&#45;&gt;control_contribution_original_scale -->
<g id="edge21" class="edge">
<title>target_scale&#45;&gt;control_contribution_original_scale</title>
<path fill="none" stroke="black" d="M1228.67,-391.89C1271.4,-374.67 1339.71,-347.12 1393.41,-325.47"/>
<polygon fill="black" stroke="black" points="1394.58,-328.77 1402.54,-321.79 1391.96,-322.28 1394.58,-328.77"/>
</g>
<!-- total_contribution -->
<g id="node6" class="node">
<title>total_contribution</title>
<polygon fill="none" stroke="black" points="585.38,-320.73 472.62,-320.73 472.62,-263.23 585.38,-263.23 585.38,-320.73"/>
<text text-anchor="middle" x="529" y="-303.43" font-family="Times,serif" font-size="14.00">total_contribution</text>
<text text-anchor="middle" x="529" y="-286.93" font-family="Times,serif" font-size="14.00">~</text>
<text text-anchor="middle" x="529" y="-270.43" font-family="Times,serif" font-size="14.00">Deterministic</text>
</g>
<!-- intercept -->
<g id="node7" class="node">
<title>intercept</title>
<ellipse fill="none" stroke="black" cx="1085" cy="-409.29" rx="44.72" ry="40.66"/>
<text text-anchor="middle" x="1085" y="-420.74" font-family="Times,serif" font-size="14.00">intercept</text>
<text text-anchor="middle" x="1085" y="-404.24" font-family="Times,serif" font-size="14.00">~</text>
<text text-anchor="middle" x="1085" y="-387.74" font-family="Times,serif" font-size="14.00">Normal</text>
</g>
<!-- mu -->
<g id="node15" class="node">
<title>mu</title>
<polygon fill="none" stroke="black" points="1145.12,-320.73 1054.88,-320.73 1054.88,-263.23 1145.12,-263.23 1145.12,-320.73"/>
<text text-anchor="middle" x="1100" y="-303.43" font-family="Times,serif" font-size="14.00">mu</text>
<text text-anchor="middle" x="1100" y="-286.93" font-family="Times,serif" font-size="14.00">~</text>
<text text-anchor="middle" x="1100" y="-270.43" font-family="Times,serif" font-size="14.00">Deterministic</text>
</g>
<!-- intercept&#45;&gt;mu -->
<g id="edge13" class="edge">
<title>intercept&#45;&gt;mu</title>
<path fill="none" stroke="black" d="M1090.16,-368.61C1091.69,-356.88 1093.36,-344.05 1094.88,-332.34"/>
<polygon fill="black" stroke="black" points="1098.33,-332.96 1096.15,-322.59 1091.39,-332.06 1098.33,-332.96"/>
</g>
<!-- y_sigma -->
<g id="node8" class="node">
<title>y_sigma</title>
<ellipse fill="none" stroke="black" cx="1295" cy="-291.98" rx="55.86" ry="40.66"/>
<text text-anchor="middle" x="1295" y="-303.43" font-family="Times,serif" font-size="14.00">y_sigma</text>
<text text-anchor="middle" x="1295" y="-286.93" font-family="Times,serif" font-size="14.00">~</text>
<text text-anchor="middle" x="1295" y="-270.43" font-family="Times,serif" font-size="14.00">Halfnormal</text>
</g>
<!-- y -->
<g id="node12" class="node">
<title>y</title>
<ellipse fill="lightgrey" stroke="black" cx="1063" cy="-174.66" rx="82.38" ry="40.66"/>
<text text-anchor="middle" x="1063" y="-186.11" font-family="Times,serif" font-size="14.00">y</text>
<text text-anchor="middle" x="1063" y="-169.61" font-family="Times,serif" font-size="14.00">~</text>
<text text-anchor="middle" x="1063" y="-153.11" font-family="Times,serif" font-size="14.00">Truncated_normal</text>
</g>
<!-- y_sigma&#45;&gt;y -->
<g id="edge14" class="edge">
<title>y_sigma&#45;&gt;y</title>
<path fill="none" stroke="black" d="M1262.46,-258.43C1251.27,-248.53 1238.23,-238.28 1225,-230.73 1200.97,-216.99 1172.96,-205.96 1147.07,-197.48"/>
<polygon fill="black" stroke="black" points="1148.15,-194.15 1137.56,-194.46 1146.03,-200.82 1148.15,-194.15"/>
</g>
<!-- channel_data -->
<g id="node9" class="node">
<title>channel_data</title>
<path fill="lightgrey" stroke="black" d="M699.62,-559.86C699.62,-559.86 636.38,-559.86 636.38,-559.86 630.38,-559.86 624.38,-553.86 624.38,-547.86 624.38,-547.86 624.38,-514.36 624.38,-514.36 624.38,-508.36 630.38,-502.36 636.38,-502.36 636.38,-502.36 699.62,-502.36 699.62,-502.36 705.62,-502.36 711.62,-508.36 711.62,-514.36 711.62,-514.36 711.62,-547.86 711.62,-547.86 711.62,-553.86 705.62,-559.86 699.62,-559.86"/>
<text text-anchor="middle" x="668" y="-542.56" font-family="Times,serif" font-size="14.00">channel_data</text>
<text text-anchor="middle" x="668" y="-526.06" font-family="Times,serif" font-size="14.00">~</text>
<text text-anchor="middle" x="668" y="-509.56" font-family="Times,serif" font-size="14.00">Data</text>
</g>
<!-- channel_data&#45;&gt;channel_contribution -->
<g id="edge3" class="edge">
<title>channel_data&#45;&gt;channel_contribution</title>
<path fill="none" stroke="black" d="M668,-502.02C668,-486.4 668,-466.7 668,-449.58"/>
<polygon fill="black" stroke="black" points="671.5,-449.72 668,-439.72 664.5,-449.72 671.5,-449.72"/>
</g>
<!-- channel_contribution&#45;&gt;total_contribution -->
<g id="edge8" class="edge">
<title>channel_contribution&#45;&gt;total_contribution</title>
<path fill="none" stroke="black" d="M634,-380.08C615.09,-364.4 591.4,-344.75 571.31,-328.08"/>
<polygon fill="black" stroke="black" points="573.75,-325.55 563.82,-321.86 569.28,-330.94 573.75,-325.55"/>
</g>
<!-- channel_contribution&#45;&gt;channel_contribution_original_scale -->
<g id="edge17" class="edge">
<title>channel_contribution&#45;&gt;channel_contribution_original_scale</title>
<path fill="none" stroke="black" d="M678.27,-380.08C683.6,-365.46 690.19,-347.37 695.98,-331.48"/>
<polygon fill="black" stroke="black" points="699.18,-332.91 699.31,-322.32 692.6,-330.52 699.18,-332.91"/>
</g>
<!-- channel_contribution&#45;&gt;total_contribution_original_scale -->
<g id="edge19" class="edge">
<title>channel_contribution&#45;&gt;total_contribution_original_scale</title>
<path fill="none" stroke="black" d="M733.6,-380.38C772.51,-363.82 822.01,-342.76 862.66,-325.46"/>
<polygon fill="black" stroke="black" points="863.84,-328.76 871.67,-321.63 861.1,-322.32 863.84,-328.76"/>
</g>
<!-- channel_contribution&#45;&gt;mu -->
<g id="edge12" class="edge">
<title>channel_contribution&#45;&gt;mu</title>
<path fill="none" stroke="black" d="M733.79,-403.8C811.32,-396.58 942.67,-378.22 1046,-332.63 1049.57,-331.06 1053.13,-329.22 1056.62,-327.21"/>
<polygon fill="black" stroke="black" points="1058.34,-330.26 1064.95,-321.97 1054.62,-324.33 1058.34,-330.26"/>
</g>
<!-- y&#45;&gt;target_scale -->
<g id="edge1" class="edge">
<title>y&#45;&gt;target_scale</title>
<path fill="none" stroke="black" d="M1137.16,-192.71C1156.62,-200.91 1175.4,-212.98 1187,-230.73 1213.96,-271.94 1207.66,-330.85 1199.12,-369.33"/>
<polygon fill="black" stroke="black" points="1195.82,-368.08 1196.9,-378.62 1202.63,-369.71 1195.82,-368.08"/>
</g>
<!-- target_data -->
<g id="node14" class="node">
<title>target_data</title>
<path fill="lightgrey" stroke="black" d="M1089,-98C1089,-98 1037,-98 1037,-98 1031,-98 1025,-92 1025,-86 1025,-86 1025,-52.5 1025,-52.5 1025,-46.5 1031,-40.5 1037,-40.5 1037,-40.5 1089,-40.5 1089,-40.5 1095,-40.5 1101,-46.5 1101,-52.5 1101,-52.5 1101,-86 1101,-86 1101,-92 1095,-98 1089,-98"/>
<text text-anchor="middle" x="1063" y="-80.7" font-family="Times,serif" font-size="14.00">target_data</text>
<text text-anchor="middle" x="1063" y="-64.2" font-family="Times,serif" font-size="14.00">~</text>
<text text-anchor="middle" x="1063" y="-47.7" font-family="Times,serif" font-size="14.00">Data</text>
</g>
<!-- y&#45;&gt;target_data -->
<g id="edge2" class="edge">
<title>y&#45;&gt;target_data</title>
<path fill="none" stroke="black" d="M1063,-133.68C1063,-125.83 1063,-117.6 1063,-109.76"/>
<polygon fill="black" stroke="black" points="1066.5,-109.79 1063,-99.79 1059.5,-109.79 1066.5,-109.79"/>
</g>
<!-- mu&#45;&gt;y -->
<g id="edge15" class="edge">
<title>mu&#45;&gt;y</title>
<path fill="none" stroke="black" d="M1090.95,-262.77C1087.37,-251.63 1083.16,-238.48 1079.1,-225.83"/>
<polygon fill="black" stroke="black" points="1082.44,-224.79 1076.05,-216.34 1075.77,-226.93 1082.44,-224.79"/>
</g>
<!-- mu&#45;&gt;y_original_scale -->
<g id="edge23" class="edge">
<title>mu&#45;&gt;y_original_scale</title>
<path fill="none" stroke="black" d="M1081.15,-263C1071.89,-251.32 1059.75,-238.65 1046,-230.73 1016.89,-213.96 1003.11,-228 972,-215.32 967.67,-213.55 963.32,-211.48 959.03,-209.23"/>
<polygon fill="black" stroke="black" points="960.95,-206.3 950.52,-204.45 957.52,-212.4 960.95,-206.3"/>
</g>
<!-- gamma_control -->
<g id="node17" class="node">
<title>gamma_control</title>
<ellipse fill="none" stroke="black" cx="1675" cy="-531.11" rx="72.3" ry="40.66"/>
<text text-anchor="middle" x="1675" y="-542.56" font-family="Times,serif" font-size="14.00">gamma_control</text>
<text text-anchor="middle" x="1675" y="-526.06" font-family="Times,serif" font-size="14.00">~</text>
<text text-anchor="middle" x="1675" y="-509.56" font-family="Times,serif" font-size="14.00">Normal</text>
</g>
<!-- control_contribution -->
<g id="node19" class="node">
<title>control_contribution</title>
<polygon fill="none" stroke="black" points="1537.5,-438.04 1410.5,-438.04 1410.5,-380.54 1537.5,-380.54 1537.5,-438.04"/>
<text text-anchor="middle" x="1474" y="-420.74" font-family="Times,serif" font-size="14.00">control_contribution</text>
<text text-anchor="middle" x="1474" y="-404.24" font-family="Times,serif" font-size="14.00">~</text>
<text text-anchor="middle" x="1474" y="-387.74" font-family="Times,serif" font-size="14.00">Deterministic</text>
</g>
<!-- gamma_control&#45;&gt;control_contribution -->
<g id="edge9" class="edge">
<title>gamma_control&#45;&gt;control_contribution</title>
<path fill="none" stroke="black" d="M1639.78,-495.39C1625.45,-482.5 1608.23,-468.47 1591,-457.95 1577.75,-449.86 1562.87,-442.59 1548.29,-436.32"/>
<polygon fill="black" stroke="black" points="1549.72,-433.13 1539.14,-432.51 1547.03,-439.59 1549.72,-433.13"/>
</g>
<!-- control_contribution&#45;&gt;mu -->
<g id="edge11" class="edge">
<title>control_contribution&#45;&gt;mu</title>
<path fill="none" stroke="black" d="M1410.13,-388.6C1338.79,-366.6 1224.4,-331.33 1156.29,-310.33"/>
<polygon fill="black" stroke="black" points="1157.39,-307.01 1146.81,-307.41 1155.33,-313.7 1157.39,-307.01"/>
</g>
<!-- control_contribution&#45;&gt;control_contribution_original_scale -->
<g id="edge20" class="edge">
<title>control_contribution&#45;&gt;control_contribution_original_scale</title>
<path fill="none" stroke="black" d="M1474,-380.08C1474,-365.74 1474,-348.07 1474,-332.4"/>
<polygon fill="black" stroke="black" points="1477.5,-332.41 1474,-322.41 1470.5,-332.41 1477.5,-332.41"/>
</g>
<!-- control_data -->
<g id="node20" class="node">
<title>control_data</title>
<path fill="lightgrey" stroke="black" d="M1503.75,-559.86C1503.75,-559.86 1444.25,-559.86 1444.25,-559.86 1438.25,-559.86 1432.25,-553.86 1432.25,-547.86 1432.25,-547.86 1432.25,-514.36 1432.25,-514.36 1432.25,-508.36 1438.25,-502.36 1444.25,-502.36 1444.25,-502.36 1503.75,-502.36 1503.75,-502.36 1509.75,-502.36 1515.75,-508.36 1515.75,-514.36 1515.75,-514.36 1515.75,-547.86 1515.75,-547.86 1515.75,-553.86 1509.75,-559.86 1503.75,-559.86"/>
<text text-anchor="middle" x="1474" y="-542.56" font-family="Times,serif" font-size="14.00">control_data</text>
<text text-anchor="middle" x="1474" y="-526.06" font-family="Times,serif" font-size="14.00">~</text>
<text text-anchor="middle" x="1474" y="-509.56" font-family="Times,serif" font-size="14.00">Data</text>
</g>
<!-- control_data&#45;&gt;control_contribution -->
<g id="edge10" class="edge">
<title>control_data&#45;&gt;control_contribution</title>
<path fill="none" stroke="black" d="M1474,-502.02C1474,-486.4 1474,-466.7 1474,-449.58"/>
<polygon fill="black" stroke="black" points="1477.5,-449.72 1474,-439.72 1470.5,-449.72 1477.5,-449.72"/>
</g>
</g>
</svg>
