<?xml version="1.0" encoding="UTF-8" standalone="no"?>
<!DOCTYPE svg PUBLIC "-//W3C//DTD SVG 1.1//EN"
 "http://www.w3.org/Graphics/SVG/1.1/DTD/svg11.dtd">
<!-- Generated by graphviz version 12.2.1 (0)
 -->
<!-- Pages: 1 -->
<svg width="1108pt" height="596pt"
 viewBox="0.00 0.00 1107.98 595.77" xmlns="http://www.w3.org/2000/svg" xmlns:xlink="http://www.w3.org/1999/xlink">
<g id="graph0" class="graph" transform="scale(1 1) rotate(0) translate(4 591.77)">
<polygon fill="white" stroke="none" points="-4,4 -4,-591.77 1103.98,-591.77 1103.98,4 -4,4"/>
<g id="clust1" class="cluster">
<title>clusterdate (879) x channel (4)</title>
<path fill="none" stroke="black" d="M473.98,-348.04C473.98,-348.04 601.98,-348.04 601.98,-348.04 607.98,-348.04 613.98,-354.04 613.98,-360.04 613.98,-360.04 613.98,-555.86 613.98,-555.86 613.98,-561.86 607.98,-567.86 601.98,-567.86 601.98,-567.86 473.98,-567.86 473.98,-567.86 467.98,-567.86 461.98,-561.86 461.98,-555.86 461.98,-555.86 461.98,-360.04 461.98,-360.04 461.98,-354.04 467.98,-348.04 473.98,-348.04"/>
<text text-anchor="middle" x="540.36" y="-355.24" font-family="Times,serif" font-size="14.00">date (879) x channel (4)</text>
</g>
<g id="clust2" class="cluster">
<title>clusterdate (879)</title>
<path fill="none" stroke="black" d="M135.98,-8C135.98,-8 287.98,-8 287.98,-8 293.98,-8 299.98,-14 299.98,-20 299.98,-20 299.98,-316.73 299.98,-316.73 299.98,-322.73 293.98,-328.73 287.98,-328.73 287.98,-328.73 135.98,-328.73 135.98,-328.73 129.98,-328.73 123.98,-322.73 123.98,-316.73 123.98,-316.73 123.98,-20 123.98,-20 123.98,-14 129.98,-8 135.98,-8"/>
<text text-anchor="middle" x="264.23" y="-15.2" font-family="Times,serif" font-size="14.00">date (879)</text>
</g>
<g id="clust3" class="cluster">
<title>clusterchannel (4)</title>
<path fill="none" stroke="black" d="M633.98,-457.95C633.98,-457.95 1079.98,-457.95 1079.98,-457.95 1085.98,-457.95 1091.98,-463.95 1091.98,-469.95 1091.98,-469.95 1091.98,-567.77 1091.98,-567.77 1091.98,-573.77 1085.98,-579.77 1079.98,-579.77 1079.98,-579.77 633.98,-579.77 633.98,-579.77 627.98,-579.77 621.98,-573.77 621.98,-567.77 621.98,-567.77 621.98,-469.95 621.98,-469.95 621.98,-463.95 627.98,-457.95 633.98,-457.95"/>
<text text-anchor="middle" x="1053.23" y="-465.15" font-family="Times,serif" font-size="14.00">channel (4)</text>
</g>
<g id="clust4" class="cluster">
<title>clustercontrol (6)</title>
<path fill="none" stroke="black" d="M305.98,-457.95C305.98,-457.95 441.98,-457.95 441.98,-457.95 447.98,-457.95 453.98,-463.95 453.98,-469.95 453.98,-469.95 453.98,-567.77 453.98,-567.77 453.98,-573.77 447.98,-579.77 441.98,-579.77 441.98,-579.77 305.98,-579.77 305.98,-579.77 299.98,-579.77 293.98,-573.77 293.98,-567.77 293.98,-567.77 293.98,-469.95 293.98,-469.95 293.98,-463.95 299.98,-457.95 305.98,-457.95"/>
<text text-anchor="middle" x="417.11" y="-465.15" font-family="Times,serif" font-size="14.00">control (6)</text>
</g>
<g id="clust5" class="cluster">
<title>clusterdate (879) x control (6)</title>
<path fill="none" stroke="black" d="M149.98,-348.04C149.98,-348.04 273.98,-348.04 273.98,-348.04 279.98,-348.04 285.98,-354.04 285.98,-360.04 285.98,-360.04 285.98,-555.86 285.98,-555.86 285.98,-561.86 279.98,-567.86 273.98,-567.86 273.98,-567.86 149.98,-567.86 149.98,-567.86 143.98,-567.86 137.98,-561.86 137.98,-555.86 137.98,-555.86 137.98,-360.04 137.98,-360.04 137.98,-354.04 143.98,-348.04 149.98,-348.04"/>
<text text-anchor="middle" x="214.23" y="-355.24" font-family="Times,serif" font-size="14.00">date (879) x control (6)</text>
</g>
<!-- channel_contributions -->
<g id="node1" class="node">
<title>channel_contributions</title>
<polygon fill="none" stroke="black" points="605.98,-438.04 469.98,-438.04 469.98,-380.54 605.98,-380.54 605.98,-438.04"/>
<text text-anchor="middle" x="537.98" y="-420.74" font-family="Times,serif" font-size="14.00">channel_contributions</text>
<text text-anchor="middle" x="537.98" y="-404.24" font-family="Times,serif" font-size="14.00">~</text>
<text text-anchor="middle" x="537.98" y="-387.74" font-family="Times,serif" font-size="14.00">Deterministic</text>
</g>
<!-- mu -->
<g id="node4" class="node">
<title>mu</title>
<polygon fill="none" stroke="black" points="257.11,-320.73 166.86,-320.73 166.86,-263.23 257.11,-263.23 257.11,-320.73"/>
<text text-anchor="middle" x="211.98" y="-303.43" font-family="Times,serif" font-size="14.00">mu</text>
<text text-anchor="middle" x="211.98" y="-286.93" font-family="Times,serif" font-size="14.00">~</text>
<text text-anchor="middle" x="211.98" y="-270.43" font-family="Times,serif" font-size="14.00">Deterministic</text>
</g>
<!-- channel_contributions&#45;&gt;mu -->
<g id="edge9" class="edge">
<title>channel_contributions&#45;&gt;mu</title>
<path fill="none" stroke="black" d="M469.64,-384.12C409.78,-362.94 323.85,-332.55 267.98,-312.78"/>
<polygon fill="black" stroke="black" points="269.24,-309.52 258.64,-309.48 266.91,-316.12 269.24,-309.52"/>
</g>
<!-- total_contributions -->
<g id="node7" class="node">
<title>total_contributions</title>
<polygon fill="none" stroke="black" points="596.98,-320.73 478.98,-320.73 478.98,-263.23 596.98,-263.23 596.98,-320.73"/>
<text text-anchor="middle" x="537.98" y="-303.43" font-family="Times,serif" font-size="14.00">total_contributions</text>
<text text-anchor="middle" x="537.98" y="-286.93" font-family="Times,serif" font-size="14.00">~</text>
<text text-anchor="middle" x="537.98" y="-270.43" font-family="Times,serif" font-size="14.00">Deterministic</text>
</g>
<!-- channel_contributions&#45;&gt;total_contributions -->
<g id="edge6" class="edge">
<title>channel_contributions&#45;&gt;total_contributions</title>
<path fill="none" stroke="black" d="M537.98,-380.08C537.98,-365.74 537.98,-348.07 537.98,-332.4"/>
<polygon fill="black" stroke="black" points="541.48,-332.41 537.98,-322.41 534.48,-332.41 541.48,-332.41"/>
</g>
<!-- channel_data -->
<g id="node2" class="node">
<title>channel_data</title>
<path fill="lightgrey" stroke="black" d="M569.61,-559.86C569.61,-559.86 506.36,-559.86 506.36,-559.86 500.36,-559.86 494.36,-553.86 494.36,-547.86 494.36,-547.86 494.36,-514.36 494.36,-514.36 494.36,-508.36 500.36,-502.36 506.36,-502.36 506.36,-502.36 569.61,-502.36 569.61,-502.36 575.61,-502.36 581.61,-508.36 581.61,-514.36 581.61,-514.36 581.61,-547.86 581.61,-547.86 581.61,-553.86 575.61,-559.86 569.61,-559.86"/>
<text text-anchor="middle" x="537.98" y="-542.56" font-family="Times,serif" font-size="14.00">channel_data</text>
<text text-anchor="middle" x="537.98" y="-526.06" font-family="Times,serif" font-size="14.00">~</text>
<text text-anchor="middle" x="537.98" y="-509.56" font-family="Times,serif" font-size="14.00">Data</text>
</g>
<!-- channel_data&#45;&gt;channel_contributions -->
<g id="edge5" class="edge">
<title>channel_data&#45;&gt;channel_contributions</title>
<path fill="none" stroke="black" d="M537.98,-502.02C537.98,-486.4 537.98,-466.7 537.98,-449.58"/>
<polygon fill="black" stroke="black" points="541.48,-449.72 537.98,-439.72 534.48,-449.72 541.48,-449.72"/>
</g>
<!-- y -->
<g id="node3" class="node">
<title>y</title>
<ellipse fill="lightgrey" stroke="black" cx="211.98" cy="-174.66" rx="79.73" ry="40.66"/>
<text text-anchor="middle" x="211.98" y="-186.11" font-family="Times,serif" font-size="14.00">y</text>
<text text-anchor="middle" x="211.98" y="-169.61" font-family="Times,serif" font-size="14.00">~</text>
<text text-anchor="middle" x="211.98" y="-153.11" font-family="Times,serif" font-size="14.00">TruncatedNormal</text>
</g>
<!-- target -->
<g id="node5" class="node">
<title>target</title>
<path fill="lightgrey" stroke="black" d="M226.98,-98C226.98,-98 196.98,-98 196.98,-98 190.98,-98 184.98,-92 184.98,-86 184.98,-86 184.98,-52.5 184.98,-52.5 184.98,-46.5 190.98,-40.5 196.98,-40.5 196.98,-40.5 226.98,-40.5 226.98,-40.5 232.98,-40.5 238.98,-46.5 238.98,-52.5 238.98,-52.5 238.98,-86 238.98,-86 238.98,-92 232.98,-98 226.98,-98"/>
<text text-anchor="middle" x="211.98" y="-80.7" font-family="Times,serif" font-size="14.00">target</text>
<text text-anchor="middle" x="211.98" y="-64.2" font-family="Times,serif" font-size="14.00">~</text>
<text text-anchor="middle" x="211.98" y="-47.7" font-family="Times,serif" font-size="14.00">Data</text>
</g>
<!-- y&#45;&gt;target -->
<g id="edge1" class="edge">
<title>y&#45;&gt;target</title>
<path fill="none" stroke="black" d="M211.98,-133.68C211.98,-125.83 211.98,-117.6 211.98,-109.76"/>
<polygon fill="black" stroke="black" points="215.48,-109.79 211.98,-99.79 208.48,-109.79 215.48,-109.79"/>
</g>
<!-- mu&#45;&gt;y -->
<g id="edge13" class="edge">
<title>mu&#45;&gt;y</title>
<path fill="none" stroke="black" d="M211.98,-262.77C211.98,-251.94 211.98,-239.23 211.98,-226.91"/>
<polygon fill="black" stroke="black" points="215.48,-227.28 211.98,-217.28 208.48,-227.28 215.48,-227.28"/>
</g>
<!-- y_sigma -->
<g id="node6" class="node">
<title>y_sigma</title>
<ellipse fill="none" stroke="black" cx="57.98" cy="-291.98" rx="57.98" ry="40.66"/>
<text text-anchor="middle" x="57.98" y="-303.43" font-family="Times,serif" font-size="14.00">y_sigma</text>
<text text-anchor="middle" x="57.98" y="-286.93" font-family="Times,serif" font-size="14.00">~</text>
<text text-anchor="middle" x="57.98" y="-270.43" font-family="Times,serif" font-size="14.00">HalfNormal</text>
</g>
<!-- y_sigma&#45;&gt;y -->
<g id="edge12" class="edge">
<title>y_sigma&#45;&gt;y</title>
<path fill="none" stroke="black" d="M97.24,-261.58C115.87,-247.63 138.4,-230.76 158.56,-215.66"/>
<polygon fill="black" stroke="black" points="160.51,-218.58 166.41,-209.78 156.31,-212.97 160.51,-218.58"/>
</g>
<!-- intercept -->
<g id="node8" class="node">
<title>intercept</title>
<ellipse fill="none" stroke="black" cx="82.98" cy="-409.29" rx="44.72" ry="40.66"/>
<text text-anchor="middle" x="82.98" y="-420.74" font-family="Times,serif" font-size="14.00">intercept</text>
<text text-anchor="middle" x="82.98" y="-404.24" font-family="Times,serif" font-size="14.00">~</text>
<text text-anchor="middle" x="82.98" y="-387.74" font-family="Times,serif" font-size="14.00">Normal</text>
</g>
<!-- intercept&#45;&gt;mu -->
<g id="edge11" class="edge">
<title>intercept&#45;&gt;mu</title>
<path fill="none" stroke="black" d="M108.29,-375.34C116.08,-366.07 124.99,-356.28 133.98,-348.04 141.61,-341.05 150.16,-334.2 158.72,-327.83"/>
<polygon fill="black" stroke="black" points="160.71,-330.71 166.75,-322.01 156.6,-325.04 160.71,-330.71"/>
</g>
<!-- saturation_alpha -->
<g id="node9" class="node">
<title>saturation_alpha</title>
<ellipse fill="none" stroke="black" cx="703.98" cy="-531.11" rx="74.42" ry="40.66"/>
<text text-anchor="middle" x="703.98" y="-542.56" font-family="Times,serif" font-size="14.00">saturation_alpha</text>
<text text-anchor="middle" x="703.98" y="-526.06" font-family="Times,serif" font-size="14.00">~</text>
<text text-anchor="middle" x="703.98" y="-509.56" font-family="Times,serif" font-size="14.00">Gamma</text>
</g>
<!-- saturation_alpha&#45;&gt;channel_contributions -->
<g id="edge2" class="edge">
<title>saturation_alpha&#45;&gt;channel_contributions</title>
<path fill="none" stroke="black" d="M666.08,-496.05C651.47,-483.53 634.35,-469.58 617.98,-457.95 611.46,-453.32 604.47,-448.69 597.43,-444.25"/>
<polygon fill="black" stroke="black" points="599.48,-441.4 589.14,-439.11 595.8,-447.35 599.48,-441.4"/>
</g>
<!-- adstock_alpha -->
<g id="node10" class="node">
<title>adstock_alpha</title>
<ellipse fill="none" stroke="black" cx="861.98" cy="-531.11" rx="65.94" ry="40.66"/>
<text text-anchor="middle" x="861.98" y="-542.56" font-family="Times,serif" font-size="14.00">adstock_alpha</text>
<text text-anchor="middle" x="861.98" y="-526.06" font-family="Times,serif" font-size="14.00">~</text>
<text text-anchor="middle" x="861.98" y="-509.56" font-family="Times,serif" font-size="14.00">Beta</text>
</g>
<!-- adstock_alpha&#45;&gt;channel_contributions -->
<g id="edge4" class="edge">
<title>adstock_alpha&#45;&gt;channel_contributions</title>
<path fill="none" stroke="black" d="M832.79,-494.26C820.07,-480.9 804.15,-466.84 786.98,-457.95 734.47,-430.77 668.5,-419 617.66,-413.94"/>
<polygon fill="black" stroke="black" points="618.18,-410.47 607.91,-413.04 617.54,-417.44 618.18,-410.47"/>
</g>
<!-- saturation_lam -->
<g id="node11" class="node">
<title>saturation_lam</title>
<ellipse fill="none" stroke="black" cx="1014.98" cy="-531.11" rx="68.59" ry="40.66"/>
<text text-anchor="middle" x="1014.98" y="-542.56" font-family="Times,serif" font-size="14.00">saturation_lam</text>
<text text-anchor="middle" x="1014.98" y="-526.06" font-family="Times,serif" font-size="14.00">~</text>
<text text-anchor="middle" x="1014.98" y="-509.56" font-family="Times,serif" font-size="14.00">Gamma</text>
</g>
<!-- saturation_lam&#45;&gt;channel_contributions -->
<g id="edge3" class="edge">
<title>saturation_lam&#45;&gt;channel_contributions</title>
<path fill="none" stroke="black" d="M985.05,-494.02C971.78,-480.45 955.07,-466.31 936.98,-457.95 881.87,-432.5 717.28,-419.62 617.54,-413.99"/>
<polygon fill="black" stroke="black" points="617.99,-410.51 607.82,-413.46 617.61,-417.5 617.99,-410.51"/>
</g>
<!-- gamma_control -->
<g id="node12" class="node">
<title>gamma_control</title>
<ellipse fill="none" stroke="black" cx="373.98" cy="-531.11" rx="72.3" ry="40.66"/>
<text text-anchor="middle" x="373.98" y="-542.56" font-family="Times,serif" font-size="14.00">gamma_control</text>
<text text-anchor="middle" x="373.98" y="-526.06" font-family="Times,serif" font-size="14.00">~</text>
<text text-anchor="middle" x="373.98" y="-509.56" font-family="Times,serif" font-size="14.00">Normal</text>
</g>
<!-- control_contributions -->
<g id="node14" class="node">
<title>control_contributions</title>
<polygon fill="none" stroke="black" points="278.11,-438.04 145.86,-438.04 145.86,-380.54 278.11,-380.54 278.11,-438.04"/>
<text text-anchor="middle" x="211.98" y="-420.74" font-family="Times,serif" font-size="14.00">control_contributions</text>
<text text-anchor="middle" x="211.98" y="-404.24" font-family="Times,serif" font-size="14.00">~</text>
<text text-anchor="middle" x="211.98" y="-387.74" font-family="Times,serif" font-size="14.00">Deterministic</text>
</g>
<!-- gamma_control&#45;&gt;control_contributions -->
<g id="edge8" class="edge">
<title>gamma_control&#45;&gt;control_contributions</title>
<path fill="none" stroke="black" d="M336.99,-496.08C322.72,-483.56 305.99,-469.6 289.98,-457.95 283.63,-453.33 276.82,-448.71 269.96,-444.27"/>
<polygon fill="black" stroke="black" points="272.22,-441.56 261.9,-439.15 268.47,-447.47 272.22,-441.56"/>
</g>
<!-- control_data -->
<g id="node13" class="node">
<title>control_data</title>
<path fill="lightgrey" stroke="black" d="M241.73,-559.86C241.73,-559.86 182.23,-559.86 182.23,-559.86 176.23,-559.86 170.23,-553.86 170.23,-547.86 170.23,-547.86 170.23,-514.36 170.23,-514.36 170.23,-508.36 176.23,-502.36 182.23,-502.36 182.23,-502.36 241.73,-502.36 241.73,-502.36 247.73,-502.36 253.73,-508.36 253.73,-514.36 253.73,-514.36 253.73,-547.86 253.73,-547.86 253.73,-553.86 247.73,-559.86 241.73,-559.86"/>
<text text-anchor="middle" x="211.98" y="-542.56" font-family="Times,serif" font-size="14.00">control_data</text>
<text text-anchor="middle" x="211.98" y="-526.06" font-family="Times,serif" font-size="14.00">~</text>
<text text-anchor="middle" x="211.98" y="-509.56" font-family="Times,serif" font-size="14.00">Data</text>
</g>
<!-- control_data&#45;&gt;control_contributions -->
<g id="edge7" class="edge">
<title>control_data&#45;&gt;control_contributions</title>
<path fill="none" stroke="black" d="M211.98,-502.02C211.98,-486.4 211.98,-466.7 211.98,-449.58"/>
<polygon fill="black" stroke="black" points="215.48,-449.72 211.98,-439.72 208.48,-449.72 215.48,-449.72"/>
</g>
<!-- control_contributions&#45;&gt;mu -->
<g id="edge10" class="edge">
<title>control_contributions&#45;&gt;mu</title>
<path fill="none" stroke="black" d="M211.98,-380.08C211.98,-365.74 211.98,-348.07 211.98,-332.4"/>
<polygon fill="black" stroke="black" points="215.48,-332.41 211.98,-322.41 208.48,-332.41 215.48,-332.41"/>
</g>
</g>
</svg>
