<?xml version="1.0" encoding="UTF-8" standalone="no"?>
<!DOCTYPE svg PUBLIC "-//W3C//DTD SVG 1.1//EN"
 "http://www.w3.org/Graphics/SVG/1.1/DTD/svg11.dtd">
<!-- Generated by graphviz version 12.2.1 (0)
 -->
<!-- Pages: 1 -->
<svg width="568pt" height="188pt"
 viewBox="0.00 0.00 568.03 188.00" xmlns="http://www.w3.org/2000/svg" xmlns:xlink="http://www.w3.org/1999/xlink">
<g id="graph0" class="graph" transform="scale(1 1) rotate(0) translate(4 184)">
<polygon fill="white" stroke="none" points="-4,4 -4,-184 564.03,-184 564.03,4 -4,4"/>
<!-- spend_x1 -->
<g id="node1" class="node">
<title>spend_x1</title>
<ellipse fill="none" stroke="black" cx="69.26" cy="-162" rx="47.77" ry="18"/>
<text text-anchor="middle" x="69.26" y="-156.95" font-family="Times,serif" font-size="14.00">Spend X1</text>
</g>
<!-- impressions_x1 -->
<g id="node6" class="node">
<title>impressions_x1</title>
<ellipse fill="none" stroke="black" cx="69.26" cy="-90" rx="69.26" ry="18"/>
<text text-anchor="middle" x="69.26" y="-84.95" font-family="Times,serif" font-size="14.00">impressions_x1</text>
</g>
<!-- spend_x1&#45;&gt;impressions_x1 -->
<g id="edge1" class="edge">
<title>spend_x1&#45;&gt;impressions_x1</title>
<path fill="none" stroke="black" d="M69.26,-143.7C69.26,-136.41 69.26,-127.73 69.26,-119.54"/>
<polygon fill="black" stroke="black" points="72.76,-119.62 69.26,-109.62 65.76,-119.62 72.76,-119.62"/>
</g>
<!-- spend_x2 -->
<g id="node2" class="node">
<title>spend_x2</title>
<ellipse fill="none" stroke="black" cx="377.26" cy="-162" rx="47.77" ry="18"/>
<text text-anchor="middle" x="377.26" y="-156.95" font-family="Times,serif" font-size="14.00">Spend X2</text>
</g>
<!-- impressions_x2 -->
<g id="node7" class="node">
<title>impressions_x2</title>
<ellipse fill="none" stroke="black" cx="377.26" cy="-90" rx="69.26" ry="18"/>
<text text-anchor="middle" x="377.26" y="-84.95" font-family="Times,serif" font-size="14.00">impressions_x2</text>
</g>
<!-- spend_x2&#45;&gt;impressions_x2 -->
<g id="edge2" class="edge">
<title>spend_x2&#45;&gt;impressions_x2</title>
<path fill="none" stroke="black" d="M377.26,-143.7C377.26,-136.41 377.26,-127.73 377.26,-119.54"/>
<polygon fill="black" stroke="black" points="380.76,-119.62 377.26,-109.62 373.76,-119.62 380.76,-119.62"/>
</g>
<!-- spend_x3 -->
<g id="node3" class="node">
<title>spend_x3</title>
<ellipse fill="none" stroke="black" cx="242.26" cy="-90" rx="47.77" ry="18"/>
<text text-anchor="middle" x="242.26" y="-84.95" font-family="Times,serif" font-size="14.00">Spend X3</text>
</g>
<!-- impressions_x3 -->
<g id="node8" class="node">
<title>impressions_x3</title>
<ellipse fill="none" stroke="black" cx="217.26" cy="-18" rx="69.26" ry="18"/>
<text text-anchor="middle" x="217.26" y="-12.95" font-family="Times,serif" font-size="14.00">impressions_x3</text>
</g>
<!-- spend_x3&#45;&gt;impressions_x3 -->
<g id="edge3" class="edge">
<title>spend_x3&#45;&gt;impressions_x3</title>
<path fill="none" stroke="black" d="M236.08,-71.7C233.39,-64.15 230.16,-55.12 227.15,-46.68"/>
<polygon fill="black" stroke="black" points="230.54,-45.77 223.88,-37.53 223.95,-48.12 230.54,-45.77"/>
</g>
<!-- spend_x4 -->
<g id="node4" class="node">
<title>spend_x4</title>
<ellipse fill="none" stroke="black" cx="512.26" cy="-90" rx="47.77" ry="18"/>
<text text-anchor="middle" x="512.26" y="-84.95" font-family="Times,serif" font-size="14.00">Spend X4</text>
</g>
<!-- impressions_x4 -->
<g id="node9" class="node">
<title>impressions_x4</title>
<ellipse fill="none" stroke="black" cx="401.26" cy="-18" rx="69.26" ry="18"/>
<text text-anchor="middle" x="401.26" y="-12.95" font-family="Times,serif" font-size="14.00">impressions_x4</text>
</g>
<!-- spend_x4&#45;&gt;impressions_x4 -->
<g id="edge4" class="edge">
<title>spend_x4&#45;&gt;impressions_x4</title>
<path fill="none" stroke="black" d="M488.45,-73.98C473.22,-64.38 453.21,-51.76 436.19,-41.03"/>
<polygon fill="black" stroke="black" points="438.19,-38.15 427.86,-35.77 434.45,-44.07 438.19,-38.15"/>
</g>
<!-- events -->
<g id="node5" class="node">
<title>events</title>
<ellipse fill="none" stroke="black" cx="223.26" cy="-162" rx="36" ry="18"/>
<text text-anchor="middle" x="223.26" y="-156.95" font-family="Times,serif" font-size="14.00">Events</text>
</g>
<!-- events&#45;&gt;impressions_x2 -->
<g id="edge8" class="edge">
<title>events&#45;&gt;impressions_x2</title>
<path fill="none" stroke="black" d="M249.39,-149.13C272.42,-138.66 306.44,-123.19 333.6,-110.85"/>
<polygon fill="black" stroke="black" points="334.98,-114.06 342.64,-106.74 332.09,-107.69 334.98,-114.06"/>
</g>
<!-- events&#45;&gt;impressions_x3 -->
<g id="edge9" class="edge">
<title>events&#45;&gt;impressions_x3</title>
<path fill="none" stroke="black" d="M207.98,-145.3C199.5,-135.46 189.77,-122.01 185.26,-108 180.37,-92.77 180.97,-87.41 185.26,-72 187.82,-62.83 192.44,-53.65 197.39,-45.58"/>
<polygon fill="black" stroke="black" points="200.27,-47.56 202.87,-37.29 194.43,-43.7 200.27,-47.56"/>
</g>
<!-- impressions_x1&#45;&gt;impressions_x3 -->
<g id="edge5" class="edge">
<title>impressions_x1&#45;&gt;impressions_x3</title>
<path fill="none" stroke="black" d="M101.74,-73.64C123.14,-63.52 151.39,-50.16 174.6,-39.18"/>
<polygon fill="black" stroke="black" points="175.95,-42.41 183.49,-34.97 172.96,-36.08 175.95,-42.41"/>
</g>
<!-- impressions_x2&#45;&gt;impressions_x3 -->
<g id="edge6" class="edge">
<title>impressions_x2&#45;&gt;impressions_x3</title>
<path fill="none" stroke="black" d="M342.94,-73.98C319.21,-63.6 287.43,-49.7 261.76,-38.47"/>
<polygon fill="black" stroke="black" points="263.48,-35.4 252.92,-34.6 260.68,-41.81 263.48,-35.4"/>
</g>
<!-- impressions_x2&#45;&gt;impressions_x4 -->
<g id="edge7" class="edge">
<title>impressions_x2&#45;&gt;impressions_x4</title>
<path fill="none" stroke="black" d="M383.2,-71.7C385.75,-64.24 388.81,-55.32 391.68,-46.97"/>
<polygon fill="black" stroke="black" points="394.98,-48.13 394.91,-37.54 388.36,-45.86 394.98,-48.13"/>
</g>
</g>
</svg>
