<?xml version="1.0" encoding="UTF-8" standalone="no"?>
<!DOCTYPE svg PUBLIC "-//W3C//DTD SVG 1.1//EN"
 "http://www.w3.org/Graphics/SVG/1.1/DTD/svg11.dtd">
<!-- Generated by graphviz version 2.50.0 (0)
 -->
<!-- Pages: 1 -->
<svg width="548pt" height="188pt"
 viewBox="0.00 0.00 548.44 188.00" xmlns="http://www.w3.org/2000/svg" xmlns:xlink="http://www.w3.org/1999/xlink">
<g id="graph0" class="graph" transform="scale(1 1) rotate(0) translate(4 184)">
<polygon fill="white" stroke="transparent" points="-4,4 -4,-184 544.44,-184 544.44,4 -4,4"/>
<!-- spend_x1 -->
<g id="node1" class="node">
<title>spend_x1</title>
<ellipse fill="none" stroke="black" cx="66.29" cy="-162" rx="46.29" ry="18"/>
<text text-anchor="middle" x="66.29" y="-158.3" font-family="Times,serif" font-size="14.00">Spend X1</text>
</g>
<!-- impressions_x1 -->
<g id="node6" class="node">
<title>impressions_x1</title>
<ellipse fill="none" stroke="black" cx="66.29" cy="-90" rx="66.09" ry="18"/>
<text text-anchor="middle" x="66.29" y="-86.3" font-family="Times,serif" font-size="14.00">impressions_x1</text>
</g>
<!-- spend_x1&#45;&gt;impressions_x1 -->
<g id="edge1" class="edge">
<title>spend_x1&#45;&gt;impressions_x1</title>
<path fill="none" stroke="black" d="M66.29,-143.7C66.29,-135.98 66.29,-126.71 66.29,-118.11"/>
<polygon fill="black" stroke="black" points="69.79,-118.1 66.29,-108.1 62.79,-118.1 69.79,-118.1"/>
</g>
<!-- spend_x2 -->
<g id="node2" class="node">
<title>spend_x2</title>
<ellipse fill="none" stroke="black" cx="364.29" cy="-162" rx="46.29" ry="18"/>
<text text-anchor="middle" x="364.29" y="-158.3" font-family="Times,serif" font-size="14.00">Spend X2</text>
</g>
<!-- impressions_x2 -->
<g id="node7" class="node">
<title>impressions_x2</title>
<ellipse fill="none" stroke="black" cx="364.29" cy="-90" rx="66.09" ry="18"/>
<text text-anchor="middle" x="364.29" y="-86.3" font-family="Times,serif" font-size="14.00">impressions_x2</text>
</g>
<!-- spend_x2&#45;&gt;impressions_x2 -->
<g id="edge2" class="edge">
<title>spend_x2&#45;&gt;impressions_x2</title>
<path fill="none" stroke="black" d="M364.29,-143.7C364.29,-135.98 364.29,-126.71 364.29,-118.11"/>
<polygon fill="black" stroke="black" points="367.79,-118.1 364.29,-108.1 360.79,-118.1 367.79,-118.1"/>
</g>
<!-- spend_x3 -->
<g id="node3" class="node">
<title>spend_x3</title>
<ellipse fill="none" stroke="black" cx="234.29" cy="-90" rx="46.29" ry="18"/>
<text text-anchor="middle" x="234.29" y="-86.3" font-family="Times,serif" font-size="14.00">Spend X3</text>
</g>
<!-- impressions_x3 -->
<g id="node8" class="node">
<title>impressions_x3</title>
<ellipse fill="none" stroke="black" cx="210.29" cy="-18" rx="66.09" ry="18"/>
<text text-anchor="middle" x="210.29" y="-14.3" font-family="Times,serif" font-size="14.00">impressions_x3</text>
</g>
<!-- spend_x3&#45;&gt;impressions_x3 -->
<g id="edge3" class="edge">
<title>spend_x3&#45;&gt;impressions_x3</title>
<path fill="none" stroke="black" d="M228.48,-72.05C225.78,-64.18 222.51,-54.62 219.48,-45.79"/>
<polygon fill="black" stroke="black" points="222.77,-44.6 216.22,-36.28 216.15,-46.87 222.77,-44.6"/>
</g>
<!-- spend_x4 -->
<g id="node4" class="node">
<title>spend_x4</title>
<ellipse fill="none" stroke="black" cx="494.29" cy="-90" rx="46.29" ry="18"/>
<text text-anchor="middle" x="494.29" y="-86.3" font-family="Times,serif" font-size="14.00">Spend X4</text>
</g>
<!-- impressions_x4 -->
<g id="node9" class="node">
<title>impressions_x4</title>
<ellipse fill="none" stroke="black" cx="387.29" cy="-18" rx="66.09" ry="18"/>
<text text-anchor="middle" x="387.29" y="-14.3" font-family="Times,serif" font-size="14.00">impressions_x4</text>
</g>
<!-- spend_x4&#45;&gt;impressions_x4 -->
<g id="edge4" class="edge">
<title>spend_x4&#45;&gt;impressions_x4</title>
<path fill="none" stroke="black" d="M471.6,-74.15C456.56,-64.31 436.58,-51.24 419.85,-40.3"/>
<polygon fill="black" stroke="black" points="421.72,-37.34 411.44,-34.8 417.89,-43.2 421.72,-37.34"/>
</g>
<!-- events -->
<g id="node5" class="node">
<title>events</title>
<ellipse fill="none" stroke="black" cx="215.29" cy="-162" rx="34.39" ry="18"/>
<text text-anchor="middle" x="215.29" y="-158.3" font-family="Times,serif" font-size="14.00">Events</text>
</g>
<!-- events&#45;&gt;impressions_x2 -->
<g id="edge8" class="edge">
<title>events&#45;&gt;impressions_x2</title>
<path fill="none" stroke="black" d="M240.23,-149.28C262.91,-138.63 296.8,-122.71 323.43,-110.2"/>
<polygon fill="black" stroke="black" points="324.95,-113.35 332.52,-105.93 321.98,-107.01 324.95,-113.35"/>
</g>
<!-- events&#45;&gt;impressions_x3 -->
<g id="edge9" class="edge">
<title>events&#45;&gt;impressions_x3</title>
<path fill="none" stroke="black" d="M200.8,-145.17C192.76,-135.27 183.54,-121.82 179.29,-108 174.59,-92.71 175.11,-87.44 179.29,-72 181.87,-62.48 186.64,-52.92 191.67,-44.59"/>
<polygon fill="black" stroke="black" points="194.67,-46.39 197.15,-36.09 188.79,-42.6 194.67,-46.39"/>
</g>
<!-- impressions_x1&#45;&gt;impressions_x3 -->
<g id="edge5" class="edge">
<title>impressions_x1&#45;&gt;impressions_x3</title>
<path fill="none" stroke="black" d="M97.19,-73.98C118.54,-63.6 147.15,-49.7 170.25,-38.47"/>
<polygon fill="black" stroke="black" points="171.99,-41.51 179.45,-33.99 168.93,-35.22 171.99,-41.51"/>
</g>
<!-- impressions_x2&#45;&gt;impressions_x3 -->
<g id="edge6" class="edge">
<title>impressions_x2&#45;&gt;impressions_x3</title>
<path fill="none" stroke="black" d="M331.63,-74.15C308.46,-63.62 277.16,-49.39 252.15,-38.03"/>
<polygon fill="black" stroke="black" points="253.46,-34.78 242.91,-33.82 250.56,-41.15 253.46,-34.78"/>
</g>
<!-- impressions_x2&#45;&gt;impressions_x4 -->
<g id="edge7" class="edge">
<title>impressions_x2&#45;&gt;impressions_x4</title>
<path fill="none" stroke="black" d="M369.86,-72.05C372.45,-64.18 375.59,-54.62 378.49,-45.79"/>
<polygon fill="black" stroke="black" points="381.82,-46.87 381.62,-36.28 375.17,-44.68 381.82,-46.87"/>
</g>
</g>
</svg>
