<?xml version="1.0" encoding="UTF-8" standalone="no"?>
<!DOCTYPE svg PUBLIC "-//W3C//DTD SVG 1.1//EN"
 "http://www.w3.org/Graphics/SVG/1.1/DTD/svg11.dtd">
<!-- Generated by graphviz version 12.2.1 (0)
 -->
<!-- Pages: 1 -->
<svg width="978pt" height="596pt"
 viewBox="0.00 0.00 978.00 595.77" xmlns="http://www.w3.org/2000/svg" xmlns:xlink="http://www.w3.org/1999/xlink">
<g id="graph0" class="graph" transform="scale(1 1) rotate(0) translate(4 591.77)">
<polygon fill="white" stroke="none" points="-4,4 -4,-591.77 974,-591.77 974,4 -4,4"/>
<g id="clust1" class="cluster">
<title>clusterdate (879) x channel (4)</title>
<path fill="none" stroke="black" d="M20,-348.04C20,-348.04 148,-348.04 148,-348.04 154,-348.04 160,-354.04 160,-360.04 160,-360.04 160,-555.86 160,-555.86 160,-561.86 154,-567.86 148,-567.86 148,-567.86 20,-567.86 20,-567.86 14,-567.86 8,-561.86 8,-555.86 8,-555.86 8,-360.04 8,-360.04 8,-354.04 14,-348.04 20,-348.04"/>
<text text-anchor="middle" x="86.38" y="-355.24" font-family="Times,serif" font-size="14.00">date (879) x channel (4)</text>
</g>
<g id="clust2" class="cluster">
<title>clusterdate (879)</title>
<path fill="none" stroke="black" d="M339,-8C339,-8 491,-8 491,-8 497,-8 503,-14 503,-20 503,-20 503,-316.73 503,-316.73 503,-322.73 497,-328.73 491,-328.73 491,-328.73 339,-328.73 339,-328.73 333,-328.73 327,-322.73 327,-316.73 327,-316.73 327,-20 327,-20 327,-14 333,-8 339,-8"/>
<text text-anchor="middle" x="467.25" y="-15.2" font-family="Times,serif" font-size="14.00">date (879)</text>
</g>
<g id="clust3" class="cluster">
<title>clusterchannel (4)</title>
<path fill="none" stroke="black" d="M180,-457.95C180,-457.95 626,-457.95 626,-457.95 632,-457.95 638,-463.95 638,-469.95 638,-469.95 638,-567.77 638,-567.77 638,-573.77 632,-579.77 626,-579.77 626,-579.77 180,-579.77 180,-579.77 174,-579.77 168,-573.77 168,-567.77 168,-567.77 168,-469.95 168,-469.95 168,-463.95 174,-457.95 180,-457.95"/>
<text text-anchor="middle" x="599.25" y="-465.15" font-family="Times,serif" font-size="14.00">channel (4)</text>
</g>
<g id="clust4" class="cluster">
<title>clustercontrol (6)</title>
<path fill="none" stroke="black" d="M814,-457.95C814,-457.95 950,-457.95 950,-457.95 956,-457.95 962,-463.95 962,-469.95 962,-469.95 962,-567.77 962,-567.77 962,-573.77 956,-579.77 950,-579.77 950,-579.77 814,-579.77 814,-579.77 808,-579.77 802,-573.77 802,-567.77 802,-567.77 802,-469.95 802,-469.95 802,-463.95 808,-457.95 814,-457.95"/>
<text text-anchor="middle" x="925.12" y="-465.15" font-family="Times,serif" font-size="14.00">control (6)</text>
</g>
<g id="clust5" class="cluster">
<title>clusterdate (879) x control (6)</title>
<path fill="none" stroke="black" d="M658,-348.04C658,-348.04 782,-348.04 782,-348.04 788,-348.04 794,-354.04 794,-360.04 794,-360.04 794,-555.86 794,-555.86 794,-561.86 788,-567.86 782,-567.86 782,-567.86 658,-567.86 658,-567.86 652,-567.86 646,-561.86 646,-555.86 646,-555.86 646,-360.04 646,-360.04 646,-354.04 652,-348.04 658,-348.04"/>
<text text-anchor="middle" x="722.25" y="-355.24" font-family="Times,serif" font-size="14.00">date (879) x control (6)</text>
</g>
<!-- channel_data -->
<g id="node1" class="node">
<title>channel_data</title>
<path fill="lightgrey" stroke="black" d="M115.62,-559.86C115.62,-559.86 52.37,-559.86 52.37,-559.86 46.38,-559.86 40.38,-553.86 40.38,-547.86 40.38,-547.86 40.38,-514.36 40.38,-514.36 40.38,-508.36 46.38,-502.36 52.38,-502.36 52.38,-502.36 115.62,-502.36 115.62,-502.36 121.62,-502.36 127.62,-508.36 127.62,-514.36 127.62,-514.36 127.62,-547.86 127.62,-547.86 127.62,-553.86 121.62,-559.86 115.62,-559.86"/>
<text text-anchor="middle" x="84" y="-542.56" font-family="Times,serif" font-size="14.00">channel_data</text>
<text text-anchor="middle" x="84" y="-526.06" font-family="Times,serif" font-size="14.00">~</text>
<text text-anchor="middle" x="84" y="-509.56" font-family="Times,serif" font-size="14.00">Data</text>
</g>
<!-- channel_contributions -->
<g id="node2" class="node">
<title>channel_contributions</title>
<polygon fill="none" stroke="black" points="152,-438.04 16,-438.04 16,-380.54 152,-380.54 152,-438.04"/>
<text text-anchor="middle" x="84" y="-420.74" font-family="Times,serif" font-size="14.00">channel_contributions</text>
<text text-anchor="middle" x="84" y="-404.24" font-family="Times,serif" font-size="14.00">~</text>
<text text-anchor="middle" x="84" y="-387.74" font-family="Times,serif" font-size="14.00">Deterministic</text>
</g>
<!-- channel_data&#45;&gt;channel_contributions -->
<g id="edge5" class="edge">
<title>channel_data&#45;&gt;channel_contributions</title>
<path fill="none" stroke="black" d="M84,-502.02C84,-486.4 84,-466.7 84,-449.58"/>
<polygon fill="black" stroke="black" points="87.5,-449.72 84,-439.72 80.5,-449.72 87.5,-449.72"/>
</g>
<!-- mu -->
<g id="node5" class="node">
<title>mu</title>
<polygon fill="none" stroke="black" points="460.12,-320.73 369.88,-320.73 369.88,-263.23 460.12,-263.23 460.12,-320.73"/>
<text text-anchor="middle" x="415" y="-303.43" font-family="Times,serif" font-size="14.00">mu</text>
<text text-anchor="middle" x="415" y="-286.93" font-family="Times,serif" font-size="14.00">~</text>
<text text-anchor="middle" x="415" y="-270.43" font-family="Times,serif" font-size="14.00">Deterministic</text>
</g>
<!-- channel_contributions&#45;&gt;mu -->
<g id="edge11" class="edge">
<title>channel_contributions&#45;&gt;mu</title>
<path fill="none" stroke="black" d="M152.18,-384.54C213.34,-363.23 302,-332.34 359.08,-312.46"/>
<polygon fill="black" stroke="black" points="359.99,-315.85 368.28,-309.25 357.68,-309.24 359.99,-315.85"/>
</g>
<!-- total_contributions -->
<g id="node8" class="node">
<title>total_contributions</title>
<polygon fill="none" stroke="black" points="143,-320.73 25,-320.73 25,-263.23 143,-263.23 143,-320.73"/>
<text text-anchor="middle" x="84" y="-303.43" font-family="Times,serif" font-size="14.00">total_contributions</text>
<text text-anchor="middle" x="84" y="-286.93" font-family="Times,serif" font-size="14.00">~</text>
<text text-anchor="middle" x="84" y="-270.43" font-family="Times,serif" font-size="14.00">Deterministic</text>
</g>
<!-- channel_contributions&#45;&gt;total_contributions -->
<g id="edge6" class="edge">
<title>channel_contributions&#45;&gt;total_contributions</title>
<path fill="none" stroke="black" d="M84,-380.08C84,-365.74 84,-348.07 84,-332.4"/>
<polygon fill="black" stroke="black" points="87.5,-332.41 84,-322.41 80.5,-332.41 87.5,-332.41"/>
</g>
<!-- y -->
<g id="node3" class="node">
<title>y</title>
<ellipse fill="lightgrey" stroke="black" cx="415" cy="-174.66" rx="79.73" ry="40.66"/>
<text text-anchor="middle" x="415" y="-186.11" font-family="Times,serif" font-size="14.00">y</text>
<text text-anchor="middle" x="415" y="-169.61" font-family="Times,serif" font-size="14.00">~</text>
<text text-anchor="middle" x="415" y="-153.11" font-family="Times,serif" font-size="14.00">TruncatedNormal</text>
</g>
<!-- target -->
<g id="node4" class="node">
<title>target</title>
<path fill="lightgrey" stroke="black" d="M430,-98C430,-98 400,-98 400,-98 394,-98 388,-92 388,-86 388,-86 388,-52.5 388,-52.5 388,-46.5 394,-40.5 400,-40.5 400,-40.5 430,-40.5 430,-40.5 436,-40.5 442,-46.5 442,-52.5 442,-52.5 442,-86 442,-86 442,-92 436,-98 430,-98"/>
<text text-anchor="middle" x="415" y="-80.7" font-family="Times,serif" font-size="14.00">target</text>
<text text-anchor="middle" x="415" y="-64.2" font-family="Times,serif" font-size="14.00">~</text>
<text text-anchor="middle" x="415" y="-47.7" font-family="Times,serif" font-size="14.00">Data</text>
</g>
<!-- y&#45;&gt;target -->
<g id="edge1" class="edge">
<title>y&#45;&gt;target</title>
<path fill="none" stroke="black" d="M415,-133.68C415,-125.83 415,-117.6 415,-109.76"/>
<polygon fill="black" stroke="black" points="418.5,-109.79 415,-99.79 411.5,-109.79 418.5,-109.79"/>
</g>
<!-- mu&#45;&gt;y -->
<g id="edge13" class="edge">
<title>mu&#45;&gt;y</title>
<path fill="none" stroke="black" d="M415,-262.77C415,-251.94 415,-239.23 415,-226.91"/>
<polygon fill="black" stroke="black" points="418.5,-227.28 415,-217.28 411.5,-227.28 418.5,-227.28"/>
</g>
<!-- intercept -->
<g id="node6" class="node">
<title>intercept</title>
<ellipse fill="none" stroke="black" cx="415" cy="-409.29" rx="44.72" ry="40.66"/>
<text text-anchor="middle" x="415" y="-420.74" font-family="Times,serif" font-size="14.00">intercept</text>
<text text-anchor="middle" x="415" y="-404.24" font-family="Times,serif" font-size="14.00">~</text>
<text text-anchor="middle" x="415" y="-387.74" font-family="Times,serif" font-size="14.00">Normal</text>
</g>
<!-- intercept&#45;&gt;mu -->
<g id="edge9" class="edge">
<title>intercept&#45;&gt;mu</title>
<path fill="none" stroke="black" d="M415,-368.28C415,-356.58 415,-343.79 415,-332.14"/>
<polygon fill="black" stroke="black" points="418.5,-332.45 415,-322.45 411.5,-332.45 418.5,-332.45"/>
</g>
<!-- y_sigma -->
<g id="node7" class="node">
<title>y_sigma</title>
<ellipse fill="none" stroke="black" cx="569" cy="-291.98" rx="57.98" ry="40.66"/>
<text text-anchor="middle" x="569" y="-303.43" font-family="Times,serif" font-size="14.00">y_sigma</text>
<text text-anchor="middle" x="569" y="-286.93" font-family="Times,serif" font-size="14.00">~</text>
<text text-anchor="middle" x="569" y="-270.43" font-family="Times,serif" font-size="14.00">HalfNormal</text>
</g>
<!-- y_sigma&#45;&gt;y -->
<g id="edge12" class="edge">
<title>y_sigma&#45;&gt;y</title>
<path fill="none" stroke="black" d="M529.74,-261.58C511.12,-247.63 488.58,-230.76 468.43,-215.66"/>
<polygon fill="black" stroke="black" points="470.67,-212.97 460.57,-209.78 466.47,-218.58 470.67,-212.97"/>
</g>
<!-- saturation_alpha -->
<g id="node9" class="node">
<title>saturation_alpha</title>
<ellipse fill="none" stroke="black" cx="250" cy="-531.11" rx="74.42" ry="40.66"/>
<text text-anchor="middle" x="250" y="-542.56" font-family="Times,serif" font-size="14.00">saturation_alpha</text>
<text text-anchor="middle" x="250" y="-526.06" font-family="Times,serif" font-size="14.00">~</text>
<text text-anchor="middle" x="250" y="-509.56" font-family="Times,serif" font-size="14.00">Gamma</text>
</g>
<!-- saturation_alpha&#45;&gt;channel_contributions -->
<g id="edge2" class="edge">
<title>saturation_alpha&#45;&gt;channel_contributions</title>
<path fill="none" stroke="black" d="M212.1,-496.05C197.48,-483.53 180.37,-469.58 164,-457.95 157.48,-453.32 150.48,-448.69 143.45,-444.25"/>
<polygon fill="black" stroke="black" points="145.5,-441.4 135.16,-439.11 141.81,-447.35 145.5,-441.4"/>
</g>
<!-- adstock_alpha -->
<g id="node10" class="node">
<title>adstock_alpha</title>
<ellipse fill="none" stroke="black" cx="408" cy="-531.11" rx="65.94" ry="40.66"/>
<text text-anchor="middle" x="408" y="-542.56" font-family="Times,serif" font-size="14.00">adstock_alpha</text>
<text text-anchor="middle" x="408" y="-526.06" font-family="Times,serif" font-size="14.00">~</text>
<text text-anchor="middle" x="408" y="-509.56" font-family="Times,serif" font-size="14.00">Beta</text>
</g>
<!-- adstock_alpha&#45;&gt;channel_contributions -->
<g id="edge3" class="edge">
<title>adstock_alpha&#45;&gt;channel_contributions</title>
<path fill="none" stroke="black" d="M378.8,-494.26C366.09,-480.9 350.17,-466.84 333,-457.95 280.49,-430.77 214.52,-419 163.68,-413.94"/>
<polygon fill="black" stroke="black" points="164.2,-410.47 153.92,-413.04 163.56,-417.44 164.2,-410.47"/>
</g>
<!-- saturation_lam -->
<g id="node11" class="node">
<title>saturation_lam</title>
<ellipse fill="none" stroke="black" cx="561" cy="-531.11" rx="68.59" ry="40.66"/>
<text text-anchor="middle" x="561" y="-542.56" font-family="Times,serif" font-size="14.00">saturation_lam</text>
<text text-anchor="middle" x="561" y="-526.06" font-family="Times,serif" font-size="14.00">~</text>
<text text-anchor="middle" x="561" y="-509.56" font-family="Times,serif" font-size="14.00">Gamma</text>
</g>
<!-- saturation_lam&#45;&gt;channel_contributions -->
<g id="edge4" class="edge">
<title>saturation_lam&#45;&gt;channel_contributions</title>
<path fill="none" stroke="black" d="M531.65,-493.91C518.36,-480.15 501.47,-465.89 483,-457.95 458.04,-447.22 388.02,-452.77 361,-449.95 294.21,-442.99 218.79,-431.99 163.53,-423.33"/>
<polygon fill="black" stroke="black" points="164.32,-419.91 153.9,-421.81 163.23,-426.83 164.32,-419.91"/>
</g>
<!-- gamma_control -->
<g id="node12" class="node">
<title>gamma_control</title>
<ellipse fill="none" stroke="black" cx="882" cy="-531.11" rx="72.3" ry="40.66"/>
<text text-anchor="middle" x="882" y="-542.56" font-family="Times,serif" font-size="14.00">gamma_control</text>
<text text-anchor="middle" x="882" y="-526.06" font-family="Times,serif" font-size="14.00">~</text>
<text text-anchor="middle" x="882" y="-509.56" font-family="Times,serif" font-size="14.00">Normal</text>
</g>
<!-- control_contributions -->
<g id="node14" class="node">
<title>control_contributions</title>
<polygon fill="none" stroke="black" points="786.12,-438.04 653.88,-438.04 653.88,-380.54 786.12,-380.54 786.12,-438.04"/>
<text text-anchor="middle" x="720" y="-420.74" font-family="Times,serif" font-size="14.00">control_contributions</text>
<text text-anchor="middle" x="720" y="-404.24" font-family="Times,serif" font-size="14.00">~</text>
<text text-anchor="middle" x="720" y="-387.74" font-family="Times,serif" font-size="14.00">Deterministic</text>
</g>
<!-- gamma_control&#45;&gt;control_contributions -->
<g id="edge7" class="edge">
<title>gamma_control&#45;&gt;control_contributions</title>
<path fill="none" stroke="black" d="M845.01,-496.08C830.74,-483.56 814.01,-469.6 798,-457.95 791.65,-453.33 784.84,-448.71 777.98,-444.27"/>
<polygon fill="black" stroke="black" points="780.24,-441.56 769.92,-439.15 776.49,-447.47 780.24,-441.56"/>
</g>
<!-- control_data -->
<g id="node13" class="node">
<title>control_data</title>
<path fill="lightgrey" stroke="black" d="M749.75,-559.86C749.75,-559.86 690.25,-559.86 690.25,-559.86 684.25,-559.86 678.25,-553.86 678.25,-547.86 678.25,-547.86 678.25,-514.36 678.25,-514.36 678.25,-508.36 684.25,-502.36 690.25,-502.36 690.25,-502.36 749.75,-502.36 749.75,-502.36 755.75,-502.36 761.75,-508.36 761.75,-514.36 761.75,-514.36 761.75,-547.86 761.75,-547.86 761.75,-553.86 755.75,-559.86 749.75,-559.86"/>
<text text-anchor="middle" x="720" y="-542.56" font-family="Times,serif" font-size="14.00">control_data</text>
<text text-anchor="middle" x="720" y="-526.06" font-family="Times,serif" font-size="14.00">~</text>
<text text-anchor="middle" x="720" y="-509.56" font-family="Times,serif" font-size="14.00">Data</text>
</g>
<!-- control_data&#45;&gt;control_contributions -->
<g id="edge8" class="edge">
<title>control_data&#45;&gt;control_contributions</title>
<path fill="none" stroke="black" d="M720,-502.02C720,-486.4 720,-466.7 720,-449.58"/>
<polygon fill="black" stroke="black" points="723.5,-449.72 720,-439.72 716.5,-449.72 723.5,-449.72"/>
</g>
<!-- control_contributions&#45;&gt;mu -->
<g id="edge10" class="edge">
<title>control_contributions&#45;&gt;mu</title>
<path fill="none" stroke="black" d="M653.58,-387.04C610.09,-372.68 552.21,-352.74 502,-332.63 491.71,-328.52 480.88,-323.85 470.48,-319.2"/>
<polygon fill="black" stroke="black" points="472.19,-316.13 461.64,-315.2 469.3,-322.51 472.19,-316.13"/>
</g>
</g>
</svg>
