<?xml version="1.0" encoding="UTF-8" standalone="no"?>
<!DOCTYPE svg PUBLIC "-//W3C//DTD SVG 1.1//EN"
 "http://www.w3.org/Graphics/SVG/1.1/DTD/svg11.dtd">
<!-- Generated by graphviz version 2.50.0 (0)
 -->
<!-- Pages: 1 -->
<svg width="399pt" height="188pt"
 viewBox="0.00 0.00 399.09 188.00" xmlns="http://www.w3.org/2000/svg" xmlns:xlink="http://www.w3.org/1999/xlink">
<g id="graph0" class="graph" transform="scale(1 1) rotate(0) translate(4 184)">
<polygon fill="white" stroke="transparent" points="-4,4 -4,-184 395.09,-184 395.09,4 -4,4"/>
<!-- z -->
<g id="node1" class="node">
<title>z</title>
<ellipse fill="none" stroke="grey" stroke-dasharray="5,2" cx="37.05" cy="-162" rx="37.09" ry="18"/>
<text text-anchor="middle" x="37.05" y="-158.3" font-family="Times,serif" font-size="14.00">holiday</text>
</g>
<!-- x2 -->
<g id="node4" class="node">
<title>x2</title>
<ellipse fill="none" stroke="black" cx="75.05" cy="-90" rx="47.39" ry="18"/>
<text text-anchor="middle" x="75.05" y="-86.3" font-family="Times,serif" font-size="14.00">digital ads</text>
</g>
<!-- z&#45;&gt;x2 -->
<g id="edge1" class="edge">
<title>z&#45;&gt;x2</title>
<path fill="none" stroke="black" stroke-dasharray="5,2" d="M46.05,-144.41C50.53,-136.16 56.04,-126.01 61.05,-116.78"/>
<polygon fill="black" stroke="black" points="64.15,-118.41 65.84,-107.96 57.99,-115.07 64.15,-118.41"/>
</g>
<!-- y -->
<g id="node6" class="node">
<title>y</title>
<ellipse fill="none" stroke="black" cx="128.05" cy="-18" rx="46.29" ry="18"/>
<text text-anchor="middle" x="128.05" y="-14.3" font-family="Times,serif" font-size="14.00">new users</text>
</g>
<!-- z&#45;&gt;y -->
<g id="edge4" class="edge">
<title>z&#45;&gt;y</title>
<path fill="none" stroke="black" stroke-dasharray="5,2" d="M27.15,-144.64C17.14,-125.76 5,-94.45 19.05,-72 32.17,-51.02 56.24,-38.13 78.43,-30.33"/>
<polygon fill="black" stroke="black" points="79.68,-33.6 88.11,-27.19 77.52,-26.94 79.68,-33.6"/>
</g>
<!-- m -->
<g id="node2" class="node">
<title>m</title>
<ellipse fill="none" stroke="grey" stroke-dasharray="5,2" cx="181.05" cy="-90" rx="40.09" ry="18"/>
<text text-anchor="middle" x="181.05" y="-86.3" font-family="Times,serif" font-size="14.00">inflation</text>
</g>
<!-- m&#45;&gt;y -->
<g id="edge7" class="edge">
<title>m&#45;&gt;y</title>
<path fill="none" stroke="black" stroke-dasharray="5,2" d="M168.75,-72.76C162.23,-64.14 154.07,-53.36 146.77,-43.73"/>
<polygon fill="black" stroke="black" points="149.47,-41.49 140.64,-35.63 143.89,-45.72 149.47,-41.49"/>
</g>
<!-- x1 -->
<g id="node3" class="node">
<title>x1</title>
<ellipse fill="none" stroke="black" cx="227.05" cy="-162" rx="48.19" ry="18"/>
<text text-anchor="middle" x="227.05" y="-158.3" font-family="Times,serif" font-size="14.00">offline ads</text>
</g>
<!-- x1&#45;&gt;x2 -->
<g id="edge2" class="edge">
<title>x1&#45;&gt;x2</title>
<path fill="none" stroke="black" d="M197.74,-147.5C173.69,-136.43 139.46,-120.66 113.26,-108.6"/>
<polygon fill="black" stroke="black" points="114.55,-105.34 104.01,-104.34 111.62,-111.7 114.55,-105.34"/>
</g>
<!-- x3 -->
<g id="node5" class="node">
<title>x3</title>
<ellipse fill="none" stroke="black" cx="315.05" cy="-90" rx="76.09" ry="18"/>
<text text-anchor="middle" x="315.05" y="-86.3" font-family="Times,serif" font-size="14.00">internal marketing</text>
</g>
<!-- x1&#45;&gt;x3 -->
<g id="edge3" class="edge">
<title>x1&#45;&gt;x3</title>
<path fill="none" stroke="black" d="M246.58,-145.46C258.21,-136.21 273.18,-124.3 286.16,-113.98"/>
<polygon fill="black" stroke="black" points="288.7,-116.43 294.35,-107.47 284.34,-110.95 288.7,-116.43"/>
</g>
<!-- x2&#45;&gt;y -->
<g id="edge5" class="edge">
<title>x2&#45;&gt;y</title>
<path fill="none" stroke="black" d="M87.61,-72.41C94.14,-63.78 102.26,-53.06 109.5,-43.5"/>
<polygon fill="black" stroke="black" points="112.33,-45.56 115.58,-35.47 106.75,-41.33 112.33,-45.56"/>
</g>
<!-- x3&#45;&gt;y -->
<g id="edge6" class="edge">
<title>x3&#45;&gt;y</title>
<path fill="none" stroke="black" d="M276.3,-74.5C245.18,-62.85 201.56,-46.52 169.7,-34.59"/>
<polygon fill="black" stroke="black" points="170.8,-31.27 160.21,-31.04 168.35,-37.82 170.8,-31.27"/>
</g>
</g>
</svg>
