<?xml version="1.0" encoding="UTF-8" standalone="no"?>
<!DOCTYPE svg PUBLIC "-//W3C//DTD SVG 1.1//EN"
 "http://www.w3.org/Graphics/SVG/1.1/DTD/svg11.dtd">
<!-- Generated by graphviz version 14.1.2 (0)
 -->
<!-- Pages: 1 -->
<svg width="481pt" height="308pt"
 viewBox="0.00 0.00 481.00 308.00" xmlns="http://www.w3.org/2000/svg" xmlns:xlink="http://www.w3.org/1999/xlink">
<g id="graph0" class="graph" transform="scale(1 1) rotate(0) translate(4 304.08)">
<polygon fill="#fdf6ed" stroke="none" points="-4,4 -4,-304.08 476.87,-304.08 476.87,4 -4,4"/>
<g id="clust1" class="cluster">
<title>clusterpair (21)</title>
<path fill="#fdf6ed" stroke="#778873" d="M148.65,-178.13C148.65,-178.13 260.65,-178.13 260.65,-178.13 266.65,-178.13 272.65,-184.13 272.65,-190.13 272.65,-190.13 272.65,-280.08 272.65,-280.08 272.65,-286.08 266.65,-292.08 260.65,-292.08 260.65,-292.08 148.65,-292.08 148.65,-292.08 142.65,-292.08 136.65,-286.08 136.65,-280.08 136.65,-280.08 136.65,-190.13 136.65,-190.13 136.65,-184.13 142.65,-178.13 148.65,-178.13"/>
<text xml:space="preserve" text-anchor="middle" x="239.52" y="-183.83" font-family="Inter, Helvetica, Arial, sans-serif" font-size="14.00" fill="#2b2a26">pair (21)</text>
</g>
<!-- edge -->
<g id="node1" class="node">
<title>edge</title>
<ellipse fill="none" stroke="#778873" cx="204.65" cy="-246.61" rx="59.57" ry="37.48"/>
<text xml:space="preserve" text-anchor="middle" x="204.65" y="-255.81" font-family="Inter, Helvetica, Arial, sans-serif" font-size="14.00" fill="#2b2a26">edge</text>
<text xml:space="preserve" text-anchor="middle" x="204.65" y="-240.81" font-family="Inter, Helvetica, Arial, sans-serif" font-size="14.00" fill="#2b2a26">~</text>
<text xml:space="preserve" text-anchor="middle" x="204.65" y="-225.81" font-family="Inter, Helvetica, Arial, sans-serif" font-size="14.00" fill="#2b2a26">Categorical</text>
</g>
<!-- dag_support -->
<g id="node2" class="node">
<title>dag_support</title>
<polygon fill="#f2ede3" stroke="#778873" points="139.3,-112.76 139.3,-146.37 98.5,-170.13 40.8,-170.13 0,-146.37 0,-112.76 40.8,-89 98.5,-89 139.3,-112.76"/>
<text xml:space="preserve" text-anchor="middle" x="69.65" y="-138.76" font-family="Inter, Helvetica, Arial, sans-serif" font-size="14.00" fill="#2b2a26">dag_support</text>
<text xml:space="preserve" text-anchor="middle" x="69.65" y="-123.76" font-family="Inter, Helvetica, Arial, sans-serif" font-size="14.00" fill="#2b2a26">~</text>
<text xml:space="preserve" text-anchor="middle" x="69.65" y="-108.76" font-family="Inter, Helvetica, Arial, sans-serif" font-size="14.00" fill="#2b2a26">Potential</text>
</g>
<!-- edge&#45;&gt;dag_support -->
<g id="edge1" class="edge">
<title>edge&#45;&gt;dag_support</title>
<path fill="none" stroke="#4f6b4a" d="M169.88,-215.98C153.9,-202.36 134.7,-185.99 117.39,-171.25"/>
<polygon fill="#4f6b4a" stroke="#4f6b4a" points="120.1,-168.96 110.22,-165.14 115.56,-174.29 120.1,-168.96"/>
</g>
<!-- edge_count -->
<g id="node3" class="node">
<title>edge_count</title>
<polygon fill="none" stroke="#778873" points="252.02,-156.06 157.27,-156.06 157.27,-103.06 252.02,-103.06 252.02,-156.06"/>
<text xml:space="preserve" text-anchor="middle" x="204.65" y="-138.76" font-family="Inter, Helvetica, Arial, sans-serif" font-size="14.00" fill="#2b2a26">edge_count</text>
<text xml:space="preserve" text-anchor="middle" x="204.65" y="-123.76" font-family="Inter, Helvetica, Arial, sans-serif" font-size="14.00" fill="#2b2a26">~</text>
<text xml:space="preserve" text-anchor="middle" x="204.65" y="-108.76" font-family="Inter, Helvetica, Arial, sans-serif" font-size="14.00" fill="#2b2a26">Deterministic</text>
</g>
<!-- edge&#45;&gt;edge_count -->
<g id="edge4" class="edge">
<title>edge&#45;&gt;edge_count</title>
<path fill="none" stroke="#4f6b4a" d="M204.65,-208.89C204.65,-195.67 204.65,-180.75 204.65,-167.51"/>
<polygon fill="#4f6b4a" stroke="#4f6b4a" points="208.15,-167.9 204.65,-157.9 201.15,-167.9 208.15,-167.9"/>
</g>
<!-- marginal_likelihood -->
<g id="node5" class="node">
<title>marginal_likelihood</title>
<polygon fill="#f2ede3" stroke="#778873" points="472.87,-112.76 472.87,-146.37 413.57,-170.13 329.72,-170.13 270.43,-146.37 270.43,-112.76 329.72,-89 413.57,-89 472.87,-112.76"/>
<text xml:space="preserve" text-anchor="middle" x="371.65" y="-138.76" font-family="Inter, Helvetica, Arial, sans-serif" font-size="14.00" fill="#2b2a26">marginal_likelihood</text>
<text xml:space="preserve" text-anchor="middle" x="371.65" y="-123.76" font-family="Inter, Helvetica, Arial, sans-serif" font-size="14.00" fill="#2b2a26">~</text>
<text xml:space="preserve" text-anchor="middle" x="371.65" y="-108.76" font-family="Inter, Helvetica, Arial, sans-serif" font-size="14.00" fill="#2b2a26">Potential</text>
</g>
<!-- edge&#45;&gt;marginal_likelihood -->
<g id="edge2" class="edge">
<title>edge&#45;&gt;marginal_likelihood</title>
<path fill="none" stroke="#4f6b4a" d="M244.23,-218.34C263.97,-204.74 288.31,-187.98 310.4,-172.76"/>
<polygon fill="#4f6b4a" stroke="#4f6b4a" points="312.21,-175.76 318.46,-167.2 308.24,-170 312.21,-175.76"/>
</g>
<!-- log_evidence -->
<g id="node4" class="node">
<title>log_evidence</title>
<polygon fill="none" stroke="#778873" points="419.4,-53 323.9,-53 323.9,0 419.4,0 419.4,-53"/>
<text xml:space="preserve" text-anchor="middle" x="371.65" y="-35.7" font-family="Inter, Helvetica, Arial, sans-serif" font-size="14.00" fill="#2b2a26">log_evidence</text>
<text xml:space="preserve" text-anchor="middle" x="371.65" y="-20.7" font-family="Inter, Helvetica, Arial, sans-serif" font-size="14.00" fill="#2b2a26">~</text>
<text xml:space="preserve" text-anchor="middle" x="371.65" y="-5.7" font-family="Inter, Helvetica, Arial, sans-serif" font-size="14.00" fill="#2b2a26">Deterministic</text>
</g>
<!-- marginal_likelihood&#45;&gt;log_evidence -->
<g id="edge3" class="edge">
<title>marginal_likelihood&#45;&gt;log_evidence</title>
<path fill="none" stroke="#4f6b4a" d="M371.65,-88.62C371.65,-80.71 371.65,-72.43 371.65,-64.61"/>
<polygon fill="#4f6b4a" stroke="#4f6b4a" points="375.15,-64.73 371.65,-54.73 368.15,-64.73 375.15,-64.73"/>
</g>
</g>
</svg>
