<?xml version="1.0" encoding="UTF-8" standalone="no"?>
<!DOCTYPE svg PUBLIC "-//W3C//DTD SVG 1.1//EN"
 "http://www.w3.org/Graphics/SVG/1.1/DTD/svg11.dtd">
<!-- Generated by graphviz version 14.1.2 (0)
 -->
<!-- Pages: 1 -->
<svg width="481pt" height="308pt"
 viewBox="0.00 0.00 481.00 308.00" xmlns="http://www.w3.org/2000/svg" xmlns:xlink="http://www.w3.org/1999/xlink">
<g id="graph0" class="graph" transform="scale(1 1) rotate(0) translate(4 304.08)">
<polygon fill="#fdf6ed" stroke="none" points="-4,4 -4,-304.08 476.59,-304.08 476.59,4 -4,4"/>
<g id="clust1" class="cluster">
<title>clusterpair (21)</title>
<path fill="#fdf6ed" stroke="#778873" d="M234.22,-178.13C234.22,-178.13 346.22,-178.13 346.22,-178.13 352.22,-178.13 358.22,-184.13 358.22,-190.13 358.22,-190.13 358.22,-280.08 358.22,-280.08 358.22,-286.08 352.22,-292.08 346.22,-292.08 346.22,-292.08 234.22,-292.08 234.22,-292.08 228.22,-292.08 222.22,-286.08 222.22,-280.08 222.22,-280.08 222.22,-190.13 222.22,-190.13 222.22,-184.13 228.22,-178.13 234.22,-178.13"/>
<text xml:space="preserve" text-anchor="middle" x="325.09" y="-183.83" font-family="Inter, Helvetica, Arial, sans-serif" font-size="14.00" fill="#2b2a26">pair (21)</text>
</g>
<!-- edge -->
<g id="node1" class="node">
<title>edge</title>
<ellipse fill="none" stroke="#778873" cx="290.22" cy="-246.61" rx="59.57" ry="37.48"/>
<text xml:space="preserve" text-anchor="middle" x="290.22" y="-255.81" font-family="Inter, Helvetica, Arial, sans-serif" font-size="14.00" fill="#2b2a26">edge</text>
<text xml:space="preserve" text-anchor="middle" x="290.22" y="-240.81" font-family="Inter, Helvetica, Arial, sans-serif" font-size="14.00" fill="#2b2a26">~</text>
<text xml:space="preserve" text-anchor="middle" x="290.22" y="-225.81" font-family="Inter, Helvetica, Arial, sans-serif" font-size="14.00" fill="#2b2a26">Categorical</text>
</g>
<!-- marginal_likelihood -->
<g id="node2" class="node">
<title>marginal_likelihood</title>
<polygon fill="#f2ede3" stroke="#778873" points="202.44,-112.76 202.44,-146.37 143.15,-170.13 59.29,-170.13 0,-146.37 0,-112.76 59.29,-89 143.15,-89 202.44,-112.76"/>
<text xml:space="preserve" text-anchor="middle" x="101.22" y="-138.76" font-family="Inter, Helvetica, Arial, sans-serif" font-size="14.00" fill="#2b2a26">marginal_likelihood</text>
<text xml:space="preserve" text-anchor="middle" x="101.22" y="-123.76" font-family="Inter, Helvetica, Arial, sans-serif" font-size="14.00" fill="#2b2a26">~</text>
<text xml:space="preserve" text-anchor="middle" x="101.22" y="-108.76" font-family="Inter, Helvetica, Arial, sans-serif" font-size="14.00" fill="#2b2a26">Potential</text>
</g>
<!-- edge&#45;&gt;marginal_likelihood -->
<g id="edge2" class="edge">
<title>edge&#45;&gt;marginal_likelihood</title>
<path fill="none" stroke="#4f6b4a" d="M247.8,-219.79C224.06,-205.33 193.93,-186.99 167.17,-170.71"/>
<polygon fill="#4f6b4a" stroke="#4f6b4a" points="169.13,-167.81 158.77,-165.6 165.49,-173.78 169.13,-167.81"/>
</g>
<!-- dag_support -->
<g id="node3" class="node">
<title>dag_support</title>
<polygon fill="#f2ede3" stroke="#778873" points="359.87,-112.76 359.87,-146.37 319.07,-170.13 261.37,-170.13 220.57,-146.37 220.57,-112.76 261.37,-89 319.07,-89 359.87,-112.76"/>
<text xml:space="preserve" text-anchor="middle" x="290.22" y="-138.76" font-family="Inter, Helvetica, Arial, sans-serif" font-size="14.00" fill="#2b2a26">dag_support</text>
<text xml:space="preserve" text-anchor="middle" x="290.22" y="-123.76" font-family="Inter, Helvetica, Arial, sans-serif" font-size="14.00" fill="#2b2a26">~</text>
<text xml:space="preserve" text-anchor="middle" x="290.22" y="-108.76" font-family="Inter, Helvetica, Arial, sans-serif" font-size="14.00" fill="#2b2a26">Potential</text>
</g>
<!-- edge&#45;&gt;dag_support -->
<g id="edge1" class="edge">
<title>edge&#45;&gt;dag_support</title>
<path fill="none" stroke="#4f6b4a" d="M290.22,-208.89C290.22,-200.29 290.22,-190.97 290.22,-181.87"/>
<polygon fill="#4f6b4a" stroke="#4f6b4a" points="293.72,-182.03 290.22,-172.03 286.72,-182.03 293.72,-182.03"/>
</g>
<!-- edge_count -->
<g id="node5" class="node">
<title>edge_count</title>
<polygon fill="none" stroke="#778873" points="472.59,-156.06 377.84,-156.06 377.84,-103.06 472.59,-103.06 472.59,-156.06"/>
<text xml:space="preserve" text-anchor="middle" x="425.22" y="-138.76" font-family="Inter, Helvetica, Arial, sans-serif" font-size="14.00" fill="#2b2a26">edge_count</text>
<text xml:space="preserve" text-anchor="middle" x="425.22" y="-123.76" font-family="Inter, Helvetica, Arial, sans-serif" font-size="14.00" fill="#2b2a26">~</text>
<text xml:space="preserve" text-anchor="middle" x="425.22" y="-108.76" font-family="Inter, Helvetica, Arial, sans-serif" font-size="14.00" fill="#2b2a26">Deterministic</text>
</g>
<!-- edge&#45;&gt;edge_count -->
<g id="edge4" class="edge">
<title>edge&#45;&gt;edge_count</title>
<path fill="none" stroke="#4f6b4a" d="M324.99,-215.98C343.82,-199.93 367.14,-180.06 386.55,-163.52"/>
<polygon fill="#4f6b4a" stroke="#4f6b4a" points="388.66,-166.31 394,-157.16 384.12,-160.99 388.66,-166.31"/>
</g>
<!-- log_evidence -->
<g id="node4" class="node">
<title>log_evidence</title>
<polygon fill="none" stroke="#778873" points="148.97,-53 53.47,-53 53.47,0 148.97,0 148.97,-53"/>
<text xml:space="preserve" text-anchor="middle" x="101.22" y="-35.7" font-family="Inter, Helvetica, Arial, sans-serif" font-size="14.00" fill="#2b2a26">log_evidence</text>
<text xml:space="preserve" text-anchor="middle" x="101.22" y="-20.7" font-family="Inter, Helvetica, Arial, sans-serif" font-size="14.00" fill="#2b2a26">~</text>
<text xml:space="preserve" text-anchor="middle" x="101.22" y="-5.7" font-family="Inter, Helvetica, Arial, sans-serif" font-size="14.00" fill="#2b2a26">Deterministic</text>
</g>
<!-- marginal_likelihood&#45;&gt;log_evidence -->
<g id="edge3" class="edge">
<title>marginal_likelihood&#45;&gt;log_evidence</title>
<path fill="none" stroke="#4f6b4a" d="M101.22,-88.62C101.22,-80.71 101.22,-72.43 101.22,-64.61"/>
<polygon fill="#4f6b4a" stroke="#4f6b4a" points="104.72,-64.73 101.22,-54.73 97.72,-64.73 104.72,-64.73"/>
</g>
</g>
</svg>
