<?xml version="1.0" encoding="UTF-8" standalone="no"?>
<!DOCTYPE svg PUBLIC "-//W3C//DTD SVG 1.1//EN"
 "http://www.w3.org/Graphics/SVG/1.1/DTD/svg11.dtd">
<!-- Generated by graphviz version 14.1.2 (20260126.1125)
 -->
<!-- Pages: 1 -->
<svg width="3196pt" height="1454pt"
 viewBox="0.00 0.00 3196.00 1454.00" xmlns="http://www.w3.org/2000/svg" xmlns:xlink="http://www.w3.org/1999/xlink">
<g id="graph0" class="graph" transform="scale(2.08333 2.08333) rotate(0) translate(4 694)">
<polygon fill="white" stroke="none" points="-4,4 -4,-694 1530,-694 1530,4 -4,4"/>
<g id="clust1" class="cluster">
<title>clusterspend_city (2) x channel (10)</title>
<path fill="none" stroke="black" d="M275.5,-26C275.5,-26 528.25,-26 528.25,-26 534.25,-26 540.25,-32 540.25,-38 540.25,-38 540.25,-112 540.25,-112 540.25,-118 534.25,-124 528.25,-124 528.25,-124 275.5,-124 275.5,-124 269.5,-124 263.5,-118 263.5,-112 263.5,-112 263.5,-38 263.5,-38 263.5,-32 269.5,-26 275.5,-26"/>
<text xml:space="preserve" text-anchor="middle" x="452" y="-33.2" font-family="Times,serif" font-size="14.00">spend_city (2) x channel (10)</text>
</g>
<g id="clust2" class="cluster">
<title>clustercity (2) x spend_city (2) x channel (10)</title>
<path fill="none" stroke="black" d="M431,-252C431,-252 743.88,-252 743.88,-252 749.88,-252 755.88,-258 755.88,-264 755.88,-264 755.88,-338 755.88,-338 755.88,-344 749.88,-350 743.88,-350 743.88,-350 431,-350 431,-350 425,-350 419,-344 419,-338 419,-338 419,-264 419,-264 419,-258 425,-252 431,-252"/>
<text xml:space="preserve" text-anchor="middle" x="640.63" y="-259.2" font-family="Times,serif" font-size="14.00">city (2) x spend_city (2) x channel (10)</text>
</g>
<g id="clust3" class="cluster">
<title>clusterdate (104) x city (2)</title>
<path fill="none" stroke="black" d="M1171.5,-496C1171.5,-496 1506,-496 1506,-496 1512,-496 1518,-502 1518,-508 1518,-508 1518,-582 1518,-582 1518,-588 1512,-594 1506,-594 1506,-594 1171.5,-594 1171.5,-594 1165.5,-594 1159.5,-588 1159.5,-582 1159.5,-582 1159.5,-508 1159.5,-508 1159.5,-502 1165.5,-496 1171.5,-496"/>
<text xml:space="preserve" text-anchor="middle" x="1455.25" y="-503.2" font-family="Times,serif" font-size="14.00">date (104) x city (2)</text>
</g>
<g id="clust4" class="cluster">
<title>clusterdirect_active_city_channel (6)</title>
<path fill="none" stroke="black" d="M20,-138C20,-138 216,-138 216,-138 222,-138 228,-144 228,-150 228,-150 228,-446 228,-446 228,-452 222,-458 216,-458 216,-458 20,-458 20,-458 14,-458 8,-452 8,-446 8,-446 8,-150 8,-150 8,-144 14,-138 20,-138"/>
<text xml:space="preserve" text-anchor="middle" x="137.5" y="-145.2" font-family="Times,serif" font-size="14.00">direct_active_city_channel (6)</text>
</g>
<g id="clust5" class="cluster">
<title>clustercity (2) x channel (10)</title>
<path fill="none" stroke="black" d="M260,-144C260,-144 374.25,-144 374.25,-144 380.25,-144 386.25,-150 386.25,-156 386.25,-156 386.25,-458 386.25,-458 386.25,-464 380.25,-470 374.25,-470 374.25,-470 260,-470 260,-470 254,-470 248,-464 248,-458 248,-458 248,-156 248,-156 248,-150 254,-144 260,-144"/>
<text xml:space="preserve" text-anchor="middle" x="317.13" y="-151.2" font-family="Times,serif" font-size="14.00">city (2) x channel (10)</text>
</g>
<g id="clust6" class="cluster">
<title>clustercity (2)</title>
<path fill="none" stroke="black" d="M443.38,-584C443.38,-584 515.88,-584 515.88,-584 521.88,-584 527.88,-590 527.88,-596 527.88,-596 527.88,-670 527.88,-670 527.88,-676 521.88,-682 515.88,-682 515.88,-682 443.38,-682 443.38,-682 437.38,-682 431.38,-676 431.38,-670 431.38,-670 431.38,-596 431.38,-596 431.38,-590 437.38,-584 443.38,-584"/>
<text xml:space="preserve" text-anchor="middle" x="500" y="-591.2" font-family="Times,serif" font-size="14.00">city (2)</text>
</g>
<g id="clust7" class="cluster">
<title>clusterdate (104) x city (2) x channel (10)</title>
<path fill="none" stroke="black" d="M277,-478C277,-478 541,-478 541,-478 547,-478 553,-484 553,-490 553,-490 553,-564 553,-564 553,-570 547,-576 541,-576 541,-576 277,-576 277,-576 271,-576 265,-570 265,-564 265,-564 265,-490 265,-490 265,-484 271,-478 277,-478"/>
<text xml:space="preserve" text-anchor="middle" x="449" y="-485.2" font-family="Times,serif" font-size="14.00">date (104) x city (2) x channel (10)</text>
</g>
<g id="clust8" class="cluster">
<title>clusterdate (104) x spend_city (2) x channel (10)</title>
<path fill="none" stroke="black" d="M585,-484C585,-484 807.25,-484 807.25,-484 813.25,-484 819.25,-490 819.25,-496 819.25,-496 819.25,-570 819.25,-570 819.25,-576 813.25,-582 807.25,-582 807.25,-582 585,-582 585,-582 579,-582 573,-576 573,-570 573,-570 573,-496 573,-496 573,-490 579,-484 585,-484"/>
<text xml:space="preserve" text-anchor="middle" x="696.13" y="-491.2" font-family="Times,serif" font-size="14.00">date (104) x spend_city (2) x channel (10)</text>
</g>
<g id="clust9" class="cluster">
<title>clusterdate (104) x city (2) x spend_city (2) x channel (10)</title>
<path fill="none" stroke="black" d="M851.25,-484C851.25,-484 1127.5,-484 1127.5,-484 1133.5,-484 1139.5,-490 1139.5,-496 1139.5,-496 1139.5,-570 1139.5,-570 1139.5,-576 1133.5,-582 1127.5,-582 1127.5,-582 851.25,-582 851.25,-582 845.25,-582 839.25,-576 839.25,-570 839.25,-570 839.25,-496 839.25,-496 839.25,-490 845.25,-484 851.25,-484"/>
<text xml:space="preserve" text-anchor="middle" x="989.38" y="-491.2" font-family="Times,serif" font-size="14.00">date (104) x city (2) x spend_city (2) x channel (10)</text>
</g>
<g id="clust10" class="cluster">
<title>clusterspill_active_source_channel (3)</title>
<path fill="none" stroke="black" d="M32.2,-8C32.2,-8 203.8,-8 203.8,-8 209.8,-8 215.8,-14 215.8,-20 215.8,-20 215.8,-118 215.8,-118 215.8,-124 209.8,-130 203.8,-130 203.8,-130 32.2,-130 32.2,-130 26.2,-130 20.2,-124 20.2,-118 20.2,-118 20.2,-20 20.2,-20 20.2,-14 26.2,-8 32.2,-8"/>
<text xml:space="preserve" text-anchor="middle" x="121.55" y="-15.2" font-family="Times,serif" font-size="14.00">spill_active_source_channel (3)</text>
</g>
<!-- spill_fraction -->
<g id="node1" class="node">
<title>spill_fraction</title>
<polygon fill="none" stroke="black" points="361.75,-115.75 271.5,-115.75 271.5,-58.25 361.75,-58.25 361.75,-115.75"/>
<text xml:space="preserve" text-anchor="middle" x="316.63" y="-98.45" font-family="Times,serif" font-size="14.00">spill_fraction</text>
<text xml:space="preserve" text-anchor="middle" x="316.63" y="-81.95" font-family="Times,serif" font-size="14.00">~</text>
<text xml:space="preserve" text-anchor="middle" x="316.63" y="-65.45" font-family="Times,serif" font-size="14.00">Deterministic</text>
</g>
<!-- spill_total_share -->
<g id="node2" class="node">
<title>spill_total_share</title>
<polygon fill="none" stroke="black" points="532.25,-115.75 427,-115.75 427,-58.25 532.25,-58.25 532.25,-115.75"/>
<text xml:space="preserve" text-anchor="middle" x="479.63" y="-98.45" font-family="Times,serif" font-size="14.00">spill_total_share</text>
<text xml:space="preserve" text-anchor="middle" x="479.63" y="-81.95" font-family="Times,serif" font-size="14.00">~</text>
<text xml:space="preserve" text-anchor="middle" x="479.63" y="-65.45" font-family="Times,serif" font-size="14.00">Deterministic</text>
</g>
<!-- spill_fraction&#45;&gt;spill_total_share -->
<g id="edge1" class="edge">
<title>spill_fraction&#45;&gt;spill_total_share</title>
<path fill="none" stroke="black" d="M362.05,-87C378.46,-87 397.4,-87 415.18,-87"/>
<polygon fill="black" stroke="black" points="415.14,-90.5 425.14,-87 415.14,-83.5 415.14,-90.5"/>
</g>
<!-- spill_path_share -->
<g id="node3" class="node">
<title>spill_path_share</title>
<polygon fill="none" stroke="black" points="747.88,-341.75 643.38,-341.75 643.38,-284.25 747.88,-284.25 747.88,-341.75"/>
<text xml:space="preserve" text-anchor="middle" x="695.63" y="-324.45" font-family="Times,serif" font-size="14.00">spill_path_share</text>
<text xml:space="preserve" text-anchor="middle" x="695.63" y="-307.95" font-family="Times,serif" font-size="14.00">~</text>
<text xml:space="preserve" text-anchor="middle" x="695.63" y="-291.45" font-family="Times,serif" font-size="14.00">Deterministic</text>
</g>
<!-- spill_total_share&#45;&gt;spill_path_share -->
<g id="edge3" class="edge">
<title>spill_total_share&#45;&gt;spill_path_share</title>
<path fill="none" stroke="black" d="M508.16,-116.08C546.77,-156.85 616.98,-231 659.36,-275.76"/>
<polygon fill="black" stroke="black" points="656.73,-278.07 666.15,-282.93 661.82,-273.26 656.73,-278.07"/>
</g>
<!-- spill_by_path_original_scale -->
<g id="node18" class="node">
<title>spill_by_path_original_scale</title>
<polygon fill="none" stroke="black" points="1074.88,-573.75 902.88,-573.75 902.88,-516.25 1074.88,-516.25 1074.88,-573.75"/>
<text xml:space="preserve" text-anchor="middle" x="988.88" y="-556.45" font-family="Times,serif" font-size="14.00">spill_by_path_original_scale</text>
<text xml:space="preserve" text-anchor="middle" x="988.88" y="-539.95" font-family="Times,serif" font-size="14.00">~</text>
<text xml:space="preserve" text-anchor="middle" x="988.88" y="-523.45" font-family="Times,serif" font-size="14.00">Deterministic</text>
</g>
<!-- spill_path_share&#45;&gt;spill_by_path_original_scale -->
<g id="edge18" class="edge">
<title>spill_path_share&#45;&gt;spill_by_path_original_scale</title>
<path fill="none" stroke="black" d="M733.22,-342.15C786.3,-384.43 884.59,-462.73 942.3,-508.7"/>
<polygon fill="black" stroke="black" points="940.02,-511.35 950.02,-514.85 944.38,-505.88 940.02,-511.35"/>
</g>
<!-- spill_path_mask -->
<g id="node4" class="node">
<title>spill_path_mask</title>
<path fill="lightgrey" stroke="black" d="M520.25,-341.75C520.25,-341.75 439,-341.75 439,-341.75 433,-341.75 427,-335.75 427,-329.75 427,-329.75 427,-296.25 427,-296.25 427,-290.25 433,-284.25 439,-284.25 439,-284.25 520.25,-284.25 520.25,-284.25 526.25,-284.25 532.25,-290.25 532.25,-296.25 532.25,-296.25 532.25,-329.75 532.25,-329.75 532.25,-335.75 526.25,-341.75 520.25,-341.75"/>
<text xml:space="preserve" text-anchor="middle" x="479.63" y="-324.45" font-family="Times,serif" font-size="14.00">spill_path_mask</text>
<text xml:space="preserve" text-anchor="middle" x="479.63" y="-307.95" font-family="Times,serif" font-size="14.00">~</text>
<text xml:space="preserve" text-anchor="middle" x="479.63" y="-291.45" font-family="Times,serif" font-size="14.00">Data</text>
</g>
<!-- spill_path_mask&#45;&gt;spill_path_share -->
<g id="edge2" class="edge">
<title>spill_path_mask&#45;&gt;spill_path_share</title>
<path fill="none" stroke="black" d="M532.7,-313C562.56,-313 600.25,-313 631.76,-313"/>
<polygon fill="black" stroke="black" points="631.54,-316.5 641.54,-313 631.54,-309.5 631.54,-316.5"/>
</g>
<!-- spill_contribution_original_scale -->
<g id="node5" class="node">
<title>spill_contribution_original_scale</title>
<polygon fill="none" stroke="black" points="1362,-585.75 1167.5,-585.75 1167.5,-528.25 1362,-528.25 1362,-585.75"/>
<text xml:space="preserve" text-anchor="middle" x="1264.75" y="-568.45" font-family="Times,serif" font-size="14.00">spill_contribution_original_scale</text>
<text xml:space="preserve" text-anchor="middle" x="1264.75" y="-551.95" font-family="Times,serif" font-size="14.00">~</text>
<text xml:space="preserve" text-anchor="middle" x="1264.75" y="-535.45" font-family="Times,serif" font-size="14.00">Deterministic</text>
</g>
<!-- spill_contribution -->
<g id="node6" class="node">
<title>spill_contribution</title>
<polygon fill="none" stroke="black" points="1510,-585.75 1398,-585.75 1398,-528.25 1510,-528.25 1510,-585.75"/>
<text xml:space="preserve" text-anchor="middle" x="1454" y="-568.45" font-family="Times,serif" font-size="14.00">spill_contribution</text>
<text xml:space="preserve" text-anchor="middle" x="1454" y="-551.95" font-family="Times,serif" font-size="14.00">~</text>
<text xml:space="preserve" text-anchor="middle" x="1454" y="-535.45" font-family="Times,serif" font-size="14.00">Deterministic</text>
</g>
<!-- spill_contribution_original_scale&#45;&gt;spill_contribution -->
<g id="edge13" class="edge">
<title>spill_contribution_original_scale&#45;&gt;spill_contribution</title>
<path fill="none" stroke="black" d="M1362.39,-557C1370.56,-557 1378.7,-557 1386.56,-557"/>
<polygon fill="black" stroke="black" points="1386.34,-560.5 1396.34,-557 1386.34,-553.5 1386.34,-560.5"/>
</g>
<!-- saturation_lam_active -->
<g id="node7" class="node">
<title>saturation_lam_active</title>
<ellipse fill="none" stroke="black" cx="118" cy="-211" rx="96.17" ry="40.66"/>
<text xml:space="preserve" text-anchor="middle" x="118" y="-222.45" font-family="Times,serif" font-size="14.00">saturation_lam_active</text>
<text xml:space="preserve" text-anchor="middle" x="118" y="-205.95" font-family="Times,serif" font-size="14.00">~</text>
<text xml:space="preserve" text-anchor="middle" x="118" y="-189.45" font-family="Times,serif" font-size="14.00">Lognormal</text>
</g>
<!-- saturation_lam -->
<g id="node10" class="node">
<title>saturation_lam</title>
<polygon fill="none" stroke="black" points="365.13,-233.75 268.13,-233.75 268.13,-176.25 365.13,-176.25 365.13,-233.75"/>
<text xml:space="preserve" text-anchor="middle" x="316.63" y="-216.45" font-family="Times,serif" font-size="14.00">saturation_lam</text>
<text xml:space="preserve" text-anchor="middle" x="316.63" y="-199.95" font-family="Times,serif" font-size="14.00">~</text>
<text xml:space="preserve" text-anchor="middle" x="316.63" y="-183.45" font-family="Times,serif" font-size="14.00">Deterministic</text>
</g>
<!-- saturation_lam_active&#45;&gt;saturation_lam -->
<g id="edge15" class="edge">
<title>saturation_lam_active&#45;&gt;saturation_lam</title>
<path fill="none" stroke="black" d="M214.14,-208.1C228.55,-207.66 243.05,-207.21 256.39,-206.81"/>
<polygon fill="black" stroke="black" points="256.4,-210.31 266.28,-206.51 256.18,-203.31 256.4,-210.31"/>
</g>
<!-- saturation_alpha_active -->
<g id="node8" class="node">
<title>saturation_alpha_active</title>
<ellipse fill="none" stroke="black" cx="118" cy="-310" rx="102" ry="40.66"/>
<text xml:space="preserve" text-anchor="middle" x="118" y="-321.45" font-family="Times,serif" font-size="14.00">saturation_alpha_active</text>
<text xml:space="preserve" text-anchor="middle" x="118" y="-304.95" font-family="Times,serif" font-size="14.00">~</text>
<text xml:space="preserve" text-anchor="middle" x="118" y="-288.45" font-family="Times,serif" font-size="14.00">Gamma</text>
</g>
<!-- saturation_alpha -->
<g id="node13" class="node">
<title>saturation_alpha</title>
<polygon fill="none" stroke="black" points="369.25,-309.75 264,-309.75 264,-252.25 369.25,-252.25 369.25,-309.75"/>
<text xml:space="preserve" text-anchor="middle" x="316.63" y="-292.45" font-family="Times,serif" font-size="14.00">saturation_alpha</text>
<text xml:space="preserve" text-anchor="middle" x="316.63" y="-275.95" font-family="Times,serif" font-size="14.00">~</text>
<text xml:space="preserve" text-anchor="middle" x="316.63" y="-259.45" font-family="Times,serif" font-size="14.00">Deterministic</text>
</g>
<!-- saturation_alpha_active&#45;&gt;saturation_alpha -->
<g id="edge16" class="edge">
<title>saturation_alpha_active&#45;&gt;saturation_alpha</title>
<path fill="none" stroke="black" d="M214.14,-295.97C227.2,-294.04 240.34,-292.1 252.62,-290.29"/>
<polygon fill="black" stroke="black" points="252.76,-293.81 262.14,-288.89 251.74,-286.88 252.76,-293.81"/>
</g>
<!-- adstock_alpha_active -->
<g id="node9" class="node">
<title>adstock_alpha_active</title>
<ellipse fill="none" stroke="black" cx="118" cy="-409" rx="93.51" ry="40.66"/>
<text xml:space="preserve" text-anchor="middle" x="118" y="-420.45" font-family="Times,serif" font-size="14.00">adstock_alpha_active</text>
<text xml:space="preserve" text-anchor="middle" x="118" y="-403.95" font-family="Times,serif" font-size="14.00">~</text>
<text xml:space="preserve" text-anchor="middle" x="118" y="-387.45" font-family="Times,serif" font-size="14.00">Beta</text>
</g>
<!-- adstock_alpha -->
<g id="node11" class="node">
<title>adstock_alpha</title>
<polygon fill="none" stroke="black" points="363.25,-461.75 270,-461.75 270,-404.25 363.25,-404.25 363.25,-461.75"/>
<text xml:space="preserve" text-anchor="middle" x="316.63" y="-444.45" font-family="Times,serif" font-size="14.00">adstock_alpha</text>
<text xml:space="preserve" text-anchor="middle" x="316.63" y="-427.95" font-family="Times,serif" font-size="14.00">~</text>
<text xml:space="preserve" text-anchor="middle" x="316.63" y="-411.45" font-family="Times,serif" font-size="14.00">Deterministic</text>
</g>
<!-- adstock_alpha_active&#45;&gt;adstock_alpha -->
<g id="edge5" class="edge">
<title>adstock_alpha_active&#45;&gt;adstock_alpha</title>
<path fill="none" stroke="black" d="M208.39,-419.91C225.46,-421.99 242.88,-424.12 258.58,-426.04"/>
<polygon fill="black" stroke="black" points="257.84,-429.47 268.19,-427.21 258.68,-422.52 257.84,-429.47"/>
</g>
<!-- channel_contribution -->
<g id="node16" class="node">
<title>channel_contribution</title>
<polygon fill="none" stroke="black" points="545,-567.75 414.25,-567.75 414.25,-510.25 545,-510.25 545,-567.75"/>
<text xml:space="preserve" text-anchor="middle" x="479.63" y="-550.45" font-family="Times,serif" font-size="14.00">channel_contribution</text>
<text xml:space="preserve" text-anchor="middle" x="479.63" y="-533.95" font-family="Times,serif" font-size="14.00">~</text>
<text xml:space="preserve" text-anchor="middle" x="479.63" y="-517.45" font-family="Times,serif" font-size="14.00">Deterministic</text>
</g>
<!-- saturation_lam&#45;&gt;channel_contribution -->
<g id="edge7" class="edge">
<title>saturation_lam&#45;&gt;channel_contribution</title>
<path fill="none" stroke="black" d="M365.51,-224.73C373.33,-229.72 380.68,-235.77 386.25,-243 417.29,-283.32 399.65,-305.26 414.25,-354 429.43,-404.7 449.95,-462.13 463.7,-499.37"/>
<polygon fill="black" stroke="black" points="460.28,-500.21 467.04,-508.36 466.84,-497.77 460.28,-500.21"/>
</g>
<!-- adstock_alpha&#45;&gt;channel_contribution -->
<g id="edge8" class="edge">
<title>adstock_alpha&#45;&gt;channel_contribution</title>
<path fill="none" stroke="black" d="M363.69,-459.88C371.29,-464.49 379.03,-469.31 386.25,-474 400.42,-483.2 415.5,-493.56 429.29,-503.27"/>
<polygon fill="black" stroke="black" points="427.18,-506.07 437.37,-508.99 431.23,-500.35 427.18,-506.07"/>
</g>
<!-- channel_scale -->
<g id="node12" class="node">
<title>channel_scale</title>
<path fill="lightgrey" stroke="black" d="M350.5,-385.75C350.5,-385.75 282.75,-385.75 282.75,-385.75 276.75,-385.75 270.75,-379.75 270.75,-373.75 270.75,-373.75 270.75,-340.25 270.75,-340.25 270.75,-334.25 276.75,-328.25 282.75,-328.25 282.75,-328.25 350.5,-328.25 350.5,-328.25 356.5,-328.25 362.5,-334.25 362.5,-340.25 362.5,-340.25 362.5,-373.75 362.5,-373.75 362.5,-379.75 356.5,-385.75 350.5,-385.75"/>
<text xml:space="preserve" text-anchor="middle" x="316.63" y="-368.45" font-family="Times,serif" font-size="14.00">channel_scale</text>
<text xml:space="preserve" text-anchor="middle" x="316.63" y="-351.95" font-family="Times,serif" font-size="14.00">~</text>
<text xml:space="preserve" text-anchor="middle" x="316.63" y="-335.45" font-family="Times,serif" font-size="14.00">Data</text>
</g>
<!-- channel_scale&#45;&gt;channel_contribution -->
<g id="edge9" class="edge">
<title>channel_scale&#45;&gt;channel_contribution</title>
<path fill="none" stroke="black" d="M362.65,-377.71C371.01,-382.69 379.3,-388.48 386.25,-395 418.28,-425.02 444.11,-468.37 460.23,-499.66"/>
<polygon fill="black" stroke="black" points="457.02,-501.06 464.64,-508.42 463.27,-497.91 457.02,-501.06"/>
</g>
<!-- saturation_alpha&#45;&gt;channel_contribution -->
<g id="edge10" class="edge">
<title>saturation_alpha&#45;&gt;channel_contribution</title>
<path fill="none" stroke="black" d="M369.55,-304.65C375.66,-308.85 381.43,-313.63 386.25,-319 433.28,-371.41 458.58,-451.22 470.27,-498.93"/>
<polygon fill="black" stroke="black" points="466.85,-499.64 472.55,-508.57 473.66,-498.04 466.85,-499.64"/>
</g>
<!-- target_scale -->
<g id="node14" class="node">
<title>target_scale</title>
<path fill="lightgrey" stroke="black" d="M507.88,-673.75C507.88,-673.75 451.38,-673.75 451.38,-673.75 445.38,-673.75 439.38,-667.75 439.38,-661.75 439.38,-661.75 439.38,-628.25 439.38,-628.25 439.38,-622.25 445.38,-616.25 451.38,-616.25 451.38,-616.25 507.88,-616.25 507.88,-616.25 513.88,-616.25 519.88,-622.25 519.88,-628.25 519.88,-628.25 519.88,-661.75 519.88,-661.75 519.88,-667.75 513.88,-673.75 507.88,-673.75"/>
<text xml:space="preserve" text-anchor="middle" x="479.63" y="-656.45" font-family="Times,serif" font-size="14.00">target_scale</text>
<text xml:space="preserve" text-anchor="middle" x="479.63" y="-639.95" font-family="Times,serif" font-size="14.00">~</text>
<text xml:space="preserve" text-anchor="middle" x="479.63" y="-623.45" font-family="Times,serif" font-size="14.00">Data</text>
</g>
<!-- target_scale&#45;&gt;spill_contribution -->
<g id="edge14" class="edge">
<title>target_scale&#45;&gt;spill_contribution</title>
<path fill="none" stroke="black" d="M519.94,-647.44C644.97,-654.2 1043.86,-668.19 1362,-595 1370.24,-593.11 1378.68,-590.53 1386.95,-587.6"/>
<polygon fill="black" stroke="black" points="1388.12,-590.9 1396.26,-584.11 1385.67,-584.34 1388.12,-590.9"/>
</g>
<!-- spill_source_direct_original_scale -->
<g id="node17" class="node">
<title>spill_source_direct_original_scale</title>
<polygon fill="none" stroke="black" points="796.25,-573.75 595,-573.75 595,-516.25 796.25,-516.25 796.25,-573.75"/>
<text xml:space="preserve" text-anchor="middle" x="695.63" y="-556.45" font-family="Times,serif" font-size="14.00">spill_source_direct_original_scale</text>
<text xml:space="preserve" text-anchor="middle" x="695.63" y="-539.95" font-family="Times,serif" font-size="14.00">~</text>
<text xml:space="preserve" text-anchor="middle" x="695.63" y="-523.45" font-family="Times,serif" font-size="14.00">Deterministic</text>
</g>
<!-- target_scale&#45;&gt;spill_source_direct_original_scale -->
<g id="edge12" class="edge">
<title>target_scale&#45;&gt;spill_source_direct_original_scale</title>
<path fill="none" stroke="black" d="M520.13,-626.54C548.58,-613.24 587.8,-594.92 621.86,-579"/>
<polygon fill="black" stroke="black" points="623.29,-582.2 630.87,-574.79 620.33,-575.86 623.29,-582.2"/>
</g>
<!-- channel_data -->
<g id="node15" class="node">
<title>channel_data</title>
<path fill="lightgrey" stroke="black" d="M348.25,-567.75C348.25,-567.75 285,-567.75 285,-567.75 279,-567.75 273,-561.75 273,-555.75 273,-555.75 273,-522.25 273,-522.25 273,-516.25 279,-510.25 285,-510.25 285,-510.25 348.25,-510.25 348.25,-510.25 354.25,-510.25 360.25,-516.25 360.25,-522.25 360.25,-522.25 360.25,-555.75 360.25,-555.75 360.25,-561.75 354.25,-567.75 348.25,-567.75"/>
<text xml:space="preserve" text-anchor="middle" x="316.63" y="-550.45" font-family="Times,serif" font-size="14.00">channel_data</text>
<text xml:space="preserve" text-anchor="middle" x="316.63" y="-533.95" font-family="Times,serif" font-size="14.00">~</text>
<text xml:space="preserve" text-anchor="middle" x="316.63" y="-517.45" font-family="Times,serif" font-size="14.00">Data</text>
</g>
<!-- channel_data&#45;&gt;channel_contribution -->
<g id="edge6" class="edge">
<title>channel_data&#45;&gt;channel_contribution</title>
<path fill="none" stroke="black" d="M360.35,-539C373.29,-539 387.91,-539 402.35,-539"/>
<polygon fill="black" stroke="black" points="402.34,-542.5 412.34,-539 402.34,-535.5 402.34,-542.5"/>
</g>
<!-- channel_contribution&#45;&gt;spill_source_direct_original_scale -->
<g id="edge11" class="edge">
<title>channel_contribution&#45;&gt;spill_source_direct_original_scale</title>
<path fill="none" stroke="black" d="M545.41,-540.82C557.4,-541.15 570.23,-541.51 583.15,-541.87"/>
<polygon fill="black" stroke="black" points="582.9,-545.37 592.99,-542.15 583.09,-538.37 582.9,-545.37"/>
</g>
<!-- spill_source_direct_original_scale&#45;&gt;spill_by_path_original_scale -->
<g id="edge19" class="edge">
<title>spill_source_direct_original_scale&#45;&gt;spill_by_path_original_scale</title>
<path fill="none" stroke="black" d="M796.45,-545C827.11,-545 860.79,-545 891.24,-545"/>
<polygon fill="black" stroke="black" points="891.22,-548.5 901.22,-545 891.22,-541.5 891.22,-548.5"/>
</g>
<!-- spill_by_path_original_scale&#45;&gt;spill_contribution_original_scale -->
<g id="edge4" class="edge">
<title>spill_by_path_original_scale&#45;&gt;spill_contribution_original_scale</title>
<path fill="none" stroke="black" d="M1075.03,-548.73C1100.59,-549.85 1128.96,-551.09 1155.79,-552.27"/>
<polygon fill="black" stroke="black" points="1155.52,-555.76 1165.66,-552.7 1155.82,-548.77 1155.52,-555.76"/>
</g>
<!-- spill_fraction_active -->
<g id="node19" class="node">
<title>spill_fraction_active</title>
<ellipse fill="none" stroke="black" cx="118" cy="-81" rx="89.8" ry="40.66"/>
<text xml:space="preserve" text-anchor="middle" x="118" y="-92.45" font-family="Times,serif" font-size="14.00">spill_fraction_active</text>
<text xml:space="preserve" text-anchor="middle" x="118" y="-75.95" font-family="Times,serif" font-size="14.00">~</text>
<text xml:space="preserve" text-anchor="middle" x="118" y="-59.45" font-family="Times,serif" font-size="14.00">Beta</text>
</g>
<!-- spill_fraction_active&#45;&gt;spill_fraction -->
<g id="edge17" class="edge">
<title>spill_fraction_active&#45;&gt;spill_fraction</title>
<path fill="none" stroke="black" d="M207.82,-83.71C225.51,-84.25 243.61,-84.8 259.81,-85.3"/>
<polygon fill="black" stroke="black" points="259.62,-88.79 269.72,-85.6 259.83,-81.8 259.62,-88.79"/>
</g>
</g>
</svg>
