<?xml version="1.0" encoding="UTF-8" standalone="no"?>
<!DOCTYPE svg PUBLIC "-//W3C//DTD SVG 1.1//EN"
 "http://www.w3.org/Graphics/SVG/1.1/DTD/svg11.dtd">
<!-- Generated by graphviz version 12.2.1 (0)
 -->
<!-- Pages: 1 -->
<svg width="414pt" height="188pt"
 viewBox="0.00 0.00 414.06 188.00" xmlns="http://www.w3.org/2000/svg" xmlns:xlink="http://www.w3.org/1999/xlink">
<g id="graph0" class="graph" transform="scale(1 1) rotate(0) translate(4 184)">
<polygon fill="white" stroke="none" points="-4,4 -4,-184 410.06,-184 410.06,4 -4,4"/>
<!-- z -->
<g id="node1" class="node">
<title>z</title>
<ellipse fill="none" stroke="grey" stroke-dasharray="5,2" cx="38.56" cy="-162" rx="38.56" ry="18"/>
<text text-anchor="middle" x="38.56" y="-156.95" font-family="Times,serif" font-size="14.00">holiday</text>
</g>
<!-- x2 -->
<g id="node4" class="node">
<title>x2</title>
<ellipse fill="none" stroke="black" cx="77.56" cy="-90" rx="49.3" ry="18"/>
<text text-anchor="middle" x="77.56" y="-84.95" font-family="Times,serif" font-size="14.00">digital ads</text>
</g>
<!-- z&#45;&gt;x2 -->
<g id="edge1" class="edge">
<title>z&#45;&gt;x2</title>
<path fill="none" stroke="black" stroke-dasharray="5,2" d="M48,-144.05C52.4,-136.14 57.76,-126.54 62.69,-117.69"/>
<polygon fill="black" stroke="black" points="65.66,-119.55 67.47,-109.11 59.54,-116.14 65.66,-119.55"/>
</g>
<!-- y -->
<g id="node6" class="node">
<title>y</title>
<ellipse fill="none" stroke="black" cx="131.56" cy="-18" rx="47.77" ry="18"/>
<text text-anchor="middle" x="131.56" y="-12.95" font-family="Times,serif" font-size="14.00">new users</text>
</g>
<!-- z&#45;&gt;y -->
<g id="edge4" class="edge">
<title>z&#45;&gt;y</title>
<path fill="none" stroke="black" stroke-dasharray="5,2" d="M28.15,-144.29C17.83,-125.37 5.44,-94.29 19.56,-72 32.76,-51.15 56.62,-38.34 78.94,-30.56"/>
<polygon fill="black" stroke="black" points="79.81,-33.95 88.27,-27.58 77.68,-27.28 79.81,-33.95"/>
</g>
<!-- m -->
<g id="node2" class="node">
<title>m</title>
<ellipse fill="none" stroke="grey" stroke-dasharray="5,2" cx="186.56" cy="-90" rx="42.14" ry="18"/>
<text text-anchor="middle" x="186.56" y="-84.95" font-family="Times,serif" font-size="14.00">inflation</text>
</g>
<!-- m&#45;&gt;y -->
<g id="edge7" class="edge">
<title>m&#45;&gt;y</title>
<path fill="none" stroke="black" stroke-dasharray="5,2" d="M173.52,-72.41C166.95,-64.04 158.83,-53.71 151.49,-44.37"/>
<polygon fill="black" stroke="black" points="154.36,-42.36 145.43,-36.66 148.86,-46.69 154.36,-42.36"/>
</g>
<!-- x1 -->
<g id="node3" class="node">
<title>x1</title>
<ellipse fill="none" stroke="black" cx="235.56" cy="-162" rx="50.33" ry="18"/>
<text text-anchor="middle" x="235.56" y="-156.95" font-family="Times,serif" font-size="14.00">offline ads</text>
</g>
<!-- x1&#45;&gt;x2 -->
<g id="edge2" class="edge">
<title>x1&#45;&gt;x2</title>
<path fill="none" stroke="black" d="M204.72,-147.34C180.06,-136.41 145.28,-121.01 118.33,-109.06"/>
<polygon fill="black" stroke="black" points="119.99,-105.97 109.43,-105.12 117.16,-112.37 119.99,-105.97"/>
</g>
<!-- x3 -->
<g id="node5" class="node">
<title>x3</title>
<ellipse fill="none" stroke="black" cx="326.56" cy="-90" rx="79.5" ry="18"/>
<text text-anchor="middle" x="326.56" y="-84.95" font-family="Times,serif" font-size="14.00">internal marketing</text>
</g>
<!-- x1&#45;&gt;x3 -->
<g id="edge3" class="edge">
<title>x1&#45;&gt;x3</title>
<path fill="none" stroke="black" d="M256.21,-145.12C267.85,-136.16 282.63,-124.79 295.64,-114.79"/>
<polygon fill="black" stroke="black" points="297.73,-117.59 303.52,-108.72 293.46,-112.04 297.73,-117.59"/>
</g>
<!-- x2&#45;&gt;y -->
<g id="edge5" class="edge">
<title>x2&#45;&gt;y</title>
<path fill="none" stroke="black" d="M90.35,-72.41C96.81,-64.04 104.78,-53.71 111.99,-44.37"/>
<polygon fill="black" stroke="black" points="114.59,-46.72 117.93,-36.67 109.05,-42.45 114.59,-46.72"/>
</g>
<!-- x3&#45;&gt;y -->
<g id="edge6" class="edge">
<title>x3&#45;&gt;y</title>
<path fill="none" stroke="black" d="M285.68,-74.33C253.57,-62.8 208.92,-46.77 175.95,-34.93"/>
<polygon fill="black" stroke="black" points="177.26,-31.69 166.67,-31.6 174.9,-38.28 177.26,-31.69"/>
</g>
</g>
</svg>
