<?xml version="1.0" encoding="UTF-8" standalone="no"?>
<!DOCTYPE svg PUBLIC "-//W3C//DTD SVG 1.1//EN"
 "http://www.w3.org/Graphics/SVG/1.1/DTD/svg11.dtd">
<!-- Generated by graphviz version 12.2.1 (0)
 -->
<!-- Pages: 1 -->
<svg width="1110pt" height="608pt"
 viewBox="0.00 0.00 1109.98 608.27" xmlns="http://www.w3.org/2000/svg" xmlns:xlink="http://www.w3.org/1999/xlink">
<g id="graph0" class="graph" transform="scale(1 1) rotate(0) translate(4 604.27)">
<polygon fill="white" stroke="none" points="-4,4 -4,-604.27 1105.98,-604.27 1105.98,4 -4,4"/>
<g id="clust1" class="cluster">
<title>clusterdate (1050) x channel (4)</title>
<path fill="none" stroke="black" d="M473.98,-352.54C473.98,-352.54 603.98,-352.54 603.98,-352.54 609.98,-352.54 615.98,-358.54 615.98,-364.54 615.98,-364.54 615.98,-568.36 615.98,-568.36 615.98,-574.36 609.98,-580.36 603.98,-580.36 603.98,-580.36 473.98,-580.36 473.98,-580.36 467.98,-580.36 461.98,-574.36 461.98,-568.36 461.98,-568.36 461.98,-364.54 461.98,-364.54 461.98,-358.54 467.98,-352.54 473.98,-352.54"/>
<text text-anchor="middle" x="538.98" y="-359.74" font-family="Times,serif" font-size="14.00">date (1050) x channel (4)</text>
</g>
<g id="clust2" class="cluster">
<title>clusterdate (1050)</title>
<path fill="none" stroke="black" d="M135.98,-8C135.98,-8 287.98,-8 287.98,-8 293.98,-8 299.98,-14 299.98,-20 299.98,-20 299.98,-316.73 299.98,-316.73 299.98,-322.73 293.98,-328.73 287.98,-328.73 287.98,-328.73 135.98,-328.73 135.98,-328.73 129.98,-328.73 123.98,-322.73 123.98,-316.73 123.98,-316.73 123.98,-20 123.98,-20 123.98,-14 129.98,-8 135.98,-8"/>
<text text-anchor="middle" x="260.86" y="-15.2" font-family="Times,serif" font-size="14.00">date (1050)</text>
</g>
<g id="clust3" class="cluster">
<title>clusterchannel (4)</title>
<path fill="none" stroke="black" d="M635.98,-470.45C635.98,-470.45 1081.98,-470.45 1081.98,-470.45 1087.98,-470.45 1093.98,-476.45 1093.98,-482.45 1093.98,-482.45 1093.98,-580.27 1093.98,-580.27 1093.98,-586.27 1087.98,-592.27 1081.98,-592.27 1081.98,-592.27 635.98,-592.27 635.98,-592.27 629.98,-592.27 623.98,-586.27 623.98,-580.27 623.98,-580.27 623.98,-482.45 623.98,-482.45 623.98,-476.45 629.98,-470.45 635.98,-470.45"/>
<text text-anchor="middle" x="1055.23" y="-477.65" font-family="Times,serif" font-size="14.00">channel (4)</text>
</g>
<g id="clust4" class="cluster">
<title>clustercontrol (6)</title>
<path fill="none" stroke="black" d="M305.98,-470.45C305.98,-470.45 441.98,-470.45 441.98,-470.45 447.98,-470.45 453.98,-476.45 453.98,-482.45 453.98,-482.45 453.98,-580.27 453.98,-580.27 453.98,-586.27 447.98,-592.27 441.98,-592.27 441.98,-592.27 305.98,-592.27 305.98,-592.27 299.98,-592.27 293.98,-586.27 293.98,-580.27 293.98,-580.27 293.98,-482.45 293.98,-482.45 293.98,-476.45 299.98,-470.45 305.98,-470.45"/>
<text text-anchor="middle" x="417.11" y="-477.65" font-family="Times,serif" font-size="14.00">control (6)</text>
</g>
<g id="clust5" class="cluster">
<title>clusterdate (1050) x control (6)</title>
<path fill="none" stroke="black" d="M147.98,-352.54C147.98,-352.54 273.98,-352.54 273.98,-352.54 279.98,-352.54 285.98,-358.54 285.98,-364.54 285.98,-364.54 285.98,-568.36 285.98,-568.36 285.98,-574.36 279.98,-580.36 273.98,-580.36 273.98,-580.36 147.98,-580.36 147.98,-580.36 141.98,-580.36 135.98,-574.36 135.98,-568.36 135.98,-568.36 135.98,-364.54 135.98,-364.54 135.98,-358.54 141.98,-352.54 147.98,-352.54"/>
<text text-anchor="middle" x="210.86" y="-359.74" font-family="Times,serif" font-size="14.00">date (1050) x control (6)</text>
</g>
<g id="clust6" class="cluster">
<title>cluster1</title>
<path fill="none" stroke="black" d="M847.98,-340.63C847.98,-340.63 1005.98,-340.63 1005.98,-340.63 1011.98,-340.63 1017.98,-346.63 1017.98,-352.63 1017.98,-352.63 1017.98,-450.45 1017.98,-450.45 1017.98,-456.45 1011.98,-462.45 1005.98,-462.45 1005.98,-462.45 847.98,-462.45 847.98,-462.45 841.98,-462.45 835.98,-456.45 835.98,-450.45 835.98,-450.45 835.98,-352.63 835.98,-352.63 835.98,-346.63 841.98,-340.63 847.98,-340.63"/>
<text text-anchor="middle" x="1006.61" y="-347.83" font-family="Times,serif" font-size="14.00">1</text>
</g>
<!-- channel_contributions -->
<g id="node1" class="node">
<title>channel_contributions</title>
<polygon fill="none" stroke="black" points="607.98,-442.54 471.98,-442.54 471.98,-385.04 607.98,-385.04 607.98,-442.54"/>
<text text-anchor="middle" x="539.98" y="-425.24" font-family="Times,serif" font-size="14.00">channel_contributions</text>
<text text-anchor="middle" x="539.98" y="-408.74" font-family="Times,serif" font-size="14.00">~</text>
<text text-anchor="middle" x="539.98" y="-392.24" font-family="Times,serif" font-size="14.00">Deterministic</text>
</g>
<!-- mu -->
<g id="node4" class="node">
<title>mu</title>
<polygon fill="none" stroke="black" points="257.11,-320.73 166.86,-320.73 166.86,-263.23 257.11,-263.23 257.11,-320.73"/>
<text text-anchor="middle" x="211.98" y="-303.43" font-family="Times,serif" font-size="14.00">mu</text>
<text text-anchor="middle" x="211.98" y="-286.93" font-family="Times,serif" font-size="14.00">~</text>
<text text-anchor="middle" x="211.98" y="-270.43" font-family="Times,serif" font-size="14.00">Deterministic</text>
</g>
<!-- channel_contributions&#45;&gt;mu -->
<g id="edge9" class="edge">
<title>channel_contributions&#45;&gt;mu</title>
<path fill="none" stroke="black" d="M471.62,-387.82C411.12,-365.72 323.93,-333.87 267.61,-313.3"/>
<polygon fill="black" stroke="black" points="269.14,-310.13 258.55,-309.99 266.74,-316.7 269.14,-310.13"/>
</g>
<!-- total_contributions -->
<g id="node7" class="node">
<title>total_contributions</title>
<polygon fill="none" stroke="black" points="598.98,-320.73 480.98,-320.73 480.98,-263.23 598.98,-263.23 598.98,-320.73"/>
<text text-anchor="middle" x="539.98" y="-303.43" font-family="Times,serif" font-size="14.00">total_contributions</text>
<text text-anchor="middle" x="539.98" y="-286.93" font-family="Times,serif" font-size="14.00">~</text>
<text text-anchor="middle" x="539.98" y="-270.43" font-family="Times,serif" font-size="14.00">Deterministic</text>
</g>
<!-- channel_contributions&#45;&gt;total_contributions -->
<g id="edge6" class="edge">
<title>channel_contributions&#45;&gt;total_contributions</title>
<path fill="none" stroke="black" d="M539.98,-384.7C539.98,-369.08 539.98,-349.39 539.98,-332.26"/>
<polygon fill="black" stroke="black" points="543.48,-332.41 539.98,-322.41 536.48,-332.41 543.48,-332.41"/>
</g>
<!-- channel_data -->
<g id="node2" class="node">
<title>channel_data</title>
<path fill="lightgrey" stroke="black" d="M571.61,-572.36C571.61,-572.36 508.36,-572.36 508.36,-572.36 502.36,-572.36 496.36,-566.36 496.36,-560.36 496.36,-560.36 496.36,-526.86 496.36,-526.86 496.36,-520.86 502.36,-514.86 508.36,-514.86 508.36,-514.86 571.61,-514.86 571.61,-514.86 577.61,-514.86 583.61,-520.86 583.61,-526.86 583.61,-526.86 583.61,-560.36 583.61,-560.36 583.61,-566.36 577.61,-572.36 571.61,-572.36"/>
<text text-anchor="middle" x="539.98" y="-555.06" font-family="Times,serif" font-size="14.00">channel_data</text>
<text text-anchor="middle" x="539.98" y="-538.56" font-family="Times,serif" font-size="14.00">~</text>
<text text-anchor="middle" x="539.98" y="-522.06" font-family="Times,serif" font-size="14.00">Data</text>
</g>
<!-- channel_data&#45;&gt;channel_contributions -->
<g id="edge5" class="edge">
<title>channel_data&#45;&gt;channel_contributions</title>
<path fill="none" stroke="black" d="M539.98,-514.56C539.98,-496.83 539.98,-473.65 539.98,-454.1"/>
<polygon fill="black" stroke="black" points="543.48,-454.29 539.98,-444.29 536.48,-454.29 543.48,-454.29"/>
</g>
<!-- y -->
<g id="node3" class="node">
<title>y</title>
<ellipse fill="lightgrey" stroke="black" cx="211.98" cy="-174.66" rx="79.73" ry="40.66"/>
<text text-anchor="middle" x="211.98" y="-186.11" font-family="Times,serif" font-size="14.00">y</text>
<text text-anchor="middle" x="211.98" y="-169.61" font-family="Times,serif" font-size="14.00">~</text>
<text text-anchor="middle" x="211.98" y="-153.11" font-family="Times,serif" font-size="14.00">TruncatedNormal</text>
</g>
<!-- target -->
<g id="node5" class="node">
<title>target</title>
<path fill="lightgrey" stroke="black" d="M226.98,-98C226.98,-98 196.98,-98 196.98,-98 190.98,-98 184.98,-92 184.98,-86 184.98,-86 184.98,-52.5 184.98,-52.5 184.98,-46.5 190.98,-40.5 196.98,-40.5 196.98,-40.5 226.98,-40.5 226.98,-40.5 232.98,-40.5 238.98,-46.5 238.98,-52.5 238.98,-52.5 238.98,-86 238.98,-86 238.98,-92 232.98,-98 226.98,-98"/>
<text text-anchor="middle" x="211.98" y="-80.7" font-family="Times,serif" font-size="14.00">target</text>
<text text-anchor="middle" x="211.98" y="-64.2" font-family="Times,serif" font-size="14.00">~</text>
<text text-anchor="middle" x="211.98" y="-47.7" font-family="Times,serif" font-size="14.00">Data</text>
</g>
<!-- y&#45;&gt;target -->
<g id="edge1" class="edge">
<title>y&#45;&gt;target</title>
<path fill="none" stroke="black" d="M211.98,-133.68C211.98,-125.83 211.98,-117.6 211.98,-109.76"/>
<polygon fill="black" stroke="black" points="215.48,-109.79 211.98,-99.79 208.48,-109.79 215.48,-109.79"/>
</g>
<!-- mu&#45;&gt;y -->
<g id="edge13" class="edge">
<title>mu&#45;&gt;y</title>
<path fill="none" stroke="black" d="M211.98,-262.77C211.98,-251.94 211.98,-239.23 211.98,-226.91"/>
<polygon fill="black" stroke="black" points="215.48,-227.28 211.98,-217.28 208.48,-227.28 215.48,-227.28"/>
</g>
<!-- y_sigma -->
<g id="node6" class="node">
<title>y_sigma</title>
<ellipse fill="none" stroke="black" cx="57.98" cy="-291.98" rx="57.98" ry="40.66"/>
<text text-anchor="middle" x="57.98" y="-303.43" font-family="Times,serif" font-size="14.00">y_sigma</text>
<text text-anchor="middle" x="57.98" y="-286.93" font-family="Times,serif" font-size="14.00">~</text>
<text text-anchor="middle" x="57.98" y="-270.43" font-family="Times,serif" font-size="14.00">HalfNormal</text>
</g>
<!-- y_sigma&#45;&gt;y -->
<g id="edge12" class="edge">
<title>y_sigma&#45;&gt;y</title>
<path fill="none" stroke="black" d="M97.24,-261.58C115.87,-247.63 138.4,-230.76 158.56,-215.66"/>
<polygon fill="black" stroke="black" points="160.51,-218.58 166.41,-209.78 156.31,-212.97 160.51,-218.58"/>
</g>
<!-- intercept -->
<g id="node8" class="node">
<title>intercept</title>
<ellipse fill="none" stroke="black" cx="82.98" cy="-413.79" rx="44.72" ry="40.66"/>
<text text-anchor="middle" x="82.98" y="-425.24" font-family="Times,serif" font-size="14.00">intercept</text>
<text text-anchor="middle" x="82.98" y="-408.74" font-family="Times,serif" font-size="14.00">~</text>
<text text-anchor="middle" x="82.98" y="-392.24" font-family="Times,serif" font-size="14.00">Normal</text>
</g>
<!-- intercept&#45;&gt;mu -->
<g id="edge11" class="edge">
<title>intercept&#45;&gt;mu</title>
<path fill="none" stroke="black" d="M102.88,-377C110.88,-364.57 120.85,-351.12 131.98,-340.63 139.41,-333.63 148.05,-327.18 156.84,-321.44"/>
<polygon fill="black" stroke="black" points="158.46,-324.55 165.1,-316.3 154.76,-318.61 158.46,-324.55"/>
</g>
<!-- saturation_alpha -->
<g id="node9" class="node">
<title>saturation_alpha</title>
<ellipse fill="none" stroke="black" cx="1011.98" cy="-543.61" rx="74.42" ry="40.66"/>
<text text-anchor="middle" x="1011.98" y="-555.06" font-family="Times,serif" font-size="14.00">saturation_alpha</text>
<text text-anchor="middle" x="1011.98" y="-538.56" font-family="Times,serif" font-size="14.00">~</text>
<text text-anchor="middle" x="1011.98" y="-522.06" font-family="Times,serif" font-size="14.00">Gamma</text>
</g>
<!-- saturation_alpha&#45;&gt;channel_contributions -->
<g id="edge2" class="edge">
<title>saturation_alpha&#45;&gt;channel_contributions</title>
<path fill="none" stroke="black" d="M980.28,-506.55C966.05,-492.82 948.16,-478.54 928.98,-470.45 909.05,-462.05 853.45,-465.08 831.98,-462.45 759.66,-453.58 677.83,-439.91 619.23,-429.48"/>
<polygon fill="black" stroke="black" points="620.15,-426.09 609.69,-427.77 618.92,-432.98 620.15,-426.09"/>
</g>
<!-- lift_measurements -->
<g id="node15" class="node">
<title>lift_measurements</title>
<ellipse fill="lightgrey" stroke="black" cx="926.98" cy="-413.79" rx="82.91" ry="40.66"/>
<text text-anchor="middle" x="926.98" y="-425.24" font-family="Times,serif" font-size="14.00">lift_measurements</text>
<text text-anchor="middle" x="926.98" y="-408.74" font-family="Times,serif" font-size="14.00">~</text>
<text text-anchor="middle" x="926.98" y="-392.24" font-family="Times,serif" font-size="14.00">Gamma</text>
</g>
<!-- saturation_alpha&#45;&gt;lift_measurements -->
<g id="edge14" class="edge">
<title>saturation_alpha&#45;&gt;lift_measurements</title>
<path fill="none" stroke="black" d="M986.94,-504.95C978.03,-491.55 967.87,-476.28 958.49,-462.17"/>
<polygon fill="black" stroke="black" points="961.43,-460.27 952.98,-453.88 955.6,-464.15 961.43,-460.27"/>
</g>
<!-- adstock_alpha -->
<g id="node10" class="node">
<title>adstock_alpha</title>
<ellipse fill="none" stroke="black" cx="697.98" cy="-543.61" rx="65.94" ry="40.66"/>
<text text-anchor="middle" x="697.98" y="-555.06" font-family="Times,serif" font-size="14.00">adstock_alpha</text>
<text text-anchor="middle" x="697.98" y="-538.56" font-family="Times,serif" font-size="14.00">~</text>
<text text-anchor="middle" x="697.98" y="-522.06" font-family="Times,serif" font-size="14.00">Beta</text>
</g>
<!-- adstock_alpha&#45;&gt;channel_contributions -->
<g id="edge4" class="edge">
<title>adstock_alpha&#45;&gt;channel_contributions</title>
<path fill="none" stroke="black" d="M663.57,-508.85C650.31,-496.36 634.79,-482.36 619.98,-470.45 611.18,-463.38 601.53,-456.2 592.07,-449.47"/>
<polygon fill="black" stroke="black" points="594.15,-446.65 583.95,-443.77 590.13,-452.38 594.15,-446.65"/>
</g>
<!-- saturation_lam -->
<g id="node11" class="node">
<title>saturation_lam</title>
<ellipse fill="none" stroke="black" cx="850.98" cy="-543.61" rx="68.59" ry="40.66"/>
<text text-anchor="middle" x="850.98" y="-555.06" font-family="Times,serif" font-size="14.00">saturation_lam</text>
<text text-anchor="middle" x="850.98" y="-538.56" font-family="Times,serif" font-size="14.00">~</text>
<text text-anchor="middle" x="850.98" y="-522.06" font-family="Times,serif" font-size="14.00">Gamma</text>
</g>
<!-- saturation_lam&#45;&gt;channel_contributions -->
<g id="edge3" class="edge">
<title>saturation_lam&#45;&gt;channel_contributions</title>
<path fill="none" stroke="black" d="M820.17,-507.18C806.88,-493.88 790.39,-479.75 772.98,-470.45 725.45,-445.07 666.35,-431.12 619.56,-423.54"/>
<polygon fill="black" stroke="black" points="620.17,-420.09 609.75,-422.02 619.1,-427.01 620.17,-420.09"/>
</g>
<!-- saturation_lam&#45;&gt;lift_measurements -->
<g id="edge15" class="edge">
<title>saturation_lam&#45;&gt;lift_measurements</title>
<path fill="none" stroke="black" d="M873.37,-504.95C881.2,-491.8 890.09,-476.85 898.35,-462.95"/>
<polygon fill="black" stroke="black" points="901.35,-464.75 903.45,-454.37 895.33,-461.17 901.35,-464.75"/>
</g>
<!-- gamma_control -->
<g id="node12" class="node">
<title>gamma_control</title>
<ellipse fill="none" stroke="black" cx="373.98" cy="-543.61" rx="72.3" ry="40.66"/>
<text text-anchor="middle" x="373.98" y="-555.06" font-family="Times,serif" font-size="14.00">gamma_control</text>
<text text-anchor="middle" x="373.98" y="-538.56" font-family="Times,serif" font-size="14.00">~</text>
<text text-anchor="middle" x="373.98" y="-522.06" font-family="Times,serif" font-size="14.00">Normal</text>
</g>
<!-- control_contributions -->
<g id="node14" class="node">
<title>control_contributions</title>
<polygon fill="none" stroke="black" points="278.11,-442.54 145.86,-442.54 145.86,-385.04 278.11,-385.04 278.11,-442.54"/>
<text text-anchor="middle" x="211.98" y="-425.24" font-family="Times,serif" font-size="14.00">control_contributions</text>
<text text-anchor="middle" x="211.98" y="-408.74" font-family="Times,serif" font-size="14.00">~</text>
<text text-anchor="middle" x="211.98" y="-392.24" font-family="Times,serif" font-size="14.00">Deterministic</text>
</g>
<!-- gamma_control&#45;&gt;control_contributions -->
<g id="edge8" class="edge">
<title>gamma_control&#45;&gt;control_contributions</title>
<path fill="none" stroke="black" d="M336.12,-508.82C321.89,-496.46 305.42,-482.55 289.98,-470.45 281.14,-463.53 271.54,-456.38 262.2,-449.62"/>
<polygon fill="black" stroke="black" points="264.37,-446.87 254.2,-443.88 260.29,-452.56 264.37,-446.87"/>
</g>
<!-- control_data -->
<g id="node13" class="node">
<title>control_data</title>
<path fill="lightgrey" stroke="black" d="M241.73,-572.36C241.73,-572.36 182.23,-572.36 182.23,-572.36 176.23,-572.36 170.23,-566.36 170.23,-560.36 170.23,-560.36 170.23,-526.86 170.23,-526.86 170.23,-520.86 176.23,-514.86 182.23,-514.86 182.23,-514.86 241.73,-514.86 241.73,-514.86 247.73,-514.86 253.73,-520.86 253.73,-526.86 253.73,-526.86 253.73,-560.36 253.73,-560.36 253.73,-566.36 247.73,-572.36 241.73,-572.36"/>
<text text-anchor="middle" x="211.98" y="-555.06" font-family="Times,serif" font-size="14.00">control_data</text>
<text text-anchor="middle" x="211.98" y="-538.56" font-family="Times,serif" font-size="14.00">~</text>
<text text-anchor="middle" x="211.98" y="-522.06" font-family="Times,serif" font-size="14.00">Data</text>
</g>
<!-- control_data&#45;&gt;control_contributions -->
<g id="edge7" class="edge">
<title>control_data&#45;&gt;control_contributions</title>
<path fill="none" stroke="black" d="M211.98,-514.56C211.98,-496.83 211.98,-473.65 211.98,-454.1"/>
<polygon fill="black" stroke="black" points="215.48,-454.29 211.98,-444.29 208.48,-454.29 215.48,-454.29"/>
</g>
<!-- control_contributions&#45;&gt;mu -->
<g id="edge10" class="edge">
<title>control_contributions&#45;&gt;mu</title>
<path fill="none" stroke="black" d="M211.98,-384.7C211.98,-369.08 211.98,-349.39 211.98,-332.26"/>
<polygon fill="black" stroke="black" points="215.48,-332.41 211.98,-322.41 208.48,-332.41 215.48,-332.41"/>
</g>
</g>
</svg>
