<?xml version="1.0" encoding="UTF-8" standalone="no"?>
<!DOCTYPE svg PUBLIC "-//W3C//DTD SVG 1.1//EN"
 "http://www.w3.org/Graphics/SVG/1.1/DTD/svg11.dtd">
<!-- Generated by graphviz version 2.50.0 (0)
 -->
<!-- Pages: 1 -->
<svg width="828pt" height="260pt"
 viewBox="0.00 0.00 827.99 260.00" xmlns="http://www.w3.org/2000/svg" xmlns:xlink="http://www.w3.org/1999/xlink">
<g id="graph0" class="graph" transform="scale(1 1) rotate(0) translate(4 256)">
<polygon fill="white" stroke="transparent" points="-4,4 -4,-256 823.99,-256 823.99,4 -4,4"/>
<!-- spend_x1 -->
<g id="node1" class="node">
<title>spend_x1</title>
<ellipse fill="none" stroke="black" cx="131.85" cy="-234" rx="46.29" ry="18"/>
<text text-anchor="middle" x="131.85" y="-230.3" font-family="Times,serif" font-size="14.00">Spend X1</text>
</g>
<!-- impressions_x1 -->
<g id="node9" class="node">
<title>impressions_x1</title>
<ellipse fill="none" stroke="black" cx="131.85" cy="-162" rx="66.09" ry="18"/>
<text text-anchor="middle" x="131.85" y="-158.3" font-family="Times,serif" font-size="14.00">impressions_x1</text>
</g>
<!-- spend_x1&#45;&gt;impressions_x1 -->
<g id="edge1" class="edge">
<title>spend_x1&#45;&gt;impressions_x1</title>
<path fill="none" stroke="black" d="M131.85,-215.7C131.85,-207.98 131.85,-198.71 131.85,-190.11"/>
<polygon fill="black" stroke="black" points="135.35,-190.1 131.85,-180.1 128.35,-190.1 135.35,-190.1"/>
</g>
<!-- spend_x2 -->
<g id="node2" class="node">
<title>spend_x2</title>
<ellipse fill="none" stroke="black" cx="645.85" cy="-234" rx="46.29" ry="18"/>
<text text-anchor="middle" x="645.85" y="-230.3" font-family="Times,serif" font-size="14.00">Spend X2</text>
</g>
<!-- impressions_x2 -->
<g id="node10" class="node">
<title>impressions_x2</title>
<ellipse fill="none" stroke="black" cx="643.85" cy="-162" rx="66.09" ry="18"/>
<text text-anchor="middle" x="643.85" y="-158.3" font-family="Times,serif" font-size="14.00">impressions_x2</text>
</g>
<!-- spend_x2&#45;&gt;impressions_x2 -->
<g id="edge2" class="edge">
<title>spend_x2&#45;&gt;impressions_x2</title>
<path fill="none" stroke="black" d="M645.35,-215.7C645.13,-207.98 644.87,-198.71 644.62,-190.11"/>
<polygon fill="black" stroke="black" points="648.12,-190 644.34,-180.1 641.12,-190.2 648.12,-190"/>
</g>
<!-- spend_x3 -->
<g id="node3" class="node">
<title>spend_x3</title>
<ellipse fill="none" stroke="black" cx="475.85" cy="-162" rx="46.29" ry="18"/>
<text text-anchor="middle" x="475.85" y="-158.3" font-family="Times,serif" font-size="14.00">Spend X3</text>
</g>
<!-- impressions_x3 -->
<g id="node11" class="node">
<title>impressions_x3</title>
<ellipse fill="none" stroke="black" cx="549.85" cy="-90" rx="66.09" ry="18"/>
<text text-anchor="middle" x="549.85" y="-86.3" font-family="Times,serif" font-size="14.00">impressions_x3</text>
</g>
<!-- spend_x3&#45;&gt;impressions_x3 -->
<g id="edge3" class="edge">
<title>spend_x3&#45;&gt;impressions_x3</title>
<path fill="none" stroke="black" d="M492.64,-145.12C502.18,-136.09 514.3,-124.62 524.93,-114.57"/>
<polygon fill="black" stroke="black" points="527.49,-116.97 532.35,-107.55 522.68,-111.88 527.49,-116.97"/>
</g>
<!-- spend_x4 -->
<g id="node4" class="node">
<title>spend_x4</title>
<ellipse fill="none" stroke="black" cx="773.85" cy="-162" rx="46.29" ry="18"/>
<text text-anchor="middle" x="773.85" y="-158.3" font-family="Times,serif" font-size="14.00">Spend X4</text>
</g>
<!-- impressions_x4 -->
<g id="node12" class="node">
<title>impressions_x4</title>
<ellipse fill="none" stroke="black" cx="737.85" cy="-90" rx="66.09" ry="18"/>
<text text-anchor="middle" x="737.85" y="-86.3" font-family="Times,serif" font-size="14.00">impressions_x4</text>
</g>
<!-- spend_x4&#45;&gt;impressions_x4 -->
<g id="edge4" class="edge">
<title>spend_x4&#45;&gt;impressions_x4</title>
<path fill="none" stroke="black" d="M765.13,-144.05C760.99,-136.01 755.95,-126.2 751.33,-117.23"/>
<polygon fill="black" stroke="black" points="754.42,-115.57 746.73,-108.28 748.19,-118.77 754.42,-115.57"/>
</g>
<!-- trend -->
<g id="node5" class="node">
<title>trend</title>
<ellipse fill="none" stroke="black" cx="31.85" cy="-90" rx="31.7" ry="18"/>
<text text-anchor="middle" x="31.85" y="-86.3" font-family="Times,serif" font-size="14.00">Trend</text>
</g>
<!-- target_var -->
<g id="node13" class="node">
<title>target_var</title>
<ellipse fill="none" stroke="black" cx="359.85" cy="-18" rx="46.29" ry="18"/>
<text text-anchor="middle" x="359.85" y="-14.3" font-family="Times,serif" font-size="14.00">target_var</text>
</g>
<!-- trend&#45;&gt;target_var -->
<g id="edge10" class="edge">
<title>trend&#45;&gt;target_var</title>
<path fill="none" stroke="black" d="M55.82,-78.07C61.34,-75.84 67.23,-73.66 72.85,-72 152.6,-48.39 248.07,-33.27 306.32,-25.45"/>
<polygon fill="black" stroke="black" points="306.94,-28.9 316.39,-24.13 306.02,-21.96 306.94,-28.9"/>
</g>
<!-- global_noise -->
<g id="node6" class="node">
<title>global_noise</title>
<ellipse fill="none" stroke="black" cx="139.85" cy="-90" rx="57.69" ry="18"/>
<text text-anchor="middle" x="139.85" y="-86.3" font-family="Times,serif" font-size="14.00">Global Noise</text>
</g>
<!-- global_noise&#45;&gt;target_var -->
<g id="edge11" class="edge">
<title>global_noise&#45;&gt;target_var</title>
<path fill="none" stroke="black" d="M178.67,-76.65C216.88,-64.49 275.17,-45.94 315.26,-33.19"/>
<polygon fill="black" stroke="black" points="316.57,-36.44 325.03,-30.08 314.44,-29.77 316.57,-36.44"/>
</g>
<!-- event_contributions -->
<g id="node7" class="node">
<title>event_contributions</title>
<ellipse fill="none" stroke="black" cx="546.85" cy="-234" rx="34.39" ry="18"/>
<text text-anchor="middle" x="546.85" y="-230.3" font-family="Times,serif" font-size="14.00">Events</text>
</g>
<!-- event_contributions&#45;&gt;impressions_x2 -->
<g id="edge8" class="edge">
<title>event_contributions&#45;&gt;impressions_x2</title>
<path fill="none" stroke="black" d="M566.48,-218.83C579.93,-209.13 598.04,-196.06 613.36,-185"/>
<polygon fill="black" stroke="black" points="615.47,-187.79 621.53,-179.1 611.38,-182.12 615.47,-187.79"/>
</g>
<!-- event_contributions&#45;&gt;impressions_x3 -->
<g id="edge9" class="edge">
<title>event_contributions&#45;&gt;impressions_x3</title>
<path fill="none" stroke="black" d="M547.21,-215.87C547.72,-191.67 548.66,-147.21 549.27,-118.39"/>
<polygon fill="black" stroke="black" points="552.77,-118.26 549.48,-108.19 545.77,-118.11 552.77,-118.26"/>
</g>
<!-- event_contributions&#45;&gt;target_var -->
<g id="edge12" class="edge">
<title>event_contributions&#45;&gt;target_var</title>
<path fill="none" stroke="black" d="M512.8,-230.64C447.54,-224.05 305.94,-199.41 244.85,-108 235.96,-94.7 236.22,-85.47 244.85,-72 259.07,-49.79 285.22,-36.76 308.99,-29.18"/>
<polygon fill="black" stroke="black" points="310.03,-32.52 318.64,-26.34 308.06,-25.8 310.03,-32.52"/>
</g>
<!-- product_price_contribution -->
<g id="node8" class="node">
<title>product_price_contribution</title>
<ellipse fill="none" stroke="black" cx="359.85" cy="-90" rx="105.88" ry="18"/>
<text text-anchor="middle" x="359.85" y="-86.3" font-family="Times,serif" font-size="14.00">Product Price Contribution</text>
</g>
<!-- product_price_contribution&#45;&gt;target_var -->
<g id="edge13" class="edge">
<title>product_price_contribution&#45;&gt;target_var</title>
<path fill="none" stroke="black" d="M359.85,-71.7C359.85,-63.98 359.85,-54.71 359.85,-46.11"/>
<polygon fill="black" stroke="black" points="363.35,-46.1 359.85,-36.1 356.35,-46.1 363.35,-46.1"/>
</g>
<!-- impressions_x1&#45;&gt;impressions_x3 -->
<g id="edge5" class="edge">
<title>impressions_x1&#45;&gt;impressions_x3</title>
<path fill="none" stroke="black" d="M190.02,-153.27C258.41,-143.89 375.26,-126.96 474.85,-108 480.26,-106.97 485.87,-105.83 491.48,-104.64"/>
<polygon fill="black" stroke="black" points="492.5,-108 501.54,-102.47 491.02,-101.16 492.5,-108"/>
</g>
<!-- impressions_x2&#45;&gt;impressions_x3 -->
<g id="edge6" class="edge">
<title>impressions_x2&#45;&gt;impressions_x3</title>
<path fill="none" stroke="black" d="M622.05,-144.76C609.47,-135.4 593.48,-123.49 579.74,-113.26"/>
<polygon fill="black" stroke="black" points="581.64,-110.31 571.53,-107.15 577.46,-115.93 581.64,-110.31"/>
</g>
<!-- impressions_x2&#45;&gt;impressions_x4 -->
<g id="edge7" class="edge">
<title>impressions_x2&#45;&gt;impressions_x4</title>
<path fill="none" stroke="black" d="M665.65,-144.76C678.22,-135.4 694.22,-123.49 707.95,-113.26"/>
<polygon fill="black" stroke="black" points="710.23,-115.93 716.16,-107.15 706.05,-110.31 710.23,-115.93"/>
</g>
<!-- impressions_x2&#45;&gt;target_var -->
<g id="edge14" class="edge">
<title>impressions_x2&#45;&gt;target_var</title>
<path fill="none" stroke="black" d="M645.34,-143.65C646.04,-123.54 643.85,-90.76 624.85,-72 595.83,-43.35 484.04,-29.17 415.26,-23.02"/>
<polygon fill="black" stroke="black" points="415.29,-19.51 405.03,-22.14 414.69,-26.49 415.29,-19.51"/>
</g>
<!-- impressions_x3&#45;&gt;target_var -->
<g id="edge15" class="edge">
<title>impressions_x3&#45;&gt;target_var</title>
<path fill="none" stroke="black" d="M511.85,-75C480.06,-63.29 434.74,-46.59 401.86,-34.48"/>
<polygon fill="black" stroke="black" points="402.68,-31.05 392.09,-30.88 400.26,-37.62 402.68,-31.05"/>
</g>
<!-- impressions_x4&#45;&gt;target_var -->
<g id="edge16" class="edge">
<title>impressions_x4&#45;&gt;target_var</title>
<path fill="none" stroke="black" d="M687.97,-78.13C678,-76.04 667.6,-73.9 657.85,-72 571.55,-55.16 470.76,-37.69 411.28,-27.61"/>
<polygon fill="black" stroke="black" points="411.83,-24.15 401.39,-25.94 410.66,-31.06 411.83,-24.15"/>
</g>
</g>
</svg>
