<?xml version="1.0" encoding="UTF-8" standalone="no"?>
<!DOCTYPE svg PUBLIC "-//W3C//DTD SVG 1.1//EN"
 "http://www.w3.org/Graphics/SVG/1.1/DTD/svg11.dtd">
<!-- Generated by graphviz version 2.50.0 (0)
 -->
<!-- Pages: 1 -->
<svg width="1364pt" height="574pt"
 viewBox="0.00 0.00 1363.50 573.81" xmlns="http://www.w3.org/2000/svg" xmlns:xlink="http://www.w3.org/1999/xlink">
<g id="graph0" class="graph" transform="scale(1 1) rotate(0) translate(4 569.81)">
<polygon fill="white" stroke="transparent" points="-4,4 -4,-569.81 1359.5,-569.81 1359.5,4 -4,4"/>
<g id="clust1" class="cluster">
<title>clusterchannel (4)</title>
<path fill="none" stroke="black" d="M373.5,-443.86C373.5,-443.86 931.5,-443.86 931.5,-443.86 937.5,-443.86 943.5,-449.86 943.5,-455.86 943.5,-455.86 943.5,-545.81 943.5,-545.81 943.5,-551.81 937.5,-557.81 931.5,-557.81 931.5,-557.81 373.5,-557.81 373.5,-557.81 367.5,-557.81 361.5,-551.81 361.5,-545.81 361.5,-545.81 361.5,-455.86 361.5,-455.86 361.5,-449.86 367.5,-443.86 373.5,-443.86"/>
<text text-anchor="middle" x="904.5" y="-451.66" font-family="Times,serif" font-size="14.00">channel (4)</text>
</g>
<g id="clust2" class="cluster">
<title>clusterdate (1050) x channel (4)</title>
<path fill="none" stroke="black" d="M135.5,-218.93C135.5,-218.93 341.5,-218.93 341.5,-218.93 347.5,-218.93 353.5,-224.93 353.5,-230.93 353.5,-230.93 353.5,-534.84 353.5,-534.84 353.5,-540.84 347.5,-546.84 341.5,-546.84 341.5,-546.84 135.5,-546.84 135.5,-546.84 129.5,-546.84 123.5,-540.84 123.5,-534.84 123.5,-534.84 123.5,-230.93 123.5,-230.93 123.5,-224.93 129.5,-218.93 135.5,-218.93"/>
<text text-anchor="middle" x="276" y="-226.73" font-family="Times,serif" font-size="14.00">date (1050) x channel (4)</text>
</g>
<g id="clust3" class="cluster">
<title>clusterdate (1050)</title>
<path fill="none" stroke="black" d="M431.5,-8C431.5,-8 729.5,-8 729.5,-8 735.5,-8 741.5,-14 741.5,-20 741.5,-20 741.5,-298.93 741.5,-298.93 741.5,-304.93 735.5,-310.93 729.5,-310.93 729.5,-310.93 431.5,-310.93 431.5,-310.93 425.5,-310.93 419.5,-304.93 419.5,-298.93 419.5,-298.93 419.5,-20 419.5,-20 419.5,-14 425.5,-8 431.5,-8"/>
<text text-anchor="middle" x="702" y="-15.8" font-family="Times,serif" font-size="14.00">date (1050)</text>
</g>
<g id="clust4" class="cluster">
<title>clustercontrol (6)</title>
<path fill="none" stroke="black" d="M1197.5,-443.86C1197.5,-443.86 1335.5,-443.86 1335.5,-443.86 1341.5,-443.86 1347.5,-449.86 1347.5,-455.86 1347.5,-455.86 1347.5,-545.81 1347.5,-545.81 1347.5,-551.81 1341.5,-557.81 1335.5,-557.81 1335.5,-557.81 1197.5,-557.81 1197.5,-557.81 1191.5,-557.81 1185.5,-551.81 1185.5,-545.81 1185.5,-545.81 1185.5,-455.86 1185.5,-455.86 1185.5,-449.86 1191.5,-443.86 1197.5,-443.86"/>
<text text-anchor="middle" x="1310.5" y="-451.66" font-family="Times,serif" font-size="14.00">control (6)</text>
</g>
<g id="clust5" class="cluster">
<title>clusterdate (1050) x control (6)</title>
<path fill="none" stroke="black" d="M963.5,-218.93C963.5,-218.93 1165.5,-218.93 1165.5,-218.93 1171.5,-218.93 1177.5,-224.93 1177.5,-230.93 1177.5,-230.93 1177.5,-534.84 1177.5,-534.84 1177.5,-540.84 1171.5,-546.84 1165.5,-546.84 1165.5,-546.84 963.5,-546.84 963.5,-546.84 957.5,-546.84 951.5,-540.84 951.5,-534.84 951.5,-534.84 951.5,-230.93 951.5,-230.93 951.5,-224.93 957.5,-218.93 963.5,-218.93"/>
<text text-anchor="middle" x="1102" y="-226.73" font-family="Times,serif" font-size="14.00">date (1050) x control (6)</text>
</g>
<g id="clust6" class="cluster">
<title>cluster1</title>
<path fill="none" stroke="black" d="M601.5,-321.91C601.5,-321.91 759.5,-321.91 759.5,-321.91 765.5,-321.91 771.5,-327.91 771.5,-333.91 771.5,-333.91 771.5,-423.86 771.5,-423.86 771.5,-429.86 765.5,-435.86 759.5,-435.86 759.5,-435.86 601.5,-435.86 601.5,-435.86 595.5,-435.86 589.5,-429.86 589.5,-423.86 589.5,-423.86 589.5,-333.91 589.5,-333.91 589.5,-327.91 595.5,-321.91 601.5,-321.91"/>
<text text-anchor="middle" x="760" y="-329.71" font-family="Times,serif" font-size="14.00">1</text>
</g>
<!-- channel_scale -->
<g id="node1" class="node">
<title>channel_scale</title>
<path fill="lightgrey" stroke="black" d="M599.5,-538.84C599.5,-538.84 531.5,-538.84 531.5,-538.84 525.5,-538.84 519.5,-532.84 519.5,-526.84 519.5,-526.84 519.5,-497.84 519.5,-497.84 519.5,-491.84 525.5,-485.84 531.5,-485.84 531.5,-485.84 599.5,-485.84 599.5,-485.84 605.5,-485.84 611.5,-491.84 611.5,-497.84 611.5,-497.84 611.5,-526.84 611.5,-526.84 611.5,-532.84 605.5,-538.84 599.5,-538.84"/>
<text text-anchor="middle" x="565.5" y="-523.64" font-family="Times,serif" font-size="14.00">channel_scale</text>
<text text-anchor="middle" x="565.5" y="-508.64" font-family="Times,serif" font-size="14.00">~</text>
<text text-anchor="middle" x="565.5" y="-493.64" font-family="Times,serif" font-size="14.00">Data</text>
</g>
<!-- channel_contribution -->
<g id="node11" class="node">
<title>channel_contribution</title>
<polygon fill="none" stroke="black" points="345,-416.88 214,-416.88 214,-363.88 345,-363.88 345,-416.88"/>
<text text-anchor="middle" x="279.5" y="-401.68" font-family="Times,serif" font-size="14.00">channel_contribution</text>
<text text-anchor="middle" x="279.5" y="-386.68" font-family="Times,serif" font-size="14.00">~</text>
<text text-anchor="middle" x="279.5" y="-371.68" font-family="Times,serif" font-size="14.00">Deterministic</text>
</g>
<!-- channel_scale&#45;&gt;channel_contribution -->
<g id="edge3" class="edge">
<title>channel_scale&#45;&gt;channel_contribution</title>
<path fill="none" stroke="black" d="M550.56,-485.58C540.9,-471.19 527.07,-454.14 510.5,-443.86 507.08,-441.74 421.29,-422.55 355.25,-407.99"/>
<polygon fill="black" stroke="black" points="355.77,-404.52 345.25,-405.78 354.27,-411.35 355.77,-404.52"/>
</g>
<!-- saturation_lam -->
<g id="node2" class="node">
<title>saturation_lam</title>
<ellipse fill="none" stroke="black" cx="866.5" cy="-512.34" rx="69.09" ry="37.45"/>
<text text-anchor="middle" x="866.5" y="-523.64" font-family="Times,serif" font-size="14.00">saturation_lam</text>
<text text-anchor="middle" x="866.5" y="-508.64" font-family="Times,serif" font-size="14.00">~</text>
<text text-anchor="middle" x="866.5" y="-493.64" font-family="Times,serif" font-size="14.00">Gamma</text>
</g>
<!-- saturation_lam&#45;&gt;channel_contribution -->
<g id="edge5" class="edge">
<title>saturation_lam&#45;&gt;channel_contribution</title>
<path fill="none" stroke="black" d="M837.98,-478.18C824.47,-464.92 807.2,-451.1 788.5,-443.86 756.47,-431.46 513.59,-440.05 479.5,-435.86 437.86,-430.74 392.13,-420.89 354.92,-411.77"/>
<polygon fill="black" stroke="black" points="355.7,-408.36 345.15,-409.34 354.02,-415.15 355.7,-408.36"/>
</g>
<!-- lift_measurements -->
<g id="node21" class="node">
<title>lift_measurements</title>
<ellipse fill="lightgrey" stroke="black" cx="680.5" cy="-390.38" rx="83.38" ry="37.45"/>
<text text-anchor="middle" x="680.5" y="-401.68" font-family="Times,serif" font-size="14.00">lift_measurements</text>
<text text-anchor="middle" x="680.5" y="-386.68" font-family="Times,serif" font-size="14.00">~</text>
<text text-anchor="middle" x="680.5" y="-371.68" font-family="Times,serif" font-size="14.00">Gamma</text>
</g>
<!-- saturation_lam&#45;&gt;lift_measurements -->
<g id="edge25" class="edge">
<title>saturation_lam&#45;&gt;lift_measurements</title>
<path fill="none" stroke="black" d="M833.1,-479.06C819.84,-467.17 804.05,-454.11 788.5,-443.86 786.2,-442.34 767.33,-433.1 745.99,-422.79"/>
<polygon fill="black" stroke="black" points="747.26,-419.52 736.73,-418.32 744.21,-425.82 747.26,-419.52"/>
</g>
<!-- saturation_alpha -->
<g id="node3" class="node">
<title>saturation_alpha</title>
<ellipse fill="none" stroke="black" cx="704.5" cy="-512.34" rx="74.91" ry="37.45"/>
<text text-anchor="middle" x="704.5" y="-523.64" font-family="Times,serif" font-size="14.00">saturation_alpha</text>
<text text-anchor="middle" x="704.5" y="-508.64" font-family="Times,serif" font-size="14.00">~</text>
<text text-anchor="middle" x="704.5" y="-493.64" font-family="Times,serif" font-size="14.00">Gamma</text>
</g>
<!-- saturation_alpha&#45;&gt;channel_contribution -->
<g id="edge6" class="edge">
<title>saturation_alpha&#45;&gt;channel_contribution</title>
<path fill="none" stroke="black" d="M672.84,-478.08C658.25,-464.98 639.88,-451.3 620.5,-443.86 591.2,-432.61 510.59,-440.17 479.5,-435.86 437.94,-430.1 392.22,-420.2 354.99,-411.21"/>
<polygon fill="black" stroke="black" points="355.77,-407.79 345.22,-408.82 354.11,-414.59 355.77,-407.79"/>
</g>
<!-- saturation_alpha&#45;&gt;lift_measurements -->
<g id="edge24" class="edge">
<title>saturation_alpha&#45;&gt;lift_measurements</title>
<path fill="none" stroke="black" d="M697.23,-475.02C694.91,-463.38 692.29,-450.33 689.84,-438.06"/>
<polygon fill="black" stroke="black" points="693.22,-437.11 687.82,-427.99 686.35,-438.48 693.22,-437.11"/>
</g>
<!-- adstock_alpha -->
<g id="node4" class="node">
<title>adstock_alpha</title>
<ellipse fill="none" stroke="black" cx="435.5" cy="-512.34" rx="66.44" ry="37.45"/>
<text text-anchor="middle" x="435.5" y="-523.64" font-family="Times,serif" font-size="14.00">adstock_alpha</text>
<text text-anchor="middle" x="435.5" y="-508.64" font-family="Times,serif" font-size="14.00">~</text>
<text text-anchor="middle" x="435.5" y="-493.64" font-family="Times,serif" font-size="14.00">Beta</text>
</g>
<!-- adstock_alpha&#45;&gt;channel_contribution -->
<g id="edge7" class="edge">
<title>adstock_alpha&#45;&gt;channel_contribution</title>
<path fill="none" stroke="black" d="M401.31,-480.18C387.94,-468.43 372.29,-455.17 357.5,-443.86 348.08,-436.66 337.72,-429.32 327.72,-422.5"/>
<polygon fill="black" stroke="black" points="329.68,-419.59 319.43,-416.9 325.76,-425.4 329.68,-419.59"/>
</g>
<!-- y_sigma -->
<g id="node5" class="node">
<title>y_sigma</title>
<ellipse fill="none" stroke="black" cx="884.5" cy="-276.43" rx="56.64" ry="37.45"/>
<text text-anchor="middle" x="884.5" y="-287.73" font-family="Times,serif" font-size="14.00">y_sigma</text>
<text text-anchor="middle" x="884.5" y="-272.73" font-family="Times,serif" font-size="14.00">~</text>
<text text-anchor="middle" x="884.5" y="-257.73" font-family="Times,serif" font-size="14.00">Halfnormal</text>
</g>
<!-- y -->
<g id="node12" class="node">
<title>y</title>
<ellipse fill="lightgrey" stroke="black" cx="650.5" cy="-165.48" rx="82.96" ry="37.45"/>
<text text-anchor="middle" x="650.5" y="-176.78" font-family="Times,serif" font-size="14.00">y</text>
<text text-anchor="middle" x="650.5" y="-161.78" font-family="Times,serif" font-size="14.00">~</text>
<text text-anchor="middle" x="650.5" y="-146.78" font-family="Times,serif" font-size="14.00">Truncated_normal</text>
</g>
<!-- y_sigma&#45;&gt;y -->
<g id="edge14" class="edge">
<title>y_sigma&#45;&gt;y</title>
<path fill="none" stroke="black" d="M851.94,-245.47C840.43,-236 826.97,-226.14 813.5,-218.93 788.41,-205.49 759.29,-194.77 732.66,-186.61"/>
<polygon fill="black" stroke="black" points="733.56,-183.22 722.97,-183.72 731.56,-189.93 733.56,-183.22"/>
</g>
<!-- total_contribution -->
<g id="node6" class="node">
<title>total_contribution</title>
<polygon fill="none" stroke="black" points="113,-302.93 0,-302.93 0,-249.93 113,-249.93 113,-302.93"/>
<text text-anchor="middle" x="56.5" y="-287.73" font-family="Times,serif" font-size="14.00">total_contribution</text>
<text text-anchor="middle" x="56.5" y="-272.73" font-family="Times,serif" font-size="14.00">~</text>
<text text-anchor="middle" x="56.5" y="-257.73" font-family="Times,serif" font-size="14.00">Deterministic</text>
</g>
<!-- intercept -->
<g id="node7" class="node">
<title>intercept</title>
<ellipse fill="none" stroke="black" cx="533.5" cy="-390.38" rx="45.01" ry="37.45"/>
<text text-anchor="middle" x="533.5" y="-401.68" font-family="Times,serif" font-size="14.00">intercept</text>
<text text-anchor="middle" x="533.5" y="-386.68" font-family="Times,serif" font-size="14.00">~</text>
<text text-anchor="middle" x="533.5" y="-371.68" font-family="Times,serif" font-size="14.00">Normal</text>
</g>
<!-- mu -->
<g id="node16" class="node">
<title>mu</title>
<polygon fill="none" stroke="black" points="733,-302.93 642,-302.93 642,-249.93 733,-249.93 733,-302.93"/>
<text text-anchor="middle" x="687.5" y="-287.73" font-family="Times,serif" font-size="14.00">mu</text>
<text text-anchor="middle" x="687.5" y="-272.73" font-family="Times,serif" font-size="14.00">~</text>
<text text-anchor="middle" x="687.5" y="-257.73" font-family="Times,serif" font-size="14.00">Deterministic</text>
</g>
<!-- intercept&#45;&gt;mu -->
<g id="edge13" class="edge">
<title>intercept&#45;&gt;mu</title>
<path fill="none" stroke="black" d="M551.82,-356.06C560.42,-343.43 571.81,-330.14 585.5,-321.91 603.66,-310.99 612.8,-321.71 632.5,-313.91 636.63,-312.27 640.76,-310.3 644.81,-308.12"/>
<polygon fill="black" stroke="black" points="646.6,-311.13 653.5,-303.1 643.09,-305.07 646.6,-311.13"/>
</g>
<!-- target_scale -->
<g id="node8" class="node">
<title>target_scale</title>
<path fill="lightgrey" stroke="black" d="M851,-416.88C851,-416.88 794,-416.88 794,-416.88 788,-416.88 782,-410.88 782,-404.88 782,-404.88 782,-375.88 782,-375.88 782,-369.88 788,-363.88 794,-363.88 794,-363.88 851,-363.88 851,-363.88 857,-363.88 863,-369.88 863,-375.88 863,-375.88 863,-404.88 863,-404.88 863,-410.88 857,-416.88 851,-416.88"/>
<text text-anchor="middle" x="822.5" y="-401.68" font-family="Times,serif" font-size="14.00">target_scale</text>
<text text-anchor="middle" x="822.5" y="-386.68" font-family="Times,serif" font-size="14.00">~</text>
<text text-anchor="middle" x="822.5" y="-371.68" font-family="Times,serif" font-size="14.00">Data</text>
</g>
<!-- channel_contribution_original_scale -->
<g id="node9" class="node">
<title>channel_contribution_original_scale</title>
<polygon fill="none" stroke="black" points="345.5,-302.93 131.5,-302.93 131.5,-249.93 345.5,-249.93 345.5,-302.93"/>
<text text-anchor="middle" x="238.5" y="-287.73" font-family="Times,serif" font-size="14.00">channel_contribution_original_scale</text>
<text text-anchor="middle" x="238.5" y="-272.73" font-family="Times,serif" font-size="14.00">~</text>
<text text-anchor="middle" x="238.5" y="-257.73" font-family="Times,serif" font-size="14.00">Deterministic</text>
</g>
<!-- target_scale&#45;&gt;channel_contribution_original_scale -->
<g id="edge17" class="edge">
<title>target_scale&#45;&gt;channel_contribution_original_scale</title>
<path fill="none" stroke="black" d="M811.96,-363.84C804.26,-348.74 792.23,-330.88 775.5,-321.91 757.87,-312.45 435.38,-316.16 415.5,-313.91 396.03,-311.7 375.53,-308.4 355.65,-304.67"/>
<polygon fill="black" stroke="black" points="356.12,-301.2 345.64,-302.75 354.8,-308.07 356.12,-301.2"/>
</g>
<!-- total_contribution_original_scale -->
<g id="node13" class="node">
<title>total_contribution_original_scale</title>
<polygon fill="none" stroke="black" points="623.5,-302.93 427.5,-302.93 427.5,-249.93 623.5,-249.93 623.5,-302.93"/>
<text text-anchor="middle" x="525.5" y="-287.73" font-family="Times,serif" font-size="14.00">total_contribution_original_scale</text>
<text text-anchor="middle" x="525.5" y="-272.73" font-family="Times,serif" font-size="14.00">~</text>
<text text-anchor="middle" x="525.5" y="-257.73" font-family="Times,serif" font-size="14.00">Deterministic</text>
</g>
<!-- target_scale&#45;&gt;total_contribution_original_scale -->
<g id="edge19" class="edge">
<title>target_scale&#45;&gt;total_contribution_original_scale</title>
<path fill="none" stroke="black" d="M811.68,-363.69C803.93,-348.75 791.95,-331.1 775.5,-321.91 747.91,-306.5 664.53,-319.91 633.5,-313.91 623.01,-311.88 612.15,-309.08 601.53,-305.94"/>
<polygon fill="black" stroke="black" points="602.45,-302.56 591.86,-302.96 600.39,-309.25 602.45,-302.56"/>
</g>
<!-- y_original_scale -->
<g id="node14" class="node">
<title>y_original_scale</title>
<polygon fill="none" stroke="black" points="549.5,-191.98 443.5,-191.98 443.5,-138.98 549.5,-138.98 549.5,-191.98"/>
<text text-anchor="middle" x="496.5" y="-176.78" font-family="Times,serif" font-size="14.00">y_original_scale</text>
<text text-anchor="middle" x="496.5" y="-161.78" font-family="Times,serif" font-size="14.00">~</text>
<text text-anchor="middle" x="496.5" y="-146.78" font-family="Times,serif" font-size="14.00">Deterministic</text>
</g>
<!-- target_scale&#45;&gt;y_original_scale -->
<g id="edge23" class="edge">
<title>target_scale&#45;&gt;y_original_scale</title>
<path fill="none" stroke="black" d="M804.48,-363.65C795.04,-349.43 783.75,-331.18 775.5,-313.91 756.24,-273.58 777.76,-246.38 742.5,-218.93 710.11,-193.72 597.6,-215.44 558.5,-202.95 553.3,-201.29 548.06,-199.13 542.95,-196.69"/>
<polygon fill="black" stroke="black" points="544.43,-193.52 533.94,-192.05 541.23,-199.74 544.43,-193.52"/>
</g>
<!-- control_contribution_original_scale -->
<g id="node19" class="node">
<title>control_contribution_original_scale</title>
<polygon fill="none" stroke="black" points="1169.5,-302.93 959.5,-302.93 959.5,-249.93 1169.5,-249.93 1169.5,-302.93"/>
<text text-anchor="middle" x="1064.5" y="-287.73" font-family="Times,serif" font-size="14.00">control_contribution_original_scale</text>
<text text-anchor="middle" x="1064.5" y="-272.73" font-family="Times,serif" font-size="14.00">~</text>
<text text-anchor="middle" x="1064.5" y="-257.73" font-family="Times,serif" font-size="14.00">Deterministic</text>
</g>
<!-- target_scale&#45;&gt;control_contribution_original_scale -->
<g id="edge21" class="edge">
<title>target_scale&#45;&gt;control_contribution_original_scale</title>
<path fill="none" stroke="black" d="M863.19,-365.65C887.3,-352.04 918.68,-335.09 947.5,-321.91 958.88,-316.7 971.07,-311.58 983.11,-306.78"/>
<polygon fill="black" stroke="black" points="984.7,-309.92 992.73,-303 982.14,-303.4 984.7,-309.92"/>
</g>
<!-- channel_data -->
<g id="node10" class="node">
<title>channel_data</title>
<path fill="lightgrey" stroke="black" d="M311.5,-538.84C311.5,-538.84 247.5,-538.84 247.5,-538.84 241.5,-538.84 235.5,-532.84 235.5,-526.84 235.5,-526.84 235.5,-497.84 235.5,-497.84 235.5,-491.84 241.5,-485.84 247.5,-485.84 247.5,-485.84 311.5,-485.84 311.5,-485.84 317.5,-485.84 323.5,-491.84 323.5,-497.84 323.5,-497.84 323.5,-526.84 323.5,-526.84 323.5,-532.84 317.5,-538.84 311.5,-538.84"/>
<text text-anchor="middle" x="279.5" y="-523.64" font-family="Times,serif" font-size="14.00">channel_data</text>
<text text-anchor="middle" x="279.5" y="-508.64" font-family="Times,serif" font-size="14.00">~</text>
<text text-anchor="middle" x="279.5" y="-493.64" font-family="Times,serif" font-size="14.00">Data</text>
</g>
<!-- channel_data&#45;&gt;channel_contribution -->
<g id="edge4" class="edge">
<title>channel_data&#45;&gt;channel_contribution</title>
<path fill="none" stroke="black" d="M279.5,-485.6C279.5,-468.61 279.5,-446.09 279.5,-427.33"/>
<polygon fill="black" stroke="black" points="283,-427.07 279.5,-417.07 276,-427.07 283,-427.07"/>
</g>
<!-- channel_contribution&#45;&gt;total_contribution -->
<g id="edge8" class="edge">
<title>channel_contribution&#45;&gt;total_contribution</title>
<path fill="none" stroke="black" d="M222.28,-363.81C191.51,-349.7 153.1,-331.52 119.5,-313.91 115.85,-311.99 112.1,-309.97 108.35,-307.91"/>
<polygon fill="black" stroke="black" points="110.05,-304.85 99.61,-303.03 106.64,-310.96 110.05,-304.85"/>
</g>
<!-- channel_contribution&#45;&gt;channel_contribution_original_scale -->
<g id="edge16" class="edge">
<title>channel_contribution&#45;&gt;channel_contribution_original_scale</title>
<path fill="none" stroke="black" d="M270.09,-363.7C264.57,-348.62 257.52,-329.35 251.47,-312.85"/>
<polygon fill="black" stroke="black" points="254.59,-311.18 247.86,-302.99 248.01,-313.59 254.59,-311.18"/>
</g>
<!-- channel_contribution&#45;&gt;total_contribution_original_scale -->
<g id="edge18" class="edge">
<title>channel_contribution&#45;&gt;total_contribution_original_scale</title>
<path fill="none" stroke="black" d="M335.63,-363.84C372.65,-346.99 421.28,-324.86 460.06,-307.21"/>
<polygon fill="black" stroke="black" points="461.53,-310.39 469.19,-303.06 458.64,-304.01 461.53,-310.39"/>
</g>
<!-- channel_contribution&#45;&gt;mu -->
<g id="edge12" class="edge">
<title>channel_contribution&#45;&gt;mu</title>
<path fill="none" stroke="black" d="M340.93,-363.79C379.91,-348.78 431.81,-331.02 479.5,-321.91 512.94,-315.52 600.17,-324.58 632.5,-313.91 637.09,-312.39 641.65,-310.39 646.08,-308.09"/>
<polygon fill="black" stroke="black" points="647.99,-311.04 654.95,-303.05 644.53,-304.95 647.99,-311.04"/>
</g>
<!-- y&#45;&gt;target_scale -->
<g id="edge1" class="edge">
<title>y&#45;&gt;target_scale</title>
<path fill="none" stroke="black" d="M722.7,-184.11C742.13,-191.94 761.59,-203.11 775.5,-218.93 808.67,-256.65 818.64,-315.78 821.51,-353.55"/>
<polygon fill="black" stroke="black" points="818.02,-353.84 822.15,-363.6 825.01,-353.4 818.02,-353.84"/>
</g>
<!-- target_data -->
<g id="node15" class="node">
<title>target_data</title>
<path fill="lightgrey" stroke="black" d="M677,-92C677,-92 624,-92 624,-92 618,-92 612,-86 612,-80 612,-80 612,-51 612,-51 612,-45 618,-39 624,-39 624,-39 677,-39 677,-39 683,-39 689,-45 689,-51 689,-51 689,-80 689,-80 689,-86 683,-92 677,-92"/>
<text text-anchor="middle" x="650.5" y="-76.8" font-family="Times,serif" font-size="14.00">target_data</text>
<text text-anchor="middle" x="650.5" y="-61.8" font-family="Times,serif" font-size="14.00">~</text>
<text text-anchor="middle" x="650.5" y="-46.8" font-family="Times,serif" font-size="14.00">Data</text>
</g>
<!-- y&#45;&gt;target_data -->
<g id="edge2" class="edge">
<title>y&#45;&gt;target_data</title>
<path fill="none" stroke="black" d="M650.5,-127.99C650.5,-119.58 650.5,-110.63 650.5,-102.25"/>
<polygon fill="black" stroke="black" points="654,-102.01 650.5,-92.01 647,-102.01 654,-102.01"/>
</g>
<!-- mu&#45;&gt;y -->
<g id="edge15" class="edge">
<title>mu&#45;&gt;y</title>
<path fill="none" stroke="black" d="M678.83,-249.89C675.01,-238.66 670.42,-225.12 666.04,-212.25"/>
<polygon fill="black" stroke="black" points="669.29,-210.93 662.76,-202.59 662.66,-213.18 669.29,-210.93"/>
</g>
<!-- mu&#45;&gt;y_original_scale -->
<g id="edge22" class="edge">
<title>mu&#45;&gt;y_original_scale</title>
<path fill="none" stroke="black" d="M668.36,-249.83C658.77,-238.73 646.27,-226.56 632.5,-218.93 603.07,-202.63 589.84,-215.19 558.5,-202.95 554.01,-201.2 549.47,-199.15 544.98,-196.92"/>
<polygon fill="black" stroke="black" points="546.39,-193.71 535.91,-192.16 543.14,-199.91 546.39,-193.71"/>
</g>
<!-- gamma_control -->
<g id="node17" class="node">
<title>gamma_control</title>
<ellipse fill="none" stroke="black" cx="1266.5" cy="-512.34" rx="72.66" ry="37.45"/>
<text text-anchor="middle" x="1266.5" y="-523.64" font-family="Times,serif" font-size="14.00">gamma_control</text>
<text text-anchor="middle" x="1266.5" y="-508.64" font-family="Times,serif" font-size="14.00">~</text>
<text text-anchor="middle" x="1266.5" y="-493.64" font-family="Times,serif" font-size="14.00">Normal</text>
</g>
<!-- control_contribution -->
<g id="node18" class="node">
<title>control_contribution</title>
<polygon fill="none" stroke="black" points="1128.5,-416.88 1000.5,-416.88 1000.5,-363.88 1128.5,-363.88 1128.5,-416.88"/>
<text text-anchor="middle" x="1064.5" y="-401.68" font-family="Times,serif" font-size="14.00">control_contribution</text>
<text text-anchor="middle" x="1064.5" y="-386.68" font-family="Times,serif" font-size="14.00">~</text>
<text text-anchor="middle" x="1064.5" y="-371.68" font-family="Times,serif" font-size="14.00">Deterministic</text>
</g>
<!-- gamma_control&#45;&gt;control_contribution -->
<g id="edge9" class="edge">
<title>gamma_control&#45;&gt;control_contribution</title>
<path fill="none" stroke="black" d="M1230.73,-479.67C1216.07,-467.59 1198.57,-454.24 1181.5,-443.86 1167.8,-435.53 1152.54,-427.73 1137.69,-420.82"/>
<polygon fill="black" stroke="black" points="1139.06,-417.6 1128.51,-416.64 1136.16,-423.97 1139.06,-417.6"/>
</g>
<!-- control_contribution&#45;&gt;mu -->
<g id="edge11" class="edge">
<title>control_contribution&#45;&gt;mu</title>
<path fill="none" stroke="black" d="M1001.43,-363.79C964.4,-349.64 916.4,-332.77 872.5,-321.91 848.95,-316.08 842.23,-318.95 818.5,-313.91 793.44,-308.58 766.1,-301.22 742.9,-294.5"/>
<polygon fill="black" stroke="black" points="743.81,-291.12 733.23,-291.67 741.84,-297.84 743.81,-291.12"/>
</g>
<!-- control_contribution&#45;&gt;control_contribution_original_scale -->
<g id="edge20" class="edge">
<title>control_contribution&#45;&gt;control_contribution_original_scale</title>
<path fill="none" stroke="black" d="M1064.5,-363.7C1064.5,-348.77 1064.5,-329.72 1064.5,-313.32"/>
<polygon fill="black" stroke="black" points="1068,-312.99 1064.5,-302.99 1061,-312.99 1068,-312.99"/>
</g>
<!-- control_data -->
<g id="node20" class="node">
<title>control_data</title>
<path fill="lightgrey" stroke="black" d="M1094.5,-538.84C1094.5,-538.84 1034.5,-538.84 1034.5,-538.84 1028.5,-538.84 1022.5,-532.84 1022.5,-526.84 1022.5,-526.84 1022.5,-497.84 1022.5,-497.84 1022.5,-491.84 1028.5,-485.84 1034.5,-485.84 1034.5,-485.84 1094.5,-485.84 1094.5,-485.84 1100.5,-485.84 1106.5,-491.84 1106.5,-497.84 1106.5,-497.84 1106.5,-526.84 1106.5,-526.84 1106.5,-532.84 1100.5,-538.84 1094.5,-538.84"/>
<text text-anchor="middle" x="1064.5" y="-523.64" font-family="Times,serif" font-size="14.00">control_data</text>
<text text-anchor="middle" x="1064.5" y="-508.64" font-family="Times,serif" font-size="14.00">~</text>
<text text-anchor="middle" x="1064.5" y="-493.64" font-family="Times,serif" font-size="14.00">Data</text>
</g>
<!-- control_data&#45;&gt;control_contribution -->
<g id="edge10" class="edge">
<title>control_data&#45;&gt;control_contribution</title>
<path fill="none" stroke="black" d="M1064.5,-485.6C1064.5,-468.61 1064.5,-446.09 1064.5,-427.33"/>
<polygon fill="black" stroke="black" points="1068,-427.07 1064.5,-417.07 1061,-427.07 1068,-427.07"/>
</g>
</g>
</svg>
