<?xml version="1.0" encoding="UTF-8" standalone="no"?>
<!DOCTYPE svg PUBLIC "-//W3C//DTD SVG 1.1//EN"
 "http://www.w3.org/Graphics/SVG/1.1/DTD/svg11.dtd">
<!-- Generated by graphviz version 12.2.1 (0)
 -->
<!-- Pages: 1 -->
<svg width="982pt" height="608pt"
 viewBox="0.00 0.00 982.00 608.27" xmlns="http://www.w3.org/2000/svg" xmlns:xlink="http://www.w3.org/1999/xlink">
<g id="graph0" class="graph" transform="scale(1 1) rotate(0) translate(4 604.27)">
<polygon fill="white" stroke="none" points="-4,4 -4,-604.27 978,-604.27 978,4 -4,4"/>
<g id="clust1" class="cluster">
<title>clusterdate (1050) x channel (4)</title>
<path fill="none" stroke="black" d="M20,-352.54C20,-352.54 150,-352.54 150,-352.54 156,-352.54 162,-358.54 162,-364.54 162,-364.54 162,-568.36 162,-568.36 162,-574.36 156,-580.36 150,-580.36 150,-580.36 20,-580.36 20,-580.36 14,-580.36 8,-574.36 8,-568.36 8,-568.36 8,-364.54 8,-364.54 8,-358.54 14,-352.54 20,-352.54"/>
<text text-anchor="middle" x="85" y="-359.74" font-family="Times,serif" font-size="14.00">date (1050) x channel (4)</text>
</g>
<g id="clust2" class="cluster">
<title>clusterdate (1050)</title>
<path fill="none" stroke="black" d="M172,-8C172,-8 324,-8 324,-8 330,-8 336,-14 336,-20 336,-20 336,-316.73 336,-316.73 336,-322.73 330,-328.73 324,-328.73 324,-328.73 172,-328.73 172,-328.73 166,-328.73 160,-322.73 160,-316.73 160,-316.73 160,-20 160,-20 160,-14 166,-8 172,-8"/>
<text text-anchor="middle" x="296.88" y="-15.2" font-family="Times,serif" font-size="14.00">date (1050)</text>
</g>
<g id="clust3" class="cluster">
<title>clusterchannel (4)</title>
<path fill="none" stroke="black" d="M182,-470.45C182,-470.45 628,-470.45 628,-470.45 634,-470.45 640,-476.45 640,-482.45 640,-482.45 640,-580.27 640,-580.27 640,-586.27 634,-592.27 628,-592.27 628,-592.27 182,-592.27 182,-592.27 176,-592.27 170,-586.27 170,-580.27 170,-580.27 170,-482.45 170,-482.45 170,-476.45 176,-470.45 182,-470.45"/>
<text text-anchor="middle" x="601.25" y="-477.65" font-family="Times,serif" font-size="14.00">channel (4)</text>
</g>
<g id="clust4" class="cluster">
<title>clustercontrol (6)</title>
<path fill="none" stroke="black" d="M818,-470.45C818,-470.45 954,-470.45 954,-470.45 960,-470.45 966,-476.45 966,-482.45 966,-482.45 966,-580.27 966,-580.27 966,-586.27 960,-592.27 954,-592.27 954,-592.27 818,-592.27 818,-592.27 812,-592.27 806,-586.27 806,-580.27 806,-580.27 806,-482.45 806,-482.45 806,-476.45 812,-470.45 818,-470.45"/>
<text text-anchor="middle" x="929.12" y="-477.65" font-family="Times,serif" font-size="14.00">control (6)</text>
</g>
<g id="clust5" class="cluster">
<title>clusterdate (1050) x control (6)</title>
<path fill="none" stroke="black" d="M660,-352.54C660,-352.54 786,-352.54 786,-352.54 792,-352.54 798,-358.54 798,-364.54 798,-364.54 798,-568.36 798,-568.36 798,-574.36 792,-580.36 786,-580.36 786,-580.36 660,-580.36 660,-580.36 654,-580.36 648,-574.36 648,-568.36 648,-568.36 648,-364.54 648,-364.54 648,-358.54 654,-352.54 660,-352.54"/>
<text text-anchor="middle" x="722.88" y="-359.74" font-family="Times,serif" font-size="14.00">date (1050) x control (6)</text>
</g>
<g id="clust6" class="cluster">
<title>cluster1</title>
<path fill="none" stroke="black" d="M396,-340.63C396,-340.63 554,-340.63 554,-340.63 560,-340.63 566,-346.63 566,-352.63 566,-352.63 566,-450.45 566,-450.45 566,-456.45 560,-462.45 554,-462.45 554,-462.45 396,-462.45 396,-462.45 390,-462.45 384,-456.45 384,-450.45 384,-450.45 384,-352.63 384,-352.63 384,-346.63 390,-340.63 396,-340.63"/>
<text text-anchor="middle" x="554.62" y="-347.83" font-family="Times,serif" font-size="14.00">1</text>
</g>
<!-- channel_data -->
<g id="node1" class="node">
<title>channel_data</title>
<path fill="lightgrey" stroke="black" d="M117.62,-572.36C117.62,-572.36 54.37,-572.36 54.37,-572.36 48.38,-572.36 42.38,-566.36 42.38,-560.36 42.38,-560.36 42.38,-526.86 42.38,-526.86 42.38,-520.86 48.38,-514.86 54.38,-514.86 54.38,-514.86 117.62,-514.86 117.62,-514.86 123.62,-514.86 129.62,-520.86 129.62,-526.86 129.62,-526.86 129.62,-560.36 129.62,-560.36 129.62,-566.36 123.62,-572.36 117.62,-572.36"/>
<text text-anchor="middle" x="86" y="-555.06" font-family="Times,serif" font-size="14.00">channel_data</text>
<text text-anchor="middle" x="86" y="-538.56" font-family="Times,serif" font-size="14.00">~</text>
<text text-anchor="middle" x="86" y="-522.06" font-family="Times,serif" font-size="14.00">Data</text>
</g>
<!-- channel_contributions -->
<g id="node2" class="node">
<title>channel_contributions</title>
<polygon fill="none" stroke="black" points="154,-442.54 18,-442.54 18,-385.04 154,-385.04 154,-442.54"/>
<text text-anchor="middle" x="86" y="-425.24" font-family="Times,serif" font-size="14.00">channel_contributions</text>
<text text-anchor="middle" x="86" y="-408.74" font-family="Times,serif" font-size="14.00">~</text>
<text text-anchor="middle" x="86" y="-392.24" font-family="Times,serif" font-size="14.00">Deterministic</text>
</g>
<!-- channel_data&#45;&gt;channel_contributions -->
<g id="edge3" class="edge">
<title>channel_data&#45;&gt;channel_contributions</title>
<path fill="none" stroke="black" d="M86,-514.56C86,-496.83 86,-473.65 86,-454.1"/>
<polygon fill="black" stroke="black" points="89.5,-454.29 86,-444.29 82.5,-454.29 89.5,-454.29"/>
</g>
<!-- mu -->
<g id="node3" class="node">
<title>mu</title>
<polygon fill="none" stroke="black" points="293.12,-320.73 202.88,-320.73 202.88,-263.23 293.12,-263.23 293.12,-320.73"/>
<text text-anchor="middle" x="248" y="-303.43" font-family="Times,serif" font-size="14.00">mu</text>
<text text-anchor="middle" x="248" y="-286.93" font-family="Times,serif" font-size="14.00">~</text>
<text text-anchor="middle" x="248" y="-270.43" font-family="Times,serif" font-size="14.00">Deterministic</text>
</g>
<!-- channel_contributions&#45;&gt;mu -->
<g id="edge11" class="edge">
<title>channel_contributions&#45;&gt;mu</title>
<path fill="none" stroke="black" d="M123.98,-384.7C146.95,-367.71 176.43,-345.91 200.88,-327.83"/>
<polygon fill="black" stroke="black" points="202.8,-330.76 208.76,-322 198.64,-325.13 202.8,-330.76"/>
</g>
<!-- total_contributions -->
<g id="node8" class="node">
<title>total_contributions</title>
<polygon fill="none" stroke="black" points="145,-320.73 27,-320.73 27,-263.23 145,-263.23 145,-320.73"/>
<text text-anchor="middle" x="86" y="-303.43" font-family="Times,serif" font-size="14.00">total_contributions</text>
<text text-anchor="middle" x="86" y="-286.93" font-family="Times,serif" font-size="14.00">~</text>
<text text-anchor="middle" x="86" y="-270.43" font-family="Times,serif" font-size="14.00">Deterministic</text>
</g>
<!-- channel_contributions&#45;&gt;total_contributions -->
<g id="edge6" class="edge">
<title>channel_contributions&#45;&gt;total_contributions</title>
<path fill="none" stroke="black" d="M86,-384.7C86,-369.08 86,-349.39 86,-332.26"/>
<polygon fill="black" stroke="black" points="89.5,-332.41 86,-322.41 82.5,-332.41 89.5,-332.41"/>
</g>
<!-- y -->
<g id="node5" class="node">
<title>y</title>
<ellipse fill="lightgrey" stroke="black" cx="248" cy="-174.66" rx="79.73" ry="40.66"/>
<text text-anchor="middle" x="248" y="-186.11" font-family="Times,serif" font-size="14.00">y</text>
<text text-anchor="middle" x="248" y="-169.61" font-family="Times,serif" font-size="14.00">~</text>
<text text-anchor="middle" x="248" y="-153.11" font-family="Times,serif" font-size="14.00">TruncatedNormal</text>
</g>
<!-- mu&#45;&gt;y -->
<g id="edge12" class="edge">
<title>mu&#45;&gt;y</title>
<path fill="none" stroke="black" d="M248,-262.77C248,-251.94 248,-239.23 248,-226.91"/>
<polygon fill="black" stroke="black" points="251.5,-227.28 248,-217.28 244.5,-227.28 251.5,-227.28"/>
</g>
<!-- target -->
<g id="node4" class="node">
<title>target</title>
<path fill="lightgrey" stroke="black" d="M263,-98C263,-98 233,-98 233,-98 227,-98 221,-92 221,-86 221,-86 221,-52.5 221,-52.5 221,-46.5 227,-40.5 233,-40.5 233,-40.5 263,-40.5 263,-40.5 269,-40.5 275,-46.5 275,-52.5 275,-52.5 275,-86 275,-86 275,-92 269,-98 263,-98"/>
<text text-anchor="middle" x="248" y="-80.7" font-family="Times,serif" font-size="14.00">target</text>
<text text-anchor="middle" x="248" y="-64.2" font-family="Times,serif" font-size="14.00">~</text>
<text text-anchor="middle" x="248" y="-47.7" font-family="Times,serif" font-size="14.00">Data</text>
</g>
<!-- y&#45;&gt;target -->
<g id="edge1" class="edge">
<title>y&#45;&gt;target</title>
<path fill="none" stroke="black" d="M248,-133.68C248,-125.83 248,-117.6 248,-109.76"/>
<polygon fill="black" stroke="black" points="251.5,-109.79 248,-99.79 244.5,-109.79 251.5,-109.79"/>
</g>
<!-- y_sigma -->
<g id="node6" class="node">
<title>y_sigma</title>
<ellipse fill="none" stroke="black" cx="402" cy="-291.98" rx="57.98" ry="40.66"/>
<text text-anchor="middle" x="402" y="-303.43" font-family="Times,serif" font-size="14.00">y_sigma</text>
<text text-anchor="middle" x="402" y="-286.93" font-family="Times,serif" font-size="14.00">~</text>
<text text-anchor="middle" x="402" y="-270.43" font-family="Times,serif" font-size="14.00">HalfNormal</text>
</g>
<!-- y_sigma&#45;&gt;y -->
<g id="edge13" class="edge">
<title>y_sigma&#45;&gt;y</title>
<path fill="none" stroke="black" d="M362.74,-261.58C344.12,-247.63 321.58,-230.76 301.43,-215.66"/>
<polygon fill="black" stroke="black" points="303.67,-212.97 293.57,-209.78 299.47,-218.58 303.67,-212.97"/>
</g>
<!-- intercept -->
<g id="node7" class="node">
<title>intercept</title>
<ellipse fill="none" stroke="black" cx="248" cy="-413.79" rx="44.72" ry="40.66"/>
<text text-anchor="middle" x="248" y="-425.24" font-family="Times,serif" font-size="14.00">intercept</text>
<text text-anchor="middle" x="248" y="-408.74" font-family="Times,serif" font-size="14.00">~</text>
<text text-anchor="middle" x="248" y="-392.24" font-family="Times,serif" font-size="14.00">Normal</text>
</g>
<!-- intercept&#45;&gt;mu -->
<g id="edge9" class="edge">
<title>intercept&#45;&gt;mu</title>
<path fill="none" stroke="black" d="M248,-372.9C248,-359.87 248,-345.41 248,-332.41"/>
<polygon fill="black" stroke="black" points="251.5,-332.48 248,-322.48 244.5,-332.48 251.5,-332.48"/>
</g>
<!-- saturation_lam -->
<g id="node9" class="node">
<title>saturation_lam</title>
<ellipse fill="none" stroke="black" cx="563" cy="-543.61" rx="68.59" ry="40.66"/>
<text text-anchor="middle" x="563" y="-555.06" font-family="Times,serif" font-size="14.00">saturation_lam</text>
<text text-anchor="middle" x="563" y="-538.56" font-family="Times,serif" font-size="14.00">~</text>
<text text-anchor="middle" x="563" y="-522.06" font-family="Times,serif" font-size="14.00">Gamma</text>
</g>
<!-- saturation_lam&#45;&gt;channel_contributions -->
<g id="edge2" class="edge">
<title>saturation_lam&#45;&gt;channel_contributions</title>
<path fill="none" stroke="black" d="M534.16,-506.44C520.84,-492.51 503.79,-478.11 485,-470.45 455.05,-458.24 225.56,-469.56 194,-462.45 178.96,-459.06 163.43,-453.55 149,-447.45"/>
<polygon fill="black" stroke="black" points="150.66,-444.36 140.09,-443.54 147.84,-450.77 150.66,-444.36"/>
</g>
<!-- lift_measurements -->
<g id="node15" class="node">
<title>lift_measurements</title>
<ellipse fill="lightgrey" stroke="black" cx="475" cy="-413.79" rx="82.91" ry="40.66"/>
<text text-anchor="middle" x="475" y="-425.24" font-family="Times,serif" font-size="14.00">lift_measurements</text>
<text text-anchor="middle" x="475" y="-408.74" font-family="Times,serif" font-size="14.00">~</text>
<text text-anchor="middle" x="475" y="-392.24" font-family="Times,serif" font-size="14.00">Gamma</text>
</g>
<!-- saturation_lam&#45;&gt;lift_measurements -->
<g id="edge14" class="edge">
<title>saturation_lam&#45;&gt;lift_measurements</title>
<path fill="none" stroke="black" d="M537.55,-505.64C528.14,-491.97 517.34,-476.29 507.4,-461.85"/>
<polygon fill="black" stroke="black" points="510.42,-460.07 501.87,-453.81 504.65,-464.04 510.42,-460.07"/>
</g>
<!-- adstock_alpha -->
<g id="node10" class="node">
<title>adstock_alpha</title>
<ellipse fill="none" stroke="black" cx="244" cy="-543.61" rx="65.94" ry="40.66"/>
<text text-anchor="middle" x="244" y="-555.06" font-family="Times,serif" font-size="14.00">adstock_alpha</text>
<text text-anchor="middle" x="244" y="-538.56" font-family="Times,serif" font-size="14.00">~</text>
<text text-anchor="middle" x="244" y="-522.06" font-family="Times,serif" font-size="14.00">Beta</text>
</g>
<!-- adstock_alpha&#45;&gt;channel_contributions -->
<g id="edge4" class="edge">
<title>adstock_alpha&#45;&gt;channel_contributions</title>
<path fill="none" stroke="black" d="M209.59,-508.85C196.33,-496.36 180.81,-482.36 166,-470.45 157.2,-463.38 147.55,-456.2 138.09,-449.47"/>
<polygon fill="black" stroke="black" points="140.17,-446.65 129.97,-443.77 136.14,-452.38 140.17,-446.65"/>
</g>
<!-- saturation_alpha -->
<g id="node11" class="node">
<title>saturation_alpha</title>
<ellipse fill="none" stroke="black" cx="402" cy="-543.61" rx="74.42" ry="40.66"/>
<text text-anchor="middle" x="402" y="-555.06" font-family="Times,serif" font-size="14.00">saturation_alpha</text>
<text text-anchor="middle" x="402" y="-538.56" font-family="Times,serif" font-size="14.00">~</text>
<text text-anchor="middle" x="402" y="-522.06" font-family="Times,serif" font-size="14.00">Gamma</text>
</g>
<!-- saturation_alpha&#45;&gt;channel_contributions -->
<g id="edge5" class="edge">
<title>saturation_alpha&#45;&gt;channel_contributions</title>
<path fill="none" stroke="black" d="M370.37,-506.38C356.16,-492.62 338.25,-478.36 319,-470.45 293.25,-459.88 221.04,-469.06 194,-462.45 179.48,-458.9 164.48,-453.51 150.43,-447.61"/>
<polygon fill="black" stroke="black" points="151.86,-444.41 141.29,-443.63 149.06,-450.83 151.86,-444.41"/>
</g>
<!-- saturation_alpha&#45;&gt;lift_measurements -->
<g id="edge15" class="edge">
<title>saturation_alpha&#45;&gt;lift_measurements</title>
<path fill="none" stroke="black" d="M423.9,-504.26C431.34,-491.24 439.74,-476.53 447.55,-462.85"/>
<polygon fill="black" stroke="black" points="450.44,-464.85 452.36,-454.43 444.36,-461.38 450.44,-464.85"/>
</g>
<!-- gamma_control -->
<g id="node12" class="node">
<title>gamma_control</title>
<ellipse fill="none" stroke="black" cx="886" cy="-543.61" rx="72.3" ry="40.66"/>
<text text-anchor="middle" x="886" y="-555.06" font-family="Times,serif" font-size="14.00">gamma_control</text>
<text text-anchor="middle" x="886" y="-538.56" font-family="Times,serif" font-size="14.00">~</text>
<text text-anchor="middle" x="886" y="-522.06" font-family="Times,serif" font-size="14.00">Normal</text>
</g>
<!-- control_contributions -->
<g id="node14" class="node">
<title>control_contributions</title>
<polygon fill="none" stroke="black" points="789.12,-442.54 656.88,-442.54 656.88,-385.04 789.12,-385.04 789.12,-442.54"/>
<text text-anchor="middle" x="723" y="-425.24" font-family="Times,serif" font-size="14.00">control_contributions</text>
<text text-anchor="middle" x="723" y="-408.74" font-family="Times,serif" font-size="14.00">~</text>
<text text-anchor="middle" x="723" y="-392.24" font-family="Times,serif" font-size="14.00">Deterministic</text>
</g>
<!-- gamma_control&#45;&gt;control_contributions -->
<g id="edge8" class="edge">
<title>gamma_control&#45;&gt;control_contributions</title>
<path fill="none" stroke="black" d="M848.17,-508.77C833.95,-496.4 817.47,-482.5 802,-470.45 793.07,-463.49 783.35,-456.33 773.89,-449.56"/>
<polygon fill="black" stroke="black" points="775.96,-446.75 765.78,-443.82 771.92,-452.46 775.96,-446.75"/>
</g>
<!-- control_data -->
<g id="node13" class="node">
<title>control_data</title>
<path fill="lightgrey" stroke="black" d="M752.75,-572.36C752.75,-572.36 693.25,-572.36 693.25,-572.36 687.25,-572.36 681.25,-566.36 681.25,-560.36 681.25,-560.36 681.25,-526.86 681.25,-526.86 681.25,-520.86 687.25,-514.86 693.25,-514.86 693.25,-514.86 752.75,-514.86 752.75,-514.86 758.75,-514.86 764.75,-520.86 764.75,-526.86 764.75,-526.86 764.75,-560.36 764.75,-560.36 764.75,-566.36 758.75,-572.36 752.75,-572.36"/>
<text text-anchor="middle" x="723" y="-555.06" font-family="Times,serif" font-size="14.00">control_data</text>
<text text-anchor="middle" x="723" y="-538.56" font-family="Times,serif" font-size="14.00">~</text>
<text text-anchor="middle" x="723" y="-522.06" font-family="Times,serif" font-size="14.00">Data</text>
</g>
<!-- control_data&#45;&gt;control_contributions -->
<g id="edge7" class="edge">
<title>control_data&#45;&gt;control_contributions</title>
<path fill="none" stroke="black" d="M723,-514.56C723,-496.83 723,-473.65 723,-454.1"/>
<polygon fill="black" stroke="black" points="726.5,-454.29 723,-444.29 719.5,-454.29 726.5,-454.29"/>
</g>
<!-- control_contributions&#45;&gt;mu -->
<g id="edge10" class="edge">
<title>control_contributions&#45;&gt;mu</title>
<path fill="none" stroke="black" d="M676.27,-384.64C646.88,-368.51 607.54,-349.72 570,-340.63 519.21,-328.35 385.87,-344.59 335,-332.63 324.57,-330.18 313.86,-326.44 303.68,-322.22"/>
<polygon fill="black" stroke="black" points="305.26,-319.09 294.69,-318.29 302.45,-325.51 305.26,-319.09"/>
</g>
</g>
</svg>
