<?xml version="1.0" encoding="UTF-8" standalone="no"?>
<!DOCTYPE svg PUBLIC "-//W3C//DTD SVG 1.1//EN"
 "http://www.w3.org/Graphics/SVG/1.1/DTD/svg11.dtd">
<!-- Generated by graphviz version 2.50.0 (0)
 -->
<!-- Pages: 1 -->
<svg width="1781pt" height="563pt"
 viewBox="0.00 0.00 1781.00 562.81" xmlns="http://www.w3.org/2000/svg" xmlns:xlink="http://www.w3.org/1999/xlink">
<g id="graph0" class="graph" transform="scale(1 1) rotate(0) translate(4 558.81)">
<polygon fill="white" stroke="transparent" points="-4,4 -4,-558.81 1777,-558.81 1777,4 -4,4"/>
<g id="clust1" class="cluster">
<title>clusterchannel (4)</title>
<path fill="none" stroke="black" d="M20,-432.86C20,-432.86 579,-432.86 579,-432.86 585,-432.86 591,-438.86 591,-444.86 591,-444.86 591,-534.81 591,-534.81 591,-540.81 585,-546.81 579,-546.81 579,-546.81 20,-546.81 20,-546.81 14,-546.81 8,-540.81 8,-534.81 8,-534.81 8,-444.86 8,-444.86 8,-438.86 14,-432.86 20,-432.86"/>
<text text-anchor="middle" x="552" y="-440.66" font-family="Times,serif" font-size="14.00">channel (4)</text>
</g>
<g id="clust2" class="cluster">
<title>clusterdate (879) x channel (4)</title>
<path fill="none" stroke="black" d="M611,-218.93C611,-218.93 817,-218.93 817,-218.93 823,-218.93 829,-224.93 829,-230.93 829,-230.93 829,-523.84 829,-523.84 829,-529.84 823,-535.84 817,-535.84 817,-535.84 611,-535.84 611,-535.84 605,-535.84 599,-529.84 599,-523.84 599,-523.84 599,-230.93 599,-230.93 599,-224.93 605,-218.93 611,-218.93"/>
<text text-anchor="middle" x="755" y="-226.73" font-family="Times,serif" font-size="14.00">date (879) x channel (4)</text>
</g>
<g id="clust3" class="cluster">
<title>clusterdate (879)</title>
<path fill="none" stroke="black" d="M849,-8C849,-8 1147,-8 1147,-8 1153,-8 1159,-14 1159,-20 1159,-20 1159,-298.93 1159,-298.93 1159,-304.93 1153,-310.93 1147,-310.93 1147,-310.93 849,-310.93 849,-310.93 843,-310.93 837,-304.93 837,-298.93 837,-298.93 837,-20 837,-20 837,-14 843,-8 849,-8"/>
<text text-anchor="middle" x="1123" y="-15.8" font-family="Times,serif" font-size="14.00">date (879)</text>
</g>
<g id="clust4" class="cluster">
<title>clustercontrol (6)</title>
<path fill="none" stroke="black" d="M1615,-432.86C1615,-432.86 1753,-432.86 1753,-432.86 1759,-432.86 1765,-438.86 1765,-444.86 1765,-444.86 1765,-534.81 1765,-534.81 1765,-540.81 1759,-546.81 1753,-546.81 1753,-546.81 1615,-546.81 1615,-546.81 1609,-546.81 1603,-540.81 1603,-534.81 1603,-534.81 1603,-444.86 1603,-444.86 1603,-438.86 1609,-432.86 1615,-432.86"/>
<text text-anchor="middle" x="1728" y="-440.66" font-family="Times,serif" font-size="14.00">control (6)</text>
</g>
<g id="clust5" class="cluster">
<title>clusterdate (879) x control (6)</title>
<path fill="none" stroke="black" d="M1381,-218.93C1381,-218.93 1583,-218.93 1583,-218.93 1589,-218.93 1595,-224.93 1595,-230.93 1595,-230.93 1595,-523.84 1595,-523.84 1595,-529.84 1589,-535.84 1583,-535.84 1583,-535.84 1381,-535.84 1381,-535.84 1375,-535.84 1369,-529.84 1369,-523.84 1369,-523.84 1369,-230.93 1369,-230.93 1369,-224.93 1375,-218.93 1381,-218.93"/>
<text text-anchor="middle" x="1523" y="-226.73" font-family="Times,serif" font-size="14.00">date (879) x control (6)</text>
</g>
<!-- adstock_alpha -->
<g id="node1" class="node">
<title>adstock_alpha</title>
<ellipse fill="none" stroke="black" cx="239" cy="-501.34" rx="66.44" ry="37.45"/>
<text text-anchor="middle" x="239" y="-512.64" font-family="Times,serif" font-size="14.00">adstock_alpha</text>
<text text-anchor="middle" x="239" y="-497.64" font-family="Times,serif" font-size="14.00">~</text>
<text text-anchor="middle" x="239" y="-482.64" font-family="Times,serif" font-size="14.00">Beta</text>
</g>
<!-- channel_contribution -->
<g id="node10" class="node">
<title>channel_contribution</title>
<polygon fill="none" stroke="black" points="738.5,-413.88 607.5,-413.88 607.5,-360.88 738.5,-360.88 738.5,-413.88"/>
<text text-anchor="middle" x="673" y="-398.68" font-family="Times,serif" font-size="14.00">channel_contribution</text>
<text text-anchor="middle" x="673" y="-383.68" font-family="Times,serif" font-size="14.00">~</text>
<text text-anchor="middle" x="673" y="-368.68" font-family="Times,serif" font-size="14.00">Deterministic</text>
</g>
<!-- adstock_alpha&#45;&gt;channel_contribution -->
<g id="edge6" class="edge">
<title>adstock_alpha&#45;&gt;channel_contribution</title>
<path fill="none" stroke="black" d="M267.25,-467.33C280.16,-454.44 296.47,-440.86 314,-432.86 362.97,-410.52 507.29,-398.16 597.33,-392.43"/>
<polygon fill="black" stroke="black" points="597.73,-395.91 607.49,-391.79 597.29,-388.92 597.73,-395.91"/>
</g>
<!-- saturation_lam -->
<g id="node2" class="node">
<title>saturation_lam</title>
<ellipse fill="none" stroke="black" cx="85" cy="-501.34" rx="69.09" ry="37.45"/>
<text text-anchor="middle" x="85" y="-512.64" font-family="Times,serif" font-size="14.00">saturation_lam</text>
<text text-anchor="middle" x="85" y="-497.64" font-family="Times,serif" font-size="14.00">~</text>
<text text-anchor="middle" x="85" y="-482.64" font-family="Times,serif" font-size="14.00">Gamma</text>
</g>
<!-- saturation_lam&#45;&gt;channel_contribution -->
<g id="edge3" class="edge">
<title>saturation_lam&#45;&gt;channel_contribution</title>
<path fill="none" stroke="black" d="M114.55,-467.37C128.23,-454.32 145.54,-440.6 164,-432.86 240.19,-400.92 474.97,-391.91 597.23,-389.38"/>
<polygon fill="black" stroke="black" points="597.34,-392.87 607.26,-389.18 597.2,-385.88 597.34,-392.87"/>
</g>
<!-- saturation_alpha -->
<g id="node3" class="node">
<title>saturation_alpha</title>
<ellipse fill="none" stroke="black" cx="508" cy="-501.34" rx="74.91" ry="37.45"/>
<text text-anchor="middle" x="508" y="-512.64" font-family="Times,serif" font-size="14.00">saturation_alpha</text>
<text text-anchor="middle" x="508" y="-497.64" font-family="Times,serif" font-size="14.00">~</text>
<text text-anchor="middle" x="508" y="-482.64" font-family="Times,serif" font-size="14.00">Gamma</text>
</g>
<!-- saturation_alpha&#45;&gt;channel_contribution -->
<g id="edge4" class="edge">
<title>saturation_alpha&#45;&gt;channel_contribution</title>
<path fill="none" stroke="black" d="M546.11,-468.9C561.01,-457.11 578.47,-443.9 595,-432.86 601.99,-428.19 609.49,-423.52 616.98,-419.05"/>
<polygon fill="black" stroke="black" points="618.89,-421.99 625.74,-413.9 615.35,-415.95 618.89,-421.99"/>
</g>
<!-- channel_scale -->
<g id="node4" class="node">
<title>channel_scale</title>
<path fill="lightgrey" stroke="black" d="M403,-527.84C403,-527.84 335,-527.84 335,-527.84 329,-527.84 323,-521.84 323,-515.84 323,-515.84 323,-486.84 323,-486.84 323,-480.84 329,-474.84 335,-474.84 335,-474.84 403,-474.84 403,-474.84 409,-474.84 415,-480.84 415,-486.84 415,-486.84 415,-515.84 415,-515.84 415,-521.84 409,-527.84 403,-527.84"/>
<text text-anchor="middle" x="369" y="-512.64" font-family="Times,serif" font-size="14.00">channel_scale</text>
<text text-anchor="middle" x="369" y="-497.64" font-family="Times,serif" font-size="14.00">~</text>
<text text-anchor="middle" x="369" y="-482.64" font-family="Times,serif" font-size="14.00">Data</text>
</g>
<!-- channel_scale&#45;&gt;channel_contribution -->
<g id="edge7" class="edge">
<title>channel_scale&#45;&gt;channel_contribution</title>
<path fill="none" stroke="black" d="M383.55,-474.63C393.15,-460.07 407.07,-442.82 424,-432.86 452.73,-415.96 534.94,-403.46 597.1,-396.09"/>
<polygon fill="black" stroke="black" points="597.75,-399.54 607.28,-394.91 596.95,-392.58 597.75,-399.54"/>
</g>
<!-- target_scale -->
<g id="node5" class="node">
<title>target_scale</title>
<path fill="lightgrey" stroke="black" d="M1222.5,-413.88C1222.5,-413.88 1165.5,-413.88 1165.5,-413.88 1159.5,-413.88 1153.5,-407.88 1153.5,-401.88 1153.5,-401.88 1153.5,-372.88 1153.5,-372.88 1153.5,-366.88 1159.5,-360.88 1165.5,-360.88 1165.5,-360.88 1222.5,-360.88 1222.5,-360.88 1228.5,-360.88 1234.5,-366.88 1234.5,-372.88 1234.5,-372.88 1234.5,-401.88 1234.5,-401.88 1234.5,-407.88 1228.5,-413.88 1222.5,-413.88"/>
<text text-anchor="middle" x="1194" y="-398.68" font-family="Times,serif" font-size="14.00">target_scale</text>
<text text-anchor="middle" x="1194" y="-383.68" font-family="Times,serif" font-size="14.00">~</text>
<text text-anchor="middle" x="1194" y="-368.68" font-family="Times,serif" font-size="14.00">Data</text>
</g>
<!-- channel_contribution_original_scale -->
<g id="node9" class="node">
<title>channel_contribution_original_scale</title>
<polygon fill="none" stroke="black" points="821,-302.93 607,-302.93 607,-249.93 821,-249.93 821,-302.93"/>
<text text-anchor="middle" x="714" y="-287.73" font-family="Times,serif" font-size="14.00">channel_contribution_original_scale</text>
<text text-anchor="middle" x="714" y="-272.73" font-family="Times,serif" font-size="14.00">~</text>
<text text-anchor="middle" x="714" y="-257.73" font-family="Times,serif" font-size="14.00">Deterministic</text>
</g>
<!-- target_scale&#45;&gt;channel_contribution_original_scale -->
<g id="edge16" class="edge">
<title>target_scale&#45;&gt;channel_contribution_original_scale</title>
<path fill="none" stroke="black" d="M1163.99,-360.75C1157.72,-356.5 1150.9,-352.61 1144,-349.91 1014.41,-299.23 969.19,-342.41 833,-313.91 822.12,-311.63 810.81,-308.8 799.68,-305.72"/>
<polygon fill="black" stroke="black" points="800.54,-302.32 789.96,-302.96 798.63,-309.06 800.54,-302.32"/>
</g>
<!-- total_contribution_original_scale -->
<g id="node14" class="node">
<title>total_contribution_original_scale</title>
<polygon fill="none" stroke="black" points="1041,-302.93 845,-302.93 845,-249.93 1041,-249.93 1041,-302.93"/>
<text text-anchor="middle" x="943" y="-287.73" font-family="Times,serif" font-size="14.00">total_contribution_original_scale</text>
<text text-anchor="middle" x="943" y="-272.73" font-family="Times,serif" font-size="14.00">~</text>
<text text-anchor="middle" x="943" y="-257.73" font-family="Times,serif" font-size="14.00">Deterministic</text>
</g>
<!-- target_scale&#45;&gt;total_contribution_original_scale -->
<g id="edge18" class="edge">
<title>target_scale&#45;&gt;total_contribution_original_scale</title>
<path fill="none" stroke="black" d="M1161.79,-360.86C1156.04,-356.9 1149.98,-353.08 1144,-349.91 1132.84,-343.98 1076.65,-323.84 1026.5,-306.29"/>
<polygon fill="black" stroke="black" points="1027.49,-302.93 1016.9,-302.93 1025.18,-309.54 1027.49,-302.93"/>
</g>
<!-- y_original_scale -->
<g id="node15" class="node">
<title>y_original_scale</title>
<polygon fill="none" stroke="black" points="967,-191.98 861,-191.98 861,-138.98 967,-138.98 967,-191.98"/>
<text text-anchor="middle" x="914" y="-176.78" font-family="Times,serif" font-size="14.00">y_original_scale</text>
<text text-anchor="middle" x="914" y="-161.78" font-family="Times,serif" font-size="14.00">~</text>
<text text-anchor="middle" x="914" y="-146.78" font-family="Times,serif" font-size="14.00">Deterministic</text>
</g>
<!-- target_scale&#45;&gt;y_original_scale -->
<g id="edge22" class="edge">
<title>target_scale&#45;&gt;y_original_scale</title>
<path fill="none" stroke="black" d="M1192.46,-360.81C1189.34,-318.67 1180.75,-237.45 1160,-218.93 1129.38,-191.6 1015.1,-215.44 976,-202.95 970.8,-201.29 965.56,-199.13 960.45,-196.69"/>
<polygon fill="black" stroke="black" points="961.93,-193.52 951.44,-192.05 958.73,-199.74 961.93,-193.52"/>
</g>
<!-- control_contribution_original_scale -->
<g id="node18" class="node">
<title>control_contribution_original_scale</title>
<polygon fill="none" stroke="black" points="1587,-302.93 1377,-302.93 1377,-249.93 1587,-249.93 1587,-302.93"/>
<text text-anchor="middle" x="1482" y="-287.73" font-family="Times,serif" font-size="14.00">control_contribution_original_scale</text>
<text text-anchor="middle" x="1482" y="-272.73" font-family="Times,serif" font-size="14.00">~</text>
<text text-anchor="middle" x="1482" y="-257.73" font-family="Times,serif" font-size="14.00">Deterministic</text>
</g>
<!-- target_scale&#45;&gt;control_contribution_original_scale -->
<g id="edge20" class="edge">
<title>target_scale&#45;&gt;control_contribution_original_scale</title>
<path fill="none" stroke="black" d="M1234.65,-371C1278.68,-354.35 1349.95,-327.39 1404.7,-306.67"/>
<polygon fill="black" stroke="black" points="1406.26,-309.82 1414.38,-303.01 1403.79,-303.28 1406.26,-309.82"/>
</g>
<!-- total_contribution -->
<g id="node6" class="node">
<title>total_contribution</title>
<polygon fill="none" stroke="black" points="588.5,-302.93 475.5,-302.93 475.5,-249.93 588.5,-249.93 588.5,-302.93"/>
<text text-anchor="middle" x="532" y="-287.73" font-family="Times,serif" font-size="14.00">total_contribution</text>
<text text-anchor="middle" x="532" y="-272.73" font-family="Times,serif" font-size="14.00">~</text>
<text text-anchor="middle" x="532" y="-257.73" font-family="Times,serif" font-size="14.00">Deterministic</text>
</g>
<!-- intercept -->
<g id="node7" class="node">
<title>intercept</title>
<ellipse fill="none" stroke="black" cx="1090" cy="-387.38" rx="45.01" ry="37.45"/>
<text text-anchor="middle" x="1090" y="-398.68" font-family="Times,serif" font-size="14.00">intercept</text>
<text text-anchor="middle" x="1090" y="-383.68" font-family="Times,serif" font-size="14.00">~</text>
<text text-anchor="middle" x="1090" y="-368.68" font-family="Times,serif" font-size="14.00">Normal</text>
</g>
<!-- mu -->
<g id="node13" class="node">
<title>mu</title>
<polygon fill="none" stroke="black" points="1150.5,-302.93 1059.5,-302.93 1059.5,-249.93 1150.5,-249.93 1150.5,-302.93"/>
<text text-anchor="middle" x="1105" y="-287.73" font-family="Times,serif" font-size="14.00">mu</text>
<text text-anchor="middle" x="1105" y="-272.73" font-family="Times,serif" font-size="14.00">~</text>
<text text-anchor="middle" x="1105" y="-257.73" font-family="Times,serif" font-size="14.00">Deterministic</text>
</g>
<!-- intercept&#45;&gt;mu -->
<g id="edge11" class="edge">
<title>intercept&#45;&gt;mu</title>
<path fill="none" stroke="black" d="M1094.99,-350.1C1096.63,-338.23 1098.44,-325.05 1100.07,-313.22"/>
<polygon fill="black" stroke="black" points="1103.55,-313.61 1101.45,-303.22 1096.62,-312.65 1103.55,-313.61"/>
</g>
<!-- y_sigma -->
<g id="node8" class="node">
<title>y_sigma</title>
<ellipse fill="none" stroke="black" cx="1302" cy="-276.43" rx="56.64" ry="37.45"/>
<text text-anchor="middle" x="1302" y="-287.73" font-family="Times,serif" font-size="14.00">y_sigma</text>
<text text-anchor="middle" x="1302" y="-272.73" font-family="Times,serif" font-size="14.00">~</text>
<text text-anchor="middle" x="1302" y="-257.73" font-family="Times,serif" font-size="14.00">Halfnormal</text>
</g>
<!-- y -->
<g id="node12" class="node">
<title>y</title>
<ellipse fill="lightgrey" stroke="black" cx="1068" cy="-165.48" rx="82.96" ry="37.45"/>
<text text-anchor="middle" x="1068" y="-176.78" font-family="Times,serif" font-size="14.00">y</text>
<text text-anchor="middle" x="1068" y="-161.78" font-family="Times,serif" font-size="14.00">~</text>
<text text-anchor="middle" x="1068" y="-146.78" font-family="Times,serif" font-size="14.00">Truncated_normal</text>
</g>
<!-- y_sigma&#45;&gt;y -->
<g id="edge14" class="edge">
<title>y_sigma&#45;&gt;y</title>
<path fill="none" stroke="black" d="M1269.44,-245.47C1257.93,-236 1244.47,-226.14 1231,-218.93 1205.91,-205.49 1176.79,-194.77 1150.16,-186.61"/>
<polygon fill="black" stroke="black" points="1151.06,-183.22 1140.47,-183.72 1149.06,-189.93 1151.06,-183.22"/>
</g>
<!-- channel_contribution&#45;&gt;total_contribution -->
<g id="edge8" class="edge">
<title>channel_contribution&#45;&gt;total_contribution</title>
<path fill="none" stroke="black" d="M639.94,-360.84C620.11,-345.51 594.71,-325.88 573.53,-309.52"/>
<polygon fill="black" stroke="black" points="575.39,-306.54 565.34,-303.19 571.11,-312.08 575.39,-306.54"/>
</g>
<!-- channel_contribution&#45;&gt;channel_contribution_original_scale -->
<g id="edge17" class="edge">
<title>channel_contribution&#45;&gt;channel_contribution_original_scale</title>
<path fill="none" stroke="black" d="M682.61,-360.84C688.02,-346.46 694.86,-328.3 700.77,-312.6"/>
<polygon fill="black" stroke="black" points="704.06,-313.78 704.31,-303.19 697.51,-311.32 704.06,-313.78"/>
</g>
<!-- channel_contribution&#45;&gt;mu -->
<g id="edge13" class="edge">
<title>channel_contribution&#45;&gt;mu</title>
<path fill="none" stroke="black" d="M738.58,-381.65C815.6,-374.33 946.03,-356.37 1050,-313.91 1054.11,-312.23 1058.23,-310.22 1062.27,-308.03"/>
<polygon fill="black" stroke="black" points="1064.07,-311.03 1070.95,-302.97 1060.55,-304.98 1064.07,-311.03"/>
</g>
<!-- channel_contribution&#45;&gt;total_contribution_original_scale -->
<g id="edge19" class="edge">
<title>channel_contribution&#45;&gt;total_contribution_original_scale</title>
<path fill="none" stroke="black" d="M736.3,-360.84C776.44,-344.64 828.49,-323.64 870.32,-306.76"/>
<polygon fill="black" stroke="black" points="871.66,-309.99 879.63,-303 869.04,-303.5 871.66,-309.99"/>
</g>
<!-- channel_data -->
<g id="node11" class="node">
<title>channel_data</title>
<path fill="lightgrey" stroke="black" d="M705,-527.84C705,-527.84 641,-527.84 641,-527.84 635,-527.84 629,-521.84 629,-515.84 629,-515.84 629,-486.84 629,-486.84 629,-480.84 635,-474.84 641,-474.84 641,-474.84 705,-474.84 705,-474.84 711,-474.84 717,-480.84 717,-486.84 717,-486.84 717,-515.84 717,-515.84 717,-521.84 711,-527.84 705,-527.84"/>
<text text-anchor="middle" x="673" y="-512.64" font-family="Times,serif" font-size="14.00">channel_data</text>
<text text-anchor="middle" x="673" y="-497.64" font-family="Times,serif" font-size="14.00">~</text>
<text text-anchor="middle" x="673" y="-482.64" font-family="Times,serif" font-size="14.00">Data</text>
</g>
<!-- channel_data&#45;&gt;channel_contribution -->
<g id="edge5" class="edge">
<title>channel_data&#45;&gt;channel_contribution</title>
<path fill="none" stroke="black" d="M673,-474.65C673,-459.72 673,-440.67 673,-424.27"/>
<polygon fill="black" stroke="black" points="676.5,-423.95 673,-413.95 669.5,-423.95 676.5,-423.95"/>
</g>
<!-- y&#45;&gt;target_scale -->
<g id="edge1" class="edge">
<title>y&#45;&gt;target_scale</title>
<path fill="none" stroke="black" d="M1142.66,-181.83C1162.27,-189.62 1181.22,-201.33 1193,-218.93 1219.05,-257.85 1212.71,-314.1 1204.43,-350.46"/>
<polygon fill="black" stroke="black" points="1200.92,-350.06 1201.95,-360.6 1207.72,-351.72 1200.92,-350.06"/>
</g>
<!-- target_data -->
<g id="node16" class="node">
<title>target_data</title>
<path fill="lightgrey" stroke="black" d="M1094.5,-92C1094.5,-92 1041.5,-92 1041.5,-92 1035.5,-92 1029.5,-86 1029.5,-80 1029.5,-80 1029.5,-51 1029.5,-51 1029.5,-45 1035.5,-39 1041.5,-39 1041.5,-39 1094.5,-39 1094.5,-39 1100.5,-39 1106.5,-45 1106.5,-51 1106.5,-51 1106.5,-80 1106.5,-80 1106.5,-86 1100.5,-92 1094.5,-92"/>
<text text-anchor="middle" x="1068" y="-76.8" font-family="Times,serif" font-size="14.00">target_data</text>
<text text-anchor="middle" x="1068" y="-61.8" font-family="Times,serif" font-size="14.00">~</text>
<text text-anchor="middle" x="1068" y="-46.8" font-family="Times,serif" font-size="14.00">Data</text>
</g>
<!-- y&#45;&gt;target_data -->
<g id="edge2" class="edge">
<title>y&#45;&gt;target_data</title>
<path fill="none" stroke="black" d="M1068,-127.99C1068,-119.58 1068,-110.63 1068,-102.25"/>
<polygon fill="black" stroke="black" points="1071.5,-102.01 1068,-92.01 1064.5,-102.01 1071.5,-102.01"/>
</g>
<!-- mu&#45;&gt;y -->
<g id="edge15" class="edge">
<title>mu&#45;&gt;y</title>
<path fill="none" stroke="black" d="M1096.33,-249.89C1092.51,-238.66 1087.92,-225.12 1083.54,-212.25"/>
<polygon fill="black" stroke="black" points="1086.79,-210.93 1080.26,-202.59 1080.16,-213.18 1086.79,-210.93"/>
</g>
<!-- mu&#45;&gt;y_original_scale -->
<g id="edge23" class="edge">
<title>mu&#45;&gt;y_original_scale</title>
<path fill="none" stroke="black" d="M1085.86,-249.83C1076.27,-238.73 1063.77,-226.56 1050,-218.93 1020.57,-202.63 1007.34,-215.19 976,-202.95 971.51,-201.2 966.97,-199.15 962.48,-196.92"/>
<polygon fill="black" stroke="black" points="963.89,-193.71 953.41,-192.16 960.64,-199.91 963.89,-193.71"/>
</g>
<!-- gamma_control -->
<g id="node17" class="node">
<title>gamma_control</title>
<ellipse fill="none" stroke="black" cx="1684" cy="-501.34" rx="72.66" ry="37.45"/>
<text text-anchor="middle" x="1684" y="-512.64" font-family="Times,serif" font-size="14.00">gamma_control</text>
<text text-anchor="middle" x="1684" y="-497.64" font-family="Times,serif" font-size="14.00">~</text>
<text text-anchor="middle" x="1684" y="-482.64" font-family="Times,serif" font-size="14.00">Normal</text>
</g>
<!-- control_contribution -->
<g id="node19" class="node">
<title>control_contribution</title>
<polygon fill="none" stroke="black" points="1546,-413.88 1418,-413.88 1418,-360.88 1546,-360.88 1546,-413.88"/>
<text text-anchor="middle" x="1482" y="-398.68" font-family="Times,serif" font-size="14.00">control_contribution</text>
<text text-anchor="middle" x="1482" y="-383.68" font-family="Times,serif" font-size="14.00">~</text>
<text text-anchor="middle" x="1482" y="-368.68" font-family="Times,serif" font-size="14.00">Deterministic</text>
</g>
<!-- gamma_control&#45;&gt;control_contribution -->
<g id="edge9" class="edge">
<title>gamma_control&#45;&gt;control_contribution</title>
<path fill="none" stroke="black" d="M1648.53,-468.16C1633.92,-456 1616.36,-442.73 1599,-432.86 1585.52,-425.19 1570.46,-418.34 1555.75,-412.45"/>
<polygon fill="black" stroke="black" points="1556.75,-409.08 1546.16,-408.72 1554.21,-415.61 1556.75,-409.08"/>
</g>
<!-- control_contribution&#45;&gt;mu -->
<g id="edge12" class="edge">
<title>control_contribution&#45;&gt;mu</title>
<path fill="none" stroke="black" d="M1417.62,-367.78C1345.26,-346.86 1228.97,-313.26 1160.47,-293.46"/>
<polygon fill="black" stroke="black" points="1161.3,-290.06 1150.73,-290.64 1159.36,-296.78 1161.3,-290.06"/>
</g>
<!-- control_contribution&#45;&gt;control_contribution_original_scale -->
<g id="edge21" class="edge">
<title>control_contribution&#45;&gt;control_contribution_original_scale</title>
<path fill="none" stroke="black" d="M1482,-360.84C1482,-346.73 1482,-328.98 1482,-313.49"/>
<polygon fill="black" stroke="black" points="1485.5,-313.19 1482,-303.19 1478.5,-313.19 1485.5,-313.19"/>
</g>
<!-- control_data -->
<g id="node20" class="node">
<title>control_data</title>
<path fill="lightgrey" stroke="black" d="M1512,-527.84C1512,-527.84 1452,-527.84 1452,-527.84 1446,-527.84 1440,-521.84 1440,-515.84 1440,-515.84 1440,-486.84 1440,-486.84 1440,-480.84 1446,-474.84 1452,-474.84 1452,-474.84 1512,-474.84 1512,-474.84 1518,-474.84 1524,-480.84 1524,-486.84 1524,-486.84 1524,-515.84 1524,-515.84 1524,-521.84 1518,-527.84 1512,-527.84"/>
<text text-anchor="middle" x="1482" y="-512.64" font-family="Times,serif" font-size="14.00">control_data</text>
<text text-anchor="middle" x="1482" y="-497.64" font-family="Times,serif" font-size="14.00">~</text>
<text text-anchor="middle" x="1482" y="-482.64" font-family="Times,serif" font-size="14.00">Data</text>
</g>
<!-- control_data&#45;&gt;control_contribution -->
<g id="edge10" class="edge">
<title>control_data&#45;&gt;control_contribution</title>
<path fill="none" stroke="black" d="M1482,-474.65C1482,-459.72 1482,-440.67 1482,-424.27"/>
<polygon fill="black" stroke="black" points="1485.5,-423.95 1482,-413.95 1478.5,-423.95 1485.5,-423.95"/>
</g>
</g>
</svg>
