<?xml version="1.0" encoding="UTF-8" standalone="no"?>
<!DOCTYPE svg PUBLIC "-//W3C//DTD SVG 1.1//EN"
 "http://www.w3.org/Graphics/SVG/1.1/DTD/svg11.dtd">
<!-- Generated by graphviz version 12.2.1 (0)
 -->
<!-- Pages: 1 -->
<svg width="857pt" height="260pt"
 viewBox="0.00 0.00 856.70 260.00" xmlns="http://www.w3.org/2000/svg" xmlns:xlink="http://www.w3.org/1999/xlink">
<g id="graph0" class="graph" transform="scale(1 1) rotate(0) translate(4 256)">
<polygon fill="white" stroke="none" points="-4,4 -4,-256 852.7,-256 852.7,4 -4,4"/>
<!-- spend_x1 -->
<g id="node1" class="node">
<title>spend_x1</title>
<ellipse fill="none" stroke="black" cx="134.93" cy="-234" rx="47.77" ry="18"/>
<text text-anchor="middle" x="134.93" y="-228.95" font-family="Times,serif" font-size="14.00">Spend X1</text>
</g>
<!-- impressions_x1 -->
<g id="node9" class="node">
<title>impressions_x1</title>
<ellipse fill="none" stroke="black" cx="134.93" cy="-162" rx="69.26" ry="18"/>
<text text-anchor="middle" x="134.93" y="-156.95" font-family="Times,serif" font-size="14.00">impressions_x1</text>
</g>
<!-- spend_x1&#45;&gt;impressions_x1 -->
<g id="edge1" class="edge">
<title>spend_x1&#45;&gt;impressions_x1</title>
<path fill="none" stroke="black" d="M134.93,-215.7C134.93,-208.41 134.93,-199.73 134.93,-191.54"/>
<polygon fill="black" stroke="black" points="138.43,-191.62 134.93,-181.62 131.43,-191.62 138.43,-191.62"/>
</g>
<!-- spend_x2 -->
<g id="node2" class="node">
<title>spend_x2</title>
<ellipse fill="none" stroke="black" cx="667.93" cy="-234" rx="47.77" ry="18"/>
<text text-anchor="middle" x="667.93" y="-228.95" font-family="Times,serif" font-size="14.00">Spend X2</text>
</g>
<!-- impressions_x2 -->
<g id="node10" class="node">
<title>impressions_x2</title>
<ellipse fill="none" stroke="black" cx="665.93" cy="-162" rx="69.26" ry="18"/>
<text text-anchor="middle" x="665.93" y="-156.95" font-family="Times,serif" font-size="14.00">impressions_x2</text>
</g>
<!-- spend_x2&#45;&gt;impressions_x2 -->
<g id="edge2" class="edge">
<title>spend_x2&#45;&gt;impressions_x2</title>
<path fill="none" stroke="black" d="M667.43,-215.7C667.22,-208.41 666.98,-199.73 666.74,-191.54"/>
<polygon fill="black" stroke="black" points="670.24,-191.51 666.46,-181.62 663.25,-191.71 670.24,-191.51"/>
</g>
<!-- spend_x3 -->
<g id="node3" class="node">
<title>spend_x3</title>
<ellipse fill="none" stroke="black" cx="492.93" cy="-162" rx="47.77" ry="18"/>
<text text-anchor="middle" x="492.93" y="-156.95" font-family="Times,serif" font-size="14.00">Spend X3</text>
</g>
<!-- impressions_x3 -->
<g id="node11" class="node">
<title>impressions_x3</title>
<ellipse fill="none" stroke="black" cx="568.93" cy="-90" rx="69.26" ry="18"/>
<text text-anchor="middle" x="568.93" y="-84.95" font-family="Times,serif" font-size="14.00">impressions_x3</text>
</g>
<!-- spend_x3&#45;&gt;impressions_x3 -->
<g id="edge3" class="edge">
<title>spend_x3&#45;&gt;impressions_x3</title>
<path fill="none" stroke="black" d="M510.17,-145.12C519.71,-136.33 531.76,-125.23 542.47,-115.37"/>
<polygon fill="black" stroke="black" points="544.59,-118.17 549.58,-108.82 539.85,-113.02 544.59,-118.17"/>
</g>
<!-- spend_x4 -->
<g id="node4" class="node">
<title>spend_x4</title>
<ellipse fill="none" stroke="black" cx="800.93" cy="-162" rx="47.77" ry="18"/>
<text text-anchor="middle" x="800.93" y="-156.95" font-family="Times,serif" font-size="14.00">Spend X4</text>
</g>
<!-- impressions_x4 -->
<g id="node12" class="node">
<title>impressions_x4</title>
<ellipse fill="none" stroke="black" cx="762.93" cy="-90" rx="69.26" ry="18"/>
<text text-anchor="middle" x="762.93" y="-84.95" font-family="Times,serif" font-size="14.00">impressions_x4</text>
</g>
<!-- spend_x4&#45;&gt;impressions_x4 -->
<g id="edge4" class="edge">
<title>spend_x4&#45;&gt;impressions_x4</title>
<path fill="none" stroke="black" d="M791.73,-144.05C787.54,-136.35 782.48,-127.03 777.78,-118.36"/>
<polygon fill="black" stroke="black" points="780.87,-116.72 773.03,-109.61 774.72,-120.06 780.87,-116.72"/>
</g>
<!-- trend -->
<g id="node5" class="node">
<title>trend</title>
<ellipse fill="none" stroke="black" cx="32.93" cy="-90" rx="32.93" ry="18"/>
<text text-anchor="middle" x="32.93" y="-84.95" font-family="Times,serif" font-size="14.00">Trend</text>
</g>
<!-- target_var -->
<g id="node13" class="node">
<title>target_var</title>
<ellipse fill="none" stroke="black" cx="370.93" cy="-18" rx="48.28" ry="18"/>
<text text-anchor="middle" x="370.93" y="-12.95" font-family="Times,serif" font-size="14.00">target_var</text>
</g>
<!-- trend&#45;&gt;target_var -->
<g id="edge10" class="edge">
<title>trend&#45;&gt;target_var</title>
<path fill="none" stroke="black" d="M57.95,-77.89C63.46,-75.71 69.33,-73.61 74.93,-72 156.45,-48.48 253.76,-33.46 313.96,-25.63"/>
<polygon fill="black" stroke="black" points="314.15,-29.14 323.62,-24.4 313.26,-22.19 314.15,-29.14"/>
</g>
<!-- global_noise -->
<g id="node6" class="node">
<title>global_noise</title>
<ellipse fill="none" stroke="black" cx="143.93" cy="-90" rx="60.05" ry="18"/>
<text text-anchor="middle" x="143.93" y="-84.95" font-family="Times,serif" font-size="14.00">Global Noise</text>
</g>
<!-- global_noise&#45;&gt;target_var -->
<g id="edge11" class="edge">
<title>global_noise&#45;&gt;target_var</title>
<path fill="none" stroke="black" d="M184.77,-76.4C223.82,-64.36 282.68,-46.21 323.72,-33.56"/>
<polygon fill="black" stroke="black" points="324.56,-36.96 333.08,-30.67 322.5,-30.27 324.56,-36.96"/>
</g>
<!-- event_contributions -->
<g id="node7" class="node">
<title>event_contributions</title>
<ellipse fill="none" stroke="black" cx="565.93" cy="-234" rx="36" ry="18"/>
<text text-anchor="middle" x="565.93" y="-228.95" font-family="Times,serif" font-size="14.00">Events</text>
</g>
<!-- event_contributions&#45;&gt;impressions_x2 -->
<g id="edge8" class="edge">
<title>event_contributions&#45;&gt;impressions_x2</title>
<path fill="none" stroke="black" d="M586.16,-218.83C599.68,-209.37 617.76,-196.72 633.29,-185.85"/>
<polygon fill="black" stroke="black" points="635.14,-188.82 641.32,-180.22 631.12,-183.09 635.14,-188.82"/>
</g>
<!-- event_contributions&#45;&gt;impressions_x3 -->
<g id="edge9" class="edge">
<title>event_contributions&#45;&gt;impressions_x3</title>
<path fill="none" stroke="black" d="M566.29,-215.59C566.8,-191.61 567.72,-148.14 568.33,-119.42"/>
<polygon fill="black" stroke="black" points="571.82,-119.7 568.53,-109.62 564.82,-119.55 571.82,-119.7"/>
</g>
<!-- event_contributions&#45;&gt;target_var -->
<g id="edge12" class="edge">
<title>event_contributions&#45;&gt;target_var</title>
<path fill="none" stroke="black" d="M529.94,-231.11C461.74,-225.34 314.8,-202.06 250.93,-108 241.94,-94.76 242.19,-85.41 250.93,-72 265.48,-49.66 291.82,-36.67 316.12,-29.15"/>
<polygon fill="black" stroke="black" points="316.96,-32.55 325.63,-26.47 315.06,-25.81 316.96,-32.55"/>
</g>
<!-- product_price_contribution -->
<g id="node8" class="node">
<title>product_price_contribution</title>
<ellipse fill="none" stroke="black" cx="370.93" cy="-90" rx="110.72" ry="18"/>
<text text-anchor="middle" x="370.93" y="-84.95" font-family="Times,serif" font-size="14.00">Product Price Contribution</text>
</g>
<!-- product_price_contribution&#45;&gt;target_var -->
<g id="edge13" class="edge">
<title>product_price_contribution&#45;&gt;target_var</title>
<path fill="none" stroke="black" d="M370.93,-71.7C370.93,-64.41 370.93,-55.73 370.93,-47.54"/>
<polygon fill="black" stroke="black" points="374.43,-47.62 370.93,-37.62 367.43,-47.62 374.43,-47.62"/>
</g>
<!-- impressions_x1&#45;&gt;impressions_x3 -->
<g id="edge5" class="edge">
<title>impressions_x1&#45;&gt;impressions_x3</title>
<path fill="none" stroke="black" d="M195.92,-153.18C266.98,-143.78 387.82,-126.89 490.93,-108 496.19,-107.04 501.64,-105.98 507.09,-104.87"/>
<polygon fill="black" stroke="black" points="507.69,-108.32 516.77,-102.86 506.27,-101.47 507.69,-108.32"/>
</g>
<!-- impressions_x2&#45;&gt;impressions_x3 -->
<g id="edge6" class="edge">
<title>impressions_x2&#45;&gt;impressions_x3</title>
<path fill="none" stroke="black" d="M643.43,-144.76C630.79,-135.64 614.8,-124.1 600.88,-114.06"/>
<polygon fill="black" stroke="black" points="603.02,-111.29 592.87,-108.28 598.93,-116.97 603.02,-111.29"/>
</g>
<!-- impressions_x2&#45;&gt;impressions_x4 -->
<g id="edge7" class="edge">
<title>impressions_x2&#45;&gt;impressions_x4</title>
<path fill="none" stroke="black" d="M688.42,-144.76C701.07,-135.64 717.05,-124.1 730.97,-114.06"/>
<polygon fill="black" stroke="black" points="732.93,-116.97 738.99,-108.28 728.83,-111.29 732.93,-116.97"/>
</g>
<!-- impressions_x2&#45;&gt;target_var -->
<g id="edge14" class="edge">
<title>impressions_x2&#45;&gt;target_var</title>
<path fill="none" stroke="black" d="M667.44,-143.62C668.17,-123.49 666,-90.69 646.93,-72 616.78,-42.47 501.34,-28.65 429.65,-22.79"/>
<polygon fill="black" stroke="black" points="430.29,-19.33 420.05,-22.03 429.74,-26.31 430.29,-19.33"/>
</g>
<!-- impressions_x3&#45;&gt;target_var -->
<g id="edge15" class="edge">
<title>impressions_x3&#45;&gt;target_var</title>
<path fill="none" stroke="black" d="M529.33,-75C496.54,-63.41 449.96,-46.94 415.79,-34.86"/>
<polygon fill="black" stroke="black" points="417.19,-31.64 406.59,-31.61 414.85,-38.24 417.19,-31.64"/>
</g>
<!-- impressions_x4&#45;&gt;target_var -->
<g id="edge16" class="edge">
<title>impressions_x4&#45;&gt;target_var</title>
<path fill="none" stroke="black" d="M710.29,-77.95C700.22,-75.92 689.76,-73.85 679.93,-72 591.17,-55.3 487.66,-37.99 425.81,-27.87"/>
<polygon fill="black" stroke="black" points="426.68,-24.46 416.25,-26.31 425.56,-31.37 426.68,-24.46"/>
</g>
</g>
</svg>
